<?xml version="1.0" encoding="UTF-8" standalone="no"?>
<!-- Created with Inkscape (http://www.inkscape.org/) -->

<svg
   width="297.33594"
   height="61.283203"
   id="svg2"
   version="1.1"
   inkscape:version="0.48.4 r9939"
   sodipodi:docname="ui_kit .svg"
   xml:space="preserve"
   xmlns:inkscape="http://www.inkscape.org/namespaces/inkscape"
   xmlns:sodipodi="http://sodipodi.sourceforge.net/DTD/sodipodi-0.dtd"
   xmlns="http://www.w3.org/2000/svg"
   xmlns:svg="http://www.w3.org/2000/svg"
   xmlns:rdf="http://www.w3.org/1999/02/22-rdf-syntax-ns#"
   xmlns:cc="http://creativecommons.org/ns#"
   xmlns:dc="http://purl.org/dc/elements/1.1/"><defs
     id="defs4" /><sodipodi:namedview
     id="base"
     pagecolor="#81dfeb"
     bordercolor="#666666"
     borderopacity="1.0"
     inkscape:pageopacity="1"
     inkscape:pageshadow="2"
     inkscape:zoom="0.24578147"
     inkscape:cx="333.62971"
     inkscape:cy="1169.7383"
     inkscape:document-units="px"
     inkscape:current-layer="g23"
     showgrid="false"
     inkscape:window-width="1366"
     inkscape:window-height="705"
     inkscape:window-x="-8"
     inkscape:window-y="-8"
     inkscape:window-maximized="1"
     showguides="true"
     inkscape:guide-bbox="true"
     fit-margin-top="0"
     fit-margin-left="0"
     fit-margin-right="0"
     fit-margin-bottom="0"
     inkscape:showpageshadow="2"
     inkscape:pagecheckerboard="0"
     inkscape:deskcolor="#d1d1d1"
     inkscape:export-bgcolor="#ffffff00" /><metadata
     id="metadata7"><rdf:RDF><cc:Work
         rdf:about=""><dc:format>image/svg+xml</dc:format><dc:type
           rdf:resource="http://purl.org/dc/dcmitype/StillImage" /><dc:title /></cc:Work></rdf:RDF></metadata><g
     inkscape:label="Layer 1"
     inkscape:groupmode="layer"
     id="layer1"
     transform="translate(-901.92321,-146.17272)"><g
       id="g38"
       transform="translate(576.65487,574.80289)"><path
         id="rect32"
         style="fill:#00aad4;fill-opacity:1;stroke:none"
         d="m 428.63017,-351.76639 c 0,14.67952 -13.66711,26.49805 -30.64258,26.49805 -16.97547,0 -30.64062,-11.81853 -30.64062,-26.49805 v -244.33984 c 0,-14.67952 13.66515,-26.49805 30.64062,-26.49805 16.97547,0 30.64258,11.81853 30.64258,26.49805 z m -9.21289,-65.28516 v -174.68164 c 0,-9.03739 -7.27511,-16.31445 -16.3125,-16.31445 h -8.99609 c -9.03739,0 -16.3125,7.27706 -16.3125,16.31445 v 174.68164 c 0,9.03739 7.27511,16.3125 16.3125,16.3125 h 8.99609 c 9.03739,0 16.3125,-7.27511 16.3125,-16.3125 z"
         transform="matrix(0,-1,-1,0,0,0)" /></g></g></svg>
