<?xml version="1.0" encoding="UTF-8" standalone="no"?>
<!-- Created with Inkscape (http://www.inkscape.org/) -->

<svg
   width="205.99484"
   height="38.435059"
   id="svg2"
   version="1.1"
   inkscape:version="0.48.4 r9939"
   sodipodi:docname="ui_kit .svg"
   xml:space="preserve"
   xmlns:inkscape="http://www.inkscape.org/namespaces/inkscape"
   xmlns:sodipodi="http://sodipodi.sourceforge.net/DTD/sodipodi-0.dtd"
   xmlns="http://www.w3.org/2000/svg"
   xmlns:svg="http://www.w3.org/2000/svg"
   xmlns:rdf="http://www.w3.org/1999/02/22-rdf-syntax-ns#"
   xmlns:cc="http://creativecommons.org/ns#"
   xmlns:dc="http://purl.org/dc/elements/1.1/"><defs
     id="defs4" /><sodipodi:namedview
     id="base"
     pagecolor="#81dfeb"
     bordercolor="#666666"
     borderopacity="1.0"
     inkscape:pageopacity="1"
     inkscape:pageshadow="2"
     inkscape:zoom="0.24578147"
     inkscape:cx="333.62971"
     inkscape:cy="1169.7383"
     inkscape:document-units="px"
     inkscape:current-layer="g23"
     showgrid="false"
     inkscape:window-width="1366"
     inkscape:window-height="705"
     inkscape:window-x="-8"
     inkscape:window-y="-8"
     inkscape:window-maximized="1"
     showguides="true"
     inkscape:guide-bbox="true"
     fit-margin-top="0"
     fit-margin-left="0"
     fit-margin-right="0"
     fit-margin-bottom="0"
     inkscape:showpageshadow="2"
     inkscape:pagecheckerboard="0"
     inkscape:deskcolor="#d1d1d1"
     inkscape:export-bgcolor="#ffffff00" /><metadata
     id="metadata7"><rdf:RDF><cc:Work
         rdf:about=""><dc:format>image/svg+xml</dc:format><dc:type
           rdf:resource="http://purl.org/dc/dcmitype/StillImage" /><dc:title /></cc:Work></rdf:RDF></metadata><g
     inkscape:label="Layer 1"
     inkscape:groupmode="layer"
     id="layer1"
     transform="translate(-438.29055,-333.86046)"><g
       id="g9557"
       transform="matrix(0.99366365,0,0,0.92342335,40.091238,721.1607)"
       inkscape:export-filename="..\Documents\Godot\Desert_Dash\textures\progress_.svg"
       inkscape:export-xdpi="90"
       inkscape:export-ydpi="90"><rect
         style="fill:#cccccc;fill-opacity:1;stroke:none"
         id="rect9559"
         width="207.30841"
         height="41.622269"
         x="400.73853"
         y="-419.41782"
         ry="16.312992" /><path
         inkscape:connector-curvature="0"
         id="path9561"
         d="m 591.34375,-415.4375 c -59.03382,0.23491 -118.11819,-0.32702 -177.125,0.3125 -8.01639,1.67856 -10.829,10.97333 -9.625,18.125 -1.50133,8.69796 6.68387,17.0066 15.53125,15.21591 58.33305,-0.27646 116.75029,0.56456 175.03125,-0.43466 7.70955,-2.03373 10.05717,-11.10462 9.0625,-18 1.06719,-7.47042 -4.92092,-15.78392 -12.875,-15.21875 z"
         style="fill:#ececec;fill-opacity:1;stroke:none" /><path
         style="fill:#f9f9f9;fill-opacity:1;stroke:none"
         d="m 587.375,-409.5625 c -55.73059,0.76758 -111.5378,-0.69143 -167.28125,0.6875 -3.93677,-0.358 -8.52005,0.26697 -9.25,4.84375 -1.16501,5.5787 -1.60795,14.93117 5.71875,16.21875 10.20281,0.50766 20.49606,-0.54085 30.74998,-0.0466 49.10232,-0.099 98.30701,0.85677 147.34377,-0.70341 5.63399,-4.53431 4.75442,-13.93519 1.21875,-19.25 -2.30363,-2.05859 -5.61815,-1.85787 -8.5,-1.75 z"
         id="path9563"
         inkscape:connector-curvature="0" /></g></g></svg>
