<?xml version="1.0" encoding="UTF-8" standalone="no"?>
<!-- Created with Inkscape (http://www.inkscape.org/) -->

<svg
   width="40.297974"
   height="36.948242"
   id="svg2"
   version="1.1"
   inkscape:version="0.48.4 r9939"
   sodipodi:docname="ui_kit .svg"
   xml:space="preserve"
   xmlns:inkscape="http://www.inkscape.org/namespaces/inkscape"
   xmlns:sodipodi="http://sodipodi.sourceforge.net/DTD/sodipodi-0.dtd"
   xmlns="http://www.w3.org/2000/svg"
   xmlns:svg="http://www.w3.org/2000/svg"
   xmlns:rdf="http://www.w3.org/1999/02/22-rdf-syntax-ns#"
   xmlns:cc="http://creativecommons.org/ns#"
   xmlns:dc="http://purl.org/dc/elements/1.1/"><defs
     id="defs4" /><sodipodi:namedview
     id="base"
     pagecolor="#81dfeb"
     bordercolor="#666666"
     borderopacity="1.0"
     inkscape:pageopacity="1"
     inkscape:pageshadow="2"
     inkscape:zoom="0.22392792"
     inkscape:cx="464.51937"
     inkscape:cy="2736.5913"
     inkscape:document-units="px"
     inkscape:current-layer="layer1"
     showgrid="false"
     inkscape:window-width="1366"
     inkscape:window-height="700"
     inkscape:window-x="0"
     inkscape:window-y="0"
     inkscape:window-maximized="1"
     showguides="true"
     inkscape:guide-bbox="true"
     fit-margin-top="0"
     fit-margin-left="0"
     fit-margin-right="0"
     fit-margin-bottom="0"
     inkscape:showpageshadow="2"
     inkscape:pagecheckerboard="0"
     inkscape:deskcolor="#d1d1d1"
     inkscape:export-bgcolor="#ffffff00" /><metadata
     id="metadata7"><rdf:RDF><cc:Work
         rdf:about=""><dc:format>image/svg+xml</dc:format><dc:type
           rdf:resource="http://purl.org/dc/dcmitype/StillImage" /><dc:title /></cc:Work></rdf:RDF></metadata><g
     inkscape:label="Layer 1"
     inkscape:groupmode="layer"
     id="layer1"
     transform="translate(-596.11254,-502.29882)"><g
       transform="matrix(0.55905063,0,0,0.55905063,547.72444,271.14861)"
       id="g5569"><path
         style="fill:#ffffff"
         inkscape:connector-curvature="0"
         d="m 136.41295,415.8273 c -15.96844,-8.33869 -22.52029,8.11629 -22.52029,8.11629 -0.42633,1.06485 -1.57744,2.42328 -2.55778,3.01773 l -3.23455,1.95465 c -0.98119,0.59304 -2.71954,0.97797 -3.85918,0.85776 0,0 -17.613902,-1.88079 -17.686729,16.13432 -0.0733,18.00922 11.811543,30.40496 11.811543,30.40496 2.684876,3.17088 5.964776,4.3891 9.308646,1.97049 3.33435,-2.41132 5.42676,-16.17472 5.42676,-16.17472 0.17398,-1.135 1.12086,-2.54784 2.1003,-3.13866 l 19.39874,-11.70639 c 0.98056,-0.5915 2.6708,-0.76944 3.75481,-0.39328 0,0 13.15174,4.56784 16.84556,2.73961 3.69451,-1.82707 4.14982,-5.30156 2.5952,-9.15115 -8.6e-4,5.2e-4 -5.41578,-16.2949 -21.38286,-24.63133 z m -25.7522,30.162 -4.16008,2.50944 2.41862,4.00948 c 0,0 -0.47522,1.20397 -1.84875,2.00935 -1.37331,0.80062 -2.41959,0.45884 -2.41959,0.45884 l -2.37078,-3.93021 -3.929075,2.3701 c 0,0 -0.79355,-0.207 -1.72335,-1.45142 -0.927548,-1.24577 -0.901555,-2.72085 -0.901555,-2.72085 l 4.161205,-2.51013 -2.50943,-4.16005 c 0,0 0.57938,-0.97495 1.83137,-1.68229 1.255185,-0.70461 2.436955,-0.7859 2.436955,-0.7859 l 2.44459,4.09108 3.92907,-2.3701 c 0,0 1.21757,0.46701 1.91623,1.49722 0.69933,1.03135 0.72452,2.66548 0.72452,2.66548 z m 21.8382,-6.9404 c -1.82188,1.099 -4.17909,0.51178 -5.27671,-1.30783 -1.09967,-1.82301 -0.51764,-4.17861 1.30424,-5.27761 1.81393,-1.0942 4.1804,-0.51719 5.28008,1.30581 1.0983,1.82073 0.50633,4.18543 -1.30761,5.27963 z m -5.46489,-9.05951 c -1.82187,1.09899 -4.17841,0.51289 -5.27603,-1.30671 -1.09967,-1.82303 -0.51764,-4.17861 1.30423,-5.27761 1.81394,-1.09421 4.18041,-0.5172 5.28009,1.30579 1.09831,1.82076 0.50565,4.18432 -1.30829,5.27853 z m 11.1337,-0.0833 c -1.82189,1.09899 -4.1784,0.5129 -5.27671,-1.30784 -1.09899,-1.82187 -0.51764,-4.1786 1.30425,-5.2776 1.81393,-1.0942 4.18108,-0.51607 5.28005,1.3058 1.09832,1.82074 0.50635,4.18544 -1.30759,5.27964 z"
         id="path5573"
         inkscape:export-filename="..\Documents\Godot\path5573.svg"
         inkscape:export-xdpi="90"
         inkscape:export-ydpi="90" /></g></g></svg>
