<?xml version="1.0" encoding="UTF-8" standalone="no"?>
<!-- Created with Inkscape (http://www.inkscape.org/) -->

<svg
   width="74.619141"
   height="74.619141"
   id="svg2"
   version="1.1"
   inkscape:version="1.3 (0e150ed6c4, 2023-07-21)"
   sodipodi:docname="ui_kit .svg"
   xml:space="preserve"
   xmlns:inkscape="http://www.inkscape.org/namespaces/inkscape"
   xmlns:sodipodi="http://sodipodi.sourceforge.net/DTD/sodipodi-0.dtd"
   xmlns:xlink="http://www.w3.org/1999/xlink"
   xmlns="http://www.w3.org/2000/svg"
   xmlns:svg="http://www.w3.org/2000/svg"
   xmlns:rdf="http://www.w3.org/1999/02/22-rdf-syntax-ns#"
   xmlns:cc="http://creativecommons.org/ns#"
   xmlns:dc="http://purl.org/dc/elements/1.1/"><defs
     id="defs4"><linearGradient
       id="swatch9470"
       inkscape:swatch="solid"><stop
         style="stop-color:#000000;stop-opacity:1;"
         offset="0"
         id="stop9470" /></linearGradient><linearGradient
       id="swatch9468"
       inkscape:swatch="solid"><stop
         style="stop-color:#000000;stop-opacity:1;"
         offset="0"
         id="stop9468" /></linearGradient><linearGradient
       id="swatch9466"
       inkscape:swatch="solid"><stop
         style="stop-color:#000000;stop-opacity:1;"
         offset="0"
         id="stop9466" /></linearGradient><linearGradient
       id="swatch9465"
       inkscape:swatch="solid"><stop
         style="stop-color:#000000;stop-opacity:1;"
         offset="0"
         id="stop9465" /></linearGradient><linearGradient
       id="swatch9463"
       inkscape:swatch="solid"><stop
         style="stop-color:#ffffff;stop-opacity:1;"
         offset="0"
         id="stop9463" /></linearGradient><linearGradient
       id="swatch9458"
       inkscape:swatch="solid"><stop
         style="stop-color:#000000;stop-opacity:1;"
         offset="0"
         id="stop9458" /></linearGradient><filter
       style="color-interpolation-filters:sRGB"
       inkscape:label="Drop Shadow"
       id="filter9596"
       x="-0.10672901"
       y="-0.064719076"
       width="1.211417"
       height="1.2169107"><feFlood
         result="flood"
         in="SourceGraphic"
         flood-opacity="0.498039"
         flood-color="rgb(0,0,0)"
         id="feFlood9595" /><feGaussianBlur
         result="blur"
         in="SourceGraphic"
         stdDeviation="1.200000"
         id="feGaussianBlur9595" /><feOffset
         result="offset"
         in="blur"
         dx="1.800000"
         dy="2.000000"
         id="feOffset9595" /><feComposite
         result="comp1"
         operator="in"
         in="flood"
         in2="offset"
         id="feComposite9595" /><feComposite
         result="comp2"
         operator="over"
         in="SourceGraphic"
         in2="comp1"
         id="feComposite9596" /></filter><linearGradient
       inkscape:collect="always"
       xlink:href="#swatch9463"
       id="linearGradient9677"
       gradientUnits="userSpaceOnUse"
       gradientTransform="matrix(0.39222615,0,0,1.0472534,-1783.0926,309.8931)"
       x1="1411.4479"
       y1="392.70169"
       x2="1425.1093"
       y2="392.70169" /></defs><sodipodi:namedview
     id="base"
     pagecolor="#81dfeb"
     bordercolor="#666666"
     borderopacity="1.0"
     inkscape:pageopacity="1"
     inkscape:pageshadow="2"
     inkscape:zoom="0.33643607"
     inkscape:cx="1694.2297"
     inkscape:cy="1336.0636"
     inkscape:document-units="px"
     inkscape:current-layer="layer1"
     showgrid="false"
     inkscape:window-width="1366"
     inkscape:window-height="705"
     inkscape:window-x="-8"
     inkscape:window-y="-8"
     inkscape:window-maximized="1"
     showguides="true"
     inkscape:guide-bbox="true"
     fit-margin-top="0"
     fit-margin-left="0"
     fit-margin-right="0"
     fit-margin-bottom="0"
     inkscape:showpageshadow="2"
     inkscape:pagecheckerboard="0"
     inkscape:deskcolor="#d1d1d1"
     inkscape:export-bgcolor="#ffffff00" /><metadata
     id="metadata7"><rdf:RDF><cc:Work
         rdf:about=""><dc:format>image/svg+xml</dc:format><dc:type
           rdf:resource="http://purl.org/dc/dcmitype/StillImage" /><dc:title /></cc:Work></rdf:RDF></metadata><g
     inkscape:label="Layer 1"
     inkscape:groupmode="layer"
     id="layer1"
     transform="translate(-1387.167,-332.28881)"><g
       id="g9676"
       transform="translate(91.309085,141.51813)"
       style="stroke-width:3.8;stroke-dasharray:none"
       inkscape:export-filename="..\Documents\Godot\Desert_Dash\sprites\daiy_challenge_normal.svg"
       inkscape:export-xdpi="96"
       inkscape:export-ydpi="96"><g
         transform="translate(1255.6329,-115.37393)"
         id="g9658"
         style="display:inline;fill:#808080;stroke-width:3.8;stroke-dasharray:none"
         inkscape:export-filename="..\Documents\Godot\Desert_Dash\sprites\daiy_challenge_pressed.svg"
         inkscape:export-xdpi="48.210114"
         inkscape:export-ydpi="48.210114"><path
           style="opacity:0.266094;fill:#808080;fill-opacity:1;stroke:none;stroke-width:3.8;stroke-dasharray:none"
           d="m 114.84412,343.53898 c 0,10.27934 -3.22251,17.99996 -9.9742,24.73632 -6.751705,6.73635 -17.032598,12.48845 -27.335343,12.48845 -10.30275,0 -20.265807,-5.11786 -27.017505,-11.85423 -6.751702,-6.73635 -10.292046,-15.0912 -10.292046,-25.37054 0,-10.27933 4.176009,-19.26841 10.927717,-26.00477 6.751697,-6.73635 16.079084,-11.21999 26.381834,-11.21999 10.302745,0 20.583638,3.84941 27.335343,10.58577 6.75169,6.73635 9.9742,16.35966 9.9742,26.63899 z"
           id="path9650"
           inkscape:connector-curvature="0"
           sodipodi:nodetypes="sssssssss" /><path
           style="fill:#808080;fill-opacity:1;stroke:none;stroke-width:3.8;stroke-dasharray:none"
           d="m 76.184658,306.15478 c -9.682675,0.16375 -18.804434,4.61977 -25.389315,11.43151 -6.58488,6.81173 -10.632887,15.97917 -10.168052,25.56579 -0.1153,12.08122 7.14293,23.4077 17.551887,29.45413 9.611326,6.16234 22.347177,7.62717 32.723364,2.46007 11.594208,-5.2606 21.720988,-15.754 22.532778,-28.85562 1.38117,-13.17935 -3.65912,-27.85723 -15.84135,-34.61888 -6.411319,-3.76992 -13.96721,-5.60107 -21.409312,-5.437 z"
           id="path9651"
           inkscape:connector-curvature="0"
           sodipodi:nodetypes="cscccccc" /><path
           inkscape:connector-curvature="0"
           id="path9652"
           d="m 75.201547,311.64801 c -19.124397,0.32806 -35.133492,22.03274 -27.602291,40.24557 6.13649,16.56502 28.343899,25.44362 43.821585,15.79814 11.187659,-5.81291 18.479079,-18.53137 15.983379,-31.155 -1.48195,-12.58974 -12.014525,-23.03669 -24.653328,-24.418 -2.488966,-0.4079 -5.016632,-0.58915 -7.549345,-0.47071 z"
           style="fill:#808080;fill-opacity:1;stroke:none;stroke-width:3.8;stroke-dasharray:none" /><path
           style="fill:#808080;fill-opacity:1;stroke:none;stroke-width:3.8;stroke-dasharray:none"
           d="m 75.063722,311.20996 c -19.181178,0.55832 -34.667097,22.01127 -27.454544,39.70237 5.556537,15.4225 25.61255,24.90185 40.921447,17.269 10.986477,-4.86322 19.769425,-15.8341 18.853665,-27.97993 0.0801,-11.68121 -7.15734,-23.74508 -19.044912,-27.07736 -4.25762,-1.47864 -8.769336,-2.08143 -13.275656,-1.91408 z"
           id="path9653"
           inkscape:connector-curvature="0" /><path
           style="opacity:0.656652;fill:#808080;fill-opacity:1;stroke:none;stroke-width:3.8;stroke-dasharray:none"
           d="m 74.747877,371.23129 c -9.765892,-0.8627 -18.750215,-6.10289 -24.11954,-14.06794 -1.543466,-2.28962 -1.616759,-2.69592 -0.250899,-1.39082 1.548831,1.47992 5.027282,3.76596 7.580216,4.9817 5.351908,2.54865 9.466312,3.45845 15.686062,3.46859 6.595114,0.0108 11.37234,-1.13225 17.167766,-4.10756 6.447317,-3.30997 12.332588,-9.36221 15.348158,-15.78357 l 0.92392,-1.9674 -0.005,1.27122 c -0.006,1.6972 -0.76295,4.8437 -1.78704,7.42737 -2.71093,6.83933 -9.030042,13.44668 -16.419106,17.16802 -4.33034,2.1809 -9.932114,3.37079 -14.12512,3.00039 z"
           id="path9654"
           inkscape:connector-curvature="0" /><path
           inkscape:connector-curvature="0"
           id="path9656"
           d="m 76.411,310.86389 c 9.642702,0.0814 18.853691,4.18223 24.72807,11.00917 1.68864,1.96247 1.79159,2.32508 0.35239,1.24129 -1.631994,-1.22898 -5.21787,-3.04956 -7.814318,-3.96739 -5.443134,-1.92413 -9.547414,-2.45309 -15.647465,-2.01665 -6.468193,0.46278 -11.065491,1.83993 -16.52115,4.94903 -6.069338,3.45881 -11.377829,9.36022 -13.843983,15.39023 l -0.755584,1.8475 -0.09269,-1.1513 c -0.12396,-1.53709 0.377792,-4.4402 1.184486,-6.85286 2.135445,-6.38661 7.826929,-12.82171 14.788316,-16.72045 4.079709,-2.28485 9.481986,-3.76354 13.622098,-3.72858 z"
           style="opacity:0.656652;fill:#808080;fill-opacity:1;stroke:none;stroke-width:3.8;stroke-dasharray:none" /><path
           style="fill:#808080;fill-opacity:1;stroke:none;stroke-width:3.8;stroke-dasharray:none"
           d="m 63.423434,318.7727 c 1.083827,1.14438 -1.8225,2.38149 -4.626709,4.97405 -2.804208,2.59257 -4.444402,5.55884 -5.52823,4.41445 -1.083827,-1.14438 0.310819,-4.17377 3.115027,-6.76634 2.804209,-2.59256 5.956084,-3.76655 7.039912,-2.62216 z"
           id="path9658"
           inkscape:connector-curvature="0"
           sodipodi:nodetypes="sssss" /></g><g
         id="g9675"
         transform="translate(-99.473506,50.697864)"
         style="stroke-width:3.8;stroke-dasharray:none;filter:url(#filter9596)"><g
           id="g9674"
           transform="matrix(0.61984349,0,0,0.61984349,589.7157,-62.460875)"
           style="stroke-width:6.13058;stroke-dasharray:none"><path
             style="fill:none;stroke:#ffffff;stroke-width:6.13058;stroke-dasharray:none;stroke-opacity:1"
             id="path9660"
             sodipodi:type="arc"
             sodipodi:cx="1358.229"
             sodipodi:cy="385.06903"
             sodipodi:rx="32.021931"
             sodipodi:ry="32.021931"
             sodipodi:start="5.7428981"
             sodipodi:end="5.4849158"
             sodipodi:open="true"
             sodipodi:arc-type="arc"
             d="m 1385.6898,368.59752 a 32.021931,32.021931 0 0 1 -9.2537,42.81357 32.021931,32.021931 0 0 1 -43.3209,-6.47501 32.021931,32.021931 0 0 1 3.6694,-43.64821 32.021931,32.021931 0 0 1 43.794,0.84868" /><path
             style="fill:none;fill-opacity:0;stroke:#ffffff;stroke-width:6.13058;stroke-dasharray:none;stroke-opacity:1"
             id="path9667"
             sodipodi:type="arc"
             sodipodi:cx="1358.2291"
             sodipodi:cy="384.8833"
             sodipodi:rx="10.403165"
             sodipodi:ry="10.403165"
             sodipodi:start="6.0914322"
             sodipodi:end="5.4849158"
             sodipodi:open="true"
             sodipodi:arc-type="arc"
             d="m 1368.4416,382.90066 a 10.403165,10.403165 0 0 1 -6.71,11.77848 10.403165,10.403165 0 0 1 -12.6569,-4.8539 10.403165,10.403165 0 0 1 2.8864,-13.24483 10.403165,10.403165 0 0 1 13.5289,0.85267" /><path
             style="fill:#ffffff;fill-opacity:0;stroke:#ffffff;stroke-width:6.13058;stroke-dasharray:none;stroke-opacity:1"
             id="path9668"
             sodipodi:type="arc"
             sodipodi:cx="1358.3785"
             sodipodi:cy="384.95142"
             sodipodi:rx="21.411646"
             sodipodi:ry="21.411646"
             sodipodi:start="5.7793805"
             sodipodi:end="5.4849158"
             sodipodi:open="true"
             sodipodi:arc-type="arc"
             d="m 1377.1298,374.61471 a 21.411646,21.411646 0 0 1 -7.0634,28.27695 21.411646,21.411646 0 0 1 -28.7199,-4.96454 21.411646,21.411646 0 0 1 2.8388,-29.00723 21.411646,21.411646 0 0 1 29.1374,0.69759" /><rect
             style="fill:url(#linearGradient9677);stroke:none;stroke-width:6.13063;stroke-dasharray:none;stroke-opacity:1"
             id="rect9668"
             width="5.672174"
             height="48.829838"
             x="-1229.4858"
             y="702.71735"
             rx="0.60107034"
             ry="0"
             transform="matrix(-0.69722691,-0.7168505,0.71299327,-0.70117088,0,0)" /><path
             sodipodi:type="star"
             style="fill:#ffffff;fill-opacity:1;stroke:none;stroke-width:6.6527;stroke-dasharray:none;stroke-opacity:1"
             id="path9669"
             inkscape:flatsided="false"
             sodipodi:sides="3"
             sodipodi:cx="1416.3213"
             sodipodi:cy="1421.0503"
             sodipodi:r1="6.2860842"
             sodipodi:r2="3.1430426"
             sodipodi:arg1="-1.7599953"
             sodipodi:arg2="-0.7127978"
             inkscape:rounded="0"
             inkscape:randomized="0"
             d="m 1415.1391,1414.8764 3.56,4.1185 3.5601,4.1185 -5.3468,1.0238 -5.3468,1.0239 1.7867,-5.1424 z"
             transform="matrix(0.7970575,0,0,1.0654112,258.00945,-1155.2376)"
             inkscape:transform-center-x="-0.47114694"
             inkscape:transform-center-y="-1.0989497" /><path
             sodipodi:type="star"
             style="fill:#ffffff;fill-opacity:1;stroke:none;stroke-width:6.34358;stroke-dasharray:none;stroke-opacity:1"
             id="path9671"
             inkscape:flatsided="false"
             sodipodi:sides="3"
             sodipodi:cx="1416.3213"
             sodipodi:cy="1421.0503"
             sodipodi:r1="6.2860842"
             sodipodi:r2="3.1430426"
             sodipodi:arg1="-1.7599953"
             sodipodi:arg2="-0.7127978"
             inkscape:rounded="0"
             inkscape:randomized="0"
             d="m 1415.1391,1414.8764 3.56,4.1185 3.5601,4.1185 -5.3468,1.0238 -5.3468,1.0239 1.7867,-5.1424 z"
             transform="matrix(1.0552782,0,0,0.88504899,-110.38056,-901.47234)"
             inkscape:transform-center-x="-0.6237641"
             inkscape:transform-center-y="-0.91298278" /><path
             sodipodi:type="star"
             style="fill:#ffffff;fill-opacity:1;stroke:none;stroke-width:6.19145;stroke-dasharray:none;stroke-opacity:1"
             id="path9673"
             inkscape:flatsided="false"
             sodipodi:sides="3"
             sodipodi:cx="1416.3213"
             sodipodi:cy="1421.0503"
             sodipodi:r1="6.2860842"
             sodipodi:r2="3.1430426"
             sodipodi:arg1="-1.7599953"
             sodipodi:arg2="-0.7127978"
             inkscape:rounded="0"
             inkscape:randomized="0"
             d="m 1415.1391,1414.8764 3.56,4.1185 3.5601,4.1185 -5.3468,1.0238 -5.3468,1.0239 1.7867,-5.1424 z"
             transform="matrix(0.74905736,-0.64954351,0.66250515,0.73440236,-609.84474,231.09289)"
             inkscape:transform-center-x="-0.4194217"
             inkscape:transform-center-y="1.1708954" /><path
             sodipodi:type="star"
             style="fill:#ffffff;fill-opacity:1;stroke:none;stroke-width:6.11215;stroke-dasharray:none;stroke-opacity:1"
             id="path9674"
             inkscape:flatsided="false"
             sodipodi:sides="3"
             sodipodi:cx="1416.3213"
             sodipodi:cy="1421.0503"
             sodipodi:r1="6.2860842"
             sodipodi:r2="3.1430426"
             sodipodi:arg1="-1.7599953"
             sodipodi:arg2="-0.7127978"
             inkscape:rounded="0"
             inkscape:randomized="0"
             d="m 1415.1391,1414.8764 3.56,4.1185 3.5601,4.1185 -5.3468,1.0238 -5.3468,1.0239 1.7867,-5.1424 z"
             transform="matrix(0.72690804,0.68574041,-0.63511072,0.78485562,1261.9078,-1735.5931)"
             inkscape:transform-center-x="1.5029608"
             inkscape:transform-center-y="0.01733231" /><rect
             style="fill:#ffffff;fill-opacity:1;stroke:none;stroke-width:6.13058;stroke-dasharray:none;stroke-opacity:1"
             id="rect9674"
             width="8.3877897"
             height="10.164448"
             x="1383.4026"
             y="350.86353"
             rx="0.56207877" /></g></g></g></g></svg>
