<svg xmlns="http://www.w3.org/2000/svg" id="canvas" viewBox="194.393 205.478 930.350 170.539"><path d="M 252.04,236.17 C 250.86 237.02, 250.31 237.97, 249.64 240.64 C 248.97 243.31, 249.40 245.11, 248.70 249.52 C 247.99 253.93, 247.58 256.88, 246.11 262.70 C 244.65 268.51, 243.55 271.93, 241.37 278.61 C 239.20 285.28, 237.80 289.01, 235.25 296.08 C 232.70 303.15, 231.21 307.03, 228.62 313.96 C 226.03 320.89, 224.61 324.55, 222.30 330.72 C 219.99 336.89, 218.93 340.04, 217.06 344.82 C 215.20 349.60, 213.96 351.61, 212.97 354.62 C 211.99 357.63, 212.01 358.43, 212.12 359.86 C 212.23 361.30, 212.66 361.54, 213.52 361.82 C 214.39 362.09, 215.15 361.89, 216.44 361.25 C 217.73 360.61, 219.89 359.75, 219.97 358.63 C 220.05 357.52, 218.83 356.03, 216.84 355.67 C 214.85 355.32, 211.81 356.02, 210.02 356.84 C 208.23 357.66, 207.62 358.91, 207.89 359.77 C 208.16 360.63, 210.08 360.65, 211.35 361.15 C 212.62 361.65, 213.20 362.26, 214.23 362.28 C 215.26 362.31, 215.56 362.42, 216.50 361.28 C 217.44 360.14, 217.94 359.58, 218.94 356.59 C 219.93 353.59, 220.07 351.22, 221.47 346.31 C 222.88 341.39, 223.85 338.24, 225.96 332.02 C 228.07 325.81, 229.46 322.15, 232.01 315.22 C 234.56 308.28, 236.05 304.41, 238.70 297.35 C 241.34 290.30, 242.79 286.59, 245.24 279.95 C 247.68 273.30, 248.98 269.91, 250.92 264.11 C 252.86 258.30, 253.66 255.39, 254.94 250.91 C 256.22 246.43, 257.19 244.62, 257.31 241.72 C 257.42 238.82, 256.58 237.50, 255.53 236.39 C 254.47 235.28, 253.22 235.32, 252.04 236.17" style="stroke: black; fill: black;"/><path d="M 231.98,241.23 C 233.23 241.42, 233.73 240.76, 235.17 240.10 C 236.61 239.44, 237.15 239.17, 239.18 237.95 C 241.21 236.72, 242.14 235.30, 245.33 233.98 C 248.52 232.67, 250.69 232.09, 255.13 231.38 C 259.57 230.66, 262.31 230.35, 267.53 230.40 C 272.75 230.44, 275.78 230.62, 281.22 231.61 C 286.67 232.60, 289.65 233.32, 294.76 235.34 C 299.88 237.36, 302.59 238.71, 306.79 241.70 C 310.99 244.68, 312.95 246.45, 315.78 250.26 C 318.61 254.07, 319.79 256.22, 320.95 260.74 C 322.11 265.27, 322.41 267.64, 321.58 272.88 C 320.76 278.13, 319.79 281.00, 316.83 286.97 C 313.86 292.93, 311.67 296.34, 306.75 302.72 C 301.82 309.09, 298.67 312.50, 292.21 318.85 C 285.74 325.21, 281.76 328.59, 274.40 334.49 C 267.05 340.39, 262.85 343.44, 255.42 348.37 C 248.00 353.30, 244.07 355.67, 237.27 359.15 C 230.48 362.63, 226.93 363.99, 221.47 365.76 C 216.00 367.52, 213.38 367.75, 209.97 367.98 C 206.55 368.20, 205.59 367.67, 204.37 366.86 C 203.15 366.06, 203.52 365.74, 203.86 363.95 C 204.20 362.16, 204.44 360.87, 206.08 357.91 C 207.71 354.94, 208.85 352.74, 212.04 349.14 C 215.22 345.55, 217.46 343.43, 222.01 339.92 C 226.56 336.41, 229.31 334.60, 234.79 331.59 C 240.26 328.59, 243.35 327.30, 249.40 324.89 C 255.45 322.48, 258.74 321.48, 265.05 319.52 C 271.36 317.56, 274.64 316.72, 280.96 315.09 C 287.28 313.46, 290.51 312.82, 296.64 311.37 C 302.77 309.92, 305.84 309.34, 311.60 307.84 C 317.37 306.34, 320.25 305.56, 325.48 303.87 C 330.71 302.18, 333.27 301.28, 337.75 299.40 C 342.23 297.53, 344.30 296.53, 347.89 294.50 C 351.48 292.47, 353.31 291.55, 355.72 289.25 C 358.12 286.95, 359.11 285.56, 359.91 283.00 C 360.72 280.43, 360.68 278.72, 359.73 276.43 C 358.79 274.14, 357.66 272.73, 355.17 271.54 C 352.68 270.34, 350.63 269.78, 347.27 270.45 C 343.92 271.13, 342.07 272.52, 338.38 274.92 C 334.70 277.31, 332.62 278.99, 328.84 282.41 C 325.07 285.83, 322.92 287.97, 319.53 292.01 C 316.14 296.05, 314.37 298.39, 311.88 302.59 C 309.39 306.80, 308.19 309.01, 307.07 313.02 C 305.96 317.04, 305.51 319.23, 306.29 322.68 C 307.08 326.12, 308.28 328.10, 311.00 330.26 C 313.72 332.42, 315.83 333.10, 319.88 333.50 C 323.94 333.90, 326.36 333.42, 331.27 332.26 C 336.19 331.10, 338.91 330.05, 344.45 327.71 C 349.98 325.36, 353.09 323.75, 358.96 320.53 C 364.83 317.32, 368.04 315.34, 373.78 311.64 C 379.52 307.93, 382.44 305.73, 387.65 302.02 C 392.86 298.30, 395.46 296.23, 399.83 293.07 C 404.20 289.91, 406.31 288.43, 409.51 286.21 C 412.71 283.99, 414.19 283.34, 415.85 281.98 C 417.50 280.63, 417.64 279.94, 417.80 279.45 C 417.96 278.96, 417.29 278.94, 416.63 279.53 C 415.97 280.12, 415.11 280.77, 414.51 282.42 C 413.90 284.07, 413.74 285.33, 413.60 287.79 C 413.46 290.25, 413.80 291.83, 413.81 294.72 C 413.82 297.62, 413.89 299.26, 413.66 302.28 C 413.44 305.29, 413.27 306.96, 412.69 309.80 C 412.10 312.64, 411.77 314.04, 410.74 316.48 C 409.71 318.93, 409.05 320.02, 407.53 322.02 C 406.00 324.03, 405.14 324.93, 403.13 326.51 C 401.13 328.08, 399.89 328.77, 397.50 329.88 C 395.12 331.00, 393.63 331.42, 391.20 332.06 C 388.76 332.71, 387.43 332.87, 385.31 333.12 C 383.20 333.36, 382.09 333.27, 380.62 333.31 C 379.16 333.35, 378.64 333.21, 378.00 333.30 C 377.37 333.40, 377.21 333.61, 377.44 333.77 C 377.68 333.93, 377.89 334.30, 379.16 334.10 C 380.44 333.90, 381.42 333.81, 383.80 332.76 C 386.18 331.71, 387.58 330.37, 391.07 328.84 C 394.55 327.32, 396.79 326.62, 401.20 325.12 C 405.62 323.62, 408.16 322.88, 413.15 321.33 C 418.15 319.78, 420.89 319.05, 426.19 317.39 C 431.49 315.73, 434.38 314.90, 439.65 313.04 C 444.91 311.18, 447.65 310.13, 452.51 308.07 C 457.38 306.02, 459.77 304.93, 463.96 302.74 C 468.15 300.55, 470.16 299.44, 473.47 297.14 C 476.78 294.85, 478.55 293.84, 480.51 291.27 C 482.47 288.71, 482.98 287.02, 483.27 284.33 C 483.56 281.64, 483.27 280.00, 481.95 277.80 C 480.64 275.60, 479.34 274.38, 476.68 273.32 C 474.01 272.26, 471.97 271.79, 468.62 272.50 C 465.28 273.20, 463.43 274.57, 459.95 276.83 C 456.48 279.10, 454.60 280.67, 451.26 283.82 C 447.92 286.97, 446.09 288.87, 443.25 292.57 C 440.40 296.27, 438.90 298.38, 437.02 302.31 C 435.13 306.23, 434.26 308.37, 433.83 312.18 C 433.39 315.98, 433.43 318.11, 434.86 321.33 C 436.29 324.56, 437.85 326.35, 440.98 328.32 C 444.11 330.28, 446.29 330.76, 450.49 331.16 C 454.69 331.55, 457.11 331.20, 461.99 330.30 C 466.86 329.39, 469.57 328.53, 474.86 326.65 C 480.15 324.76, 483.03 323.46, 488.45 320.89 C 493.87 318.31, 496.81 316.64, 501.96 313.77 C 507.11 310.91, 509.74 309.22, 514.19 306.57 C 518.64 303.92, 521.18 302.63, 524.21 300.52 C 527.24 298.41, 528.50 297.42, 529.34 296.02 C 530.19 294.62, 529.57 293.74, 528.44 293.52 C 527.31 293.30, 525.64 293.44, 523.69 294.90 C 521.73 296.36, 520.69 298.15, 518.67 300.81 C 516.65 303.48, 515.55 305.46, 513.57 308.22 C 511.59 310.97, 509.91 312.22, 508.76 314.58 C 507.62 316.94, 507.49 318.29, 507.85 320.02 C 508.21 321.74, 509.02 322.56, 510.56 323.20 C 512.10 323.83, 513.47 324.00, 515.55 323.18 C 517.63 322.37, 518.88 321.38, 520.96 319.12 C 523.03 316.85, 523.76 314.76, 525.93 311.88 C 528.10 308.99, 529.37 307.46, 531.82 304.68 C 534.27 301.90, 535.70 300.50, 538.19 298.00 C 540.67 295.49, 541.93 294.26, 544.25 292.15 C 546.57 290.05, 547.60 289.22, 549.78 287.47 C 551.97 285.71, 552.99 284.97, 555.16 283.37 C 557.34 281.76, 558.35 281.03, 560.65 279.45 C 562.96 277.86, 564.07 277.19, 566.67 275.44 C 569.28 273.68, 570.66 272.74, 573.70 270.67 C 576.74 268.61, 578.41 267.52, 581.87 265.10 C 585.33 262.67, 587.22 261.34, 591.02 258.54 C 594.82 255.74, 596.85 254.21, 600.88 251.11 C 604.90 248.00, 607.07 246.30, 611.13 243.04 C 615.19 239.77, 617.28 238.02, 621.17 234.79 C 625.05 231.55, 627.01 229.80, 630.56 226.87 C 634.11 223.94, 635.99 222.53, 638.92 220.16 C 641.84 217.78, 643.77 216.84, 645.18 214.99 C 646.59 213.14, 646.50 211.75, 645.98 210.92 C 645.46 210.09, 644.14 209.53, 642.60 210.84 C 641.05 212.15, 640.46 213.73, 638.25 217.47 C 636.04 221.20, 634.70 224.11, 631.56 229.51 C 628.41 234.91, 626.34 238.21, 622.52 244.47 C 618.70 250.72, 616.43 254.22, 612.46 260.78 C 608.48 267.35, 606.36 270.98, 602.62 277.29 C 598.89 283.59, 596.99 286.87, 593.77 292.30 C 590.55 297.72, 589.03 300.36, 586.51 304.40 C 583.98 308.44, 582.51 309.94, 581.14 312.50 C 579.77 315.06, 579.81 315.90, 579.66 317.22 C 579.51 318.54, 579.78 318.71, 580.41 319.10 C 581.04 319.49, 582.22 319.37, 582.81 319.15 C 583.39 318.94, 584.21 318.35, 583.35 318.03 C 582.48 317.72, 579.38 317.40, 578.47 317.57 C 577.55 317.75, 578.23 318.39, 578.77 318.92 C 579.32 319.46, 580.20 320.11, 581.19 320.25 C 582.19 320.38, 582.60 320.52, 583.75 319.60 C 584.91 318.68, 585.57 318.22, 586.97 315.64 C 588.37 313.07, 588.70 311.01, 590.75 306.73 C 592.80 302.46, 594.22 299.78, 597.22 294.26 C 600.22 288.74, 602.08 285.43, 605.74 279.12 C 609.41 272.80, 611.51 269.17, 615.55 262.68 C 619.59 256.19, 621.86 252.73, 625.93 246.66 C 630.00 240.58, 632.27 237.42, 635.91 232.32 C 639.54 227.22, 641.61 224.85, 644.09 221.16 C 646.58 217.46, 647.93 216.25, 648.33 213.85 C 648.73 211.45, 647.65 210.06, 646.09 209.16 C 644.54 208.27, 642.87 208.16, 640.56 209.38 C 638.25 210.59, 637.27 212.57, 634.54 215.24 C 631.80 217.91, 630.25 219.59, 626.91 222.71 C 623.57 225.83, 621.63 227.58, 617.83 230.84 C 614.04 234.10, 611.96 235.83, 607.93 239.03 C 603.90 242.23, 601.72 243.88, 597.67 246.84 C 593.63 249.80, 591.57 251.24, 587.70 253.81 C 583.84 256.39, 581.92 257.56, 578.36 259.71 C 574.80 261.86, 573.07 262.77, 569.90 264.56 C 566.73 266.35, 565.29 267.10, 562.50 268.67 C 559.72 270.24, 558.47 270.80, 555.98 272.40 C 553.48 274.00, 552.33 274.86, 550.05 276.66 C 547.76 278.45, 546.77 279.37, 544.56 281.37 C 542.36 283.37, 541.34 284.36, 539.02 286.66 C 536.71 288.96, 535.52 290.29, 532.99 292.87 C 530.46 295.45, 529.06 296.91, 526.39 299.55 C 523.72 302.19, 522.34 303.71, 519.65 306.09 C 516.97 308.47, 515.05 309.36, 512.96 311.45 C 510.87 313.54, 509.93 314.65, 509.19 316.52 C 508.46 318.39, 508.73 319.63, 509.28 320.79 C 509.84 321.95, 510.56 322.45, 511.96 322.31 C 513.36 322.16, 514.48 321.74, 516.28 320.06 C 518.08 318.37, 518.87 316.48, 520.98 313.87 C 523.09 311.26, 524.77 309.75, 526.84 307.00 C 528.92 304.25, 530.53 302.74, 531.36 300.13 C 532.18 297.52, 531.84 295.61, 530.95 293.94 C 530.06 292.27, 528.99 291.50, 526.91 291.76 C 524.84 292.02, 523.67 293.14, 520.58 295.25 C 517.48 297.36, 515.62 299.41, 511.45 302.31 C 507.27 305.20, 504.68 306.88, 499.68 309.74 C 494.69 312.61, 491.76 314.22, 486.47 316.63 C 481.18 319.04, 478.32 320.21, 473.24 321.78 C 468.16 323.35, 465.48 323.95, 461.09 324.48 C 456.70 325.00, 454.52 324.89, 451.28 324.41 C 448.04 323.93, 446.84 323.28, 444.88 322.07 C 442.92 320.85, 442.33 320.18, 441.48 318.35 C 440.64 316.52, 440.39 315.58, 440.66 312.92 C 440.93 310.25, 441.32 308.33, 442.83 305.04 C 444.33 301.74, 445.62 299.68, 448.20 296.45 C 450.78 293.21, 452.58 291.42, 455.71 288.85 C 458.83 286.28, 460.83 285.03, 463.82 283.60 C 466.82 282.17, 468.49 282.23, 470.69 281.69 C 472.89 281.15, 473.59 280.99, 474.81 280.89 C 476.03 280.79, 476.38 280.74, 476.79 281.18 C 477.20 281.62, 477.31 281.99, 476.86 283.08 C 476.41 284.17, 475.97 284.82, 474.53 286.65 C 473.09 288.47, 472.31 289.93, 469.68 292.21 C 467.04 294.49, 465.18 295.78, 461.36 298.06 C 457.53 300.33, 455.21 301.47, 450.55 303.57 C 445.89 305.67, 443.21 306.71, 438.06 308.54 C 432.90 310.37, 430.04 311.18, 424.77 312.72 C 419.51 314.26, 416.76 314.94, 411.71 316.24 C 406.67 317.54, 404.13 318.16, 399.53 319.22 C 394.93 320.27, 392.67 320.67, 388.72 321.52 C 384.77 322.36, 382.68 322.23, 379.78 323.46 C 376.88 324.69, 375.73 325.75, 374.23 327.68 C 372.73 329.61, 372.28 330.98, 372.26 333.11 C 372.24 335.25, 372.75 336.71, 374.13 338.35 C 375.52 339.99, 376.81 340.59, 379.17 341.32 C 381.53 342.05, 383.06 342.11, 385.95 342.00 C 388.84 341.89, 390.53 341.65, 393.60 340.77 C 396.68 339.89, 398.37 339.15, 401.33 337.61 C 404.30 336.07, 405.85 335.18, 408.42 333.07 C 410.99 330.95, 412.20 329.68, 414.18 327.02 C 416.17 324.35, 417.02 322.80, 418.34 319.72 C 419.66 316.65, 420.01 314.90, 420.80 311.63 C 421.59 308.36, 421.75 306.59, 422.30 303.36 C 422.86 300.13, 423.12 298.50, 423.59 295.48 C 424.06 292.47, 424.59 290.91, 424.67 288.27 C 424.75 285.62, 424.65 284.34, 423.98 282.27 C 423.32 280.20, 422.67 279.23, 421.35 277.91 C 420.03 276.58, 419.20 275.91, 417.39 275.64 C 415.57 275.36, 414.55 275.31, 412.28 276.52 C 410.01 277.74, 409.10 279.11, 406.05 281.70 C 403.00 284.28, 401.19 286.03, 397.03 289.43 C 392.87 292.83, 390.32 294.92, 385.24 298.69 C 380.15 302.45, 377.26 304.63, 371.61 308.25 C 365.95 311.86, 362.74 313.77, 356.95 316.76 C 351.16 319.74, 348.02 321.21, 342.65 323.16 C 337.29 325.12, 334.53 325.82, 330.13 326.53 C 325.72 327.24, 323.58 327.06, 320.61 326.71 C 317.63 326.36, 316.75 325.88, 315.24 324.78 C 313.73 323.67, 313.49 323.21, 313.06 321.17 C 312.63 319.14, 312.34 317.73, 313.08 314.59 C 313.83 311.44, 314.64 309.22, 316.78 305.43 C 318.92 301.65, 320.58 299.33, 323.79 295.65 C 326.99 291.98, 329.16 289.94, 332.80 287.08 C 336.44 284.22, 338.68 282.86, 341.98 281.34 C 345.28 279.82, 347.05 280.06, 349.30 279.48 C 351.54 278.90, 352.16 278.63, 353.20 278.44 C 354.25 278.25, 354.39 278.15, 354.52 278.53 C 354.64 278.91, 354.62 279.26, 353.83 280.35 C 353.04 281.43, 352.40 282.14, 350.57 283.97 C 348.74 285.79, 347.67 287.31, 344.68 289.47 C 341.70 291.63, 339.79 292.75, 335.66 294.77 C 331.52 296.79, 329.05 297.76, 324.02 299.57 C 318.99 301.37, 316.17 302.20, 310.51 303.79 C 304.85 305.37, 301.81 305.98, 295.70 307.49 C 289.60 309.00, 286.34 309.66, 279.98 311.32 C 273.62 312.99, 270.31 313.84, 263.90 315.82 C 257.49 317.79, 254.17 318.78, 247.95 321.18 C 241.72 323.59, 238.54 324.86, 232.78 327.83 C 227.03 330.80, 224.14 332.56, 219.16 336.03 C 214.17 339.49, 211.67 341.44, 207.86 345.15 C 204.06 348.87, 202.21 350.86, 200.13 354.61 C 198.05 358.35, 197.17 360.56, 197.44 363.86 C 197.71 367.16, 198.89 369.28, 201.47 371.09 C 204.04 372.90, 206.07 373.24, 210.33 372.90 C 214.58 372.56, 217.06 371.57, 222.75 369.39 C 228.44 367.20, 231.91 365.70, 238.77 361.98 C 245.63 358.27, 249.56 355.85, 257.05 350.80 C 264.53 345.75, 268.75 342.69, 276.20 336.73 C 283.66 330.78, 287.68 327.41, 294.32 321.03 C 300.96 314.64, 304.22 311.27, 309.40 304.81 C 314.59 298.34, 316.96 294.96, 320.24 288.72 C 323.53 282.47, 324.79 279.41, 325.82 273.60 C 326.86 267.78, 326.68 264.86, 325.42 259.63 C 324.17 254.41, 322.74 251.82, 319.54 247.48 C 316.35 243.14, 314.07 241.22, 309.46 237.94 C 304.84 234.66, 301.93 233.28, 296.46 231.07 C 291.00 228.87, 287.88 228.12, 282.13 226.94 C 276.38 225.76, 273.24 225.51, 267.71 225.19 C 262.18 224.86, 259.40 225.03, 254.49 225.31 C 249.58 225.59, 247.24 225.77, 243.16 226.59 C 239.08 227.42, 236.81 227.80, 234.08 229.43 C 231.35 231.06, 230.54 232.79, 229.51 234.74 C 228.48 236.69, 228.45 237.89, 228.94 239.19 C 229.44 240.49, 230.73 241.05, 231.98 241.23" style="stroke: black; fill: black;"/><path d="M 578.75,304.05 C 578.92 305.28, 579.35 306.03, 580.86 307.10 C 582.37 308.16, 583.52 309.06, 586.32 309.37 C 589.11 309.68, 591.07 309.14, 594.85 308.64 C 598.62 308.13, 600.84 307.67, 605.19 306.84 C 609.54 306.01, 612.00 305.43, 616.61 304.48 C 621.22 303.54, 623.73 303.00, 628.24 302.10 C 632.76 301.19, 635.15 300.72, 639.19 299.97 C 643.23 299.22, 645.51 299.17, 648.46 298.33 C 651.42 297.50, 652.34 296.79, 653.96 295.78 C 655.58 294.78, 656.16 294.24, 656.55 293.30 C 656.93 292.37, 656.68 291.67, 655.87 291.10 C 655.05 290.53, 654.33 290.50, 652.47 290.46 C 650.62 290.43, 649.52 290.26, 646.58 290.92 C 643.63 291.58, 641.66 292.68, 637.76 293.77 C 633.85 294.86, 631.50 295.40, 627.05 296.36 C 622.60 297.32, 620.07 297.82, 615.52 298.57 C 610.96 299.32, 608.49 299.79, 604.29 300.11 C 600.09 300.42, 597.96 300.37, 594.52 300.14 C 591.08 299.91, 589.48 299.03, 587.08 298.96 C 584.68 298.89, 583.93 299.39, 582.52 299.79 C 581.11 300.18, 580.77 300.10, 580.02 300.95 C 579.27 301.80, 578.59 302.82, 578.75 304.05" style="stroke: black; fill: black;"/><path d="M 788.86,233.30 C 787.67 233.74, 787.05 234.17, 786.09 236.21 C 785.13 238.24, 785.12 239.63, 784.07 243.48 C 783.03 247.33, 782.66 250.08, 780.86 255.44 C 779.06 260.79, 777.71 264.07, 775.09 270.25 C 772.46 276.43, 770.81 279.98, 767.74 286.32 C 764.67 292.66, 762.85 296.05, 759.72 301.96 C 756.59 307.88, 754.91 311.02, 752.09 315.90 C 749.27 320.78, 747.71 322.98, 745.62 326.35 C 743.53 329.73, 742.32 330.90, 741.65 332.77 C 740.98 334.64, 741.52 335.46, 742.27 335.70 C 743.03 335.93, 744.42 335.75, 745.41 333.96 C 746.39 332.18, 746.36 330.55, 747.19 326.76 C 748.02 322.96, 748.16 320.23, 749.55 314.98 C 750.95 309.72, 751.93 306.54, 754.15 300.48 C 756.38 294.42, 757.74 291.06, 760.69 284.68 C 763.64 278.30, 765.34 274.88, 768.90 268.59 C 772.47 262.29, 774.48 259.02, 778.51 253.22 C 782.54 247.41, 784.75 244.50, 789.05 239.57 C 793.36 234.64, 795.68 232.28, 800.05 228.57 C 804.42 224.85, 806.68 223.28, 810.90 221.01 C 815.12 218.74, 817.25 218.02, 821.15 217.21 C 825.06 216.40, 826.93 216.42, 830.43 216.96 C 833.93 217.51, 835.60 218.17, 838.66 219.95 C 841.71 221.73, 843.22 222.99, 845.71 225.88 C 848.21 228.76, 849.47 230.57, 851.13 234.38 C 852.79 238.19, 853.52 240.38, 854.02 244.94 C 854.51 249.50, 854.57 252.06, 853.62 257.19 C 852.68 262.32, 851.84 265.10, 849.29 270.59 C 846.73 276.08, 844.95 279.04, 840.85 284.63 C 836.75 290.23, 834.15 293.18, 828.79 298.57 C 823.43 303.97, 820.19 306.78, 814.04 311.62 C 807.89 316.47, 804.45 318.85, 798.02 322.81 C 791.60 326.77, 788.09 328.64, 781.92 331.42 C 775.75 334.21, 772.48 335.34, 767.15 336.73 C 761.82 338.12, 759.15 338.36, 755.26 338.37 C 751.36 338.38, 749.78 337.57, 747.67 336.78 C 745.57 335.99, 745.15 335.68, 744.73 334.43 C 744.31 333.17, 744.56 332.66, 745.56 330.49 C 746.57 328.33, 747.01 326.63, 749.74 323.61 C 752.48 320.59, 754.62 318.59, 759.24 315.41 C 763.86 312.23, 766.88 310.57, 772.86 307.71 C 778.83 304.84, 782.32 303.49, 789.13 301.09 C 795.93 298.68, 799.67 297.63, 806.87 295.67 C 814.07 293.71, 817.89 292.81, 825.12 291.29 C 832.35 289.78, 836.11 289.16, 843.03 288.08 C 849.94 286.99, 853.42 286.64, 859.70 285.87 C 865.99 285.10, 869.07 284.73, 874.45 284.22 C 879.83 283.72, 882.39 283.48, 886.59 283.36 C 890.79 283.25, 892.70 283.88, 895.44 283.65 C 898.18 283.42, 899.17 283.02, 900.29 282.21 C 901.41 281.39, 901.48 280.64, 901.06 279.59 C 900.64 278.54, 899.90 277.56, 898.21 276.98 C 896.52 276.39, 895.21 276.08, 892.61 276.67 C 890.02 277.25, 888.46 278.28, 885.24 279.90 C 882.01 281.51, 880.12 282.54, 876.49 284.75 C 872.86 286.96, 870.83 288.18, 867.08 290.93 C 863.34 293.68, 861.20 295.34, 857.75 298.49 C 854.29 301.63, 852.50 303.44, 849.80 306.66 C 847.10 309.87, 845.58 311.41, 844.23 314.56 C 842.89 317.71, 842.63 319.60, 843.10 322.40 C 843.56 325.21, 844.42 326.79, 846.55 328.58 C 848.69 330.38, 850.57 331.35, 853.78 331.37 C 856.99 331.40, 858.90 330.40, 862.62 328.68 C 866.34 326.96, 868.31 325.50, 872.38 322.77 C 876.45 320.04, 878.76 318.31, 882.96 315.03 C 887.15 311.75, 889.47 309.69, 893.38 306.37 C 897.28 303.05, 899.91 301.23, 902.49 298.43 C 905.08 295.62, 906.07 294.09, 906.30 292.35 C 906.52 290.61, 905.34 289.70, 903.61 289.74 C 901.88 289.79, 899.87 290.35, 897.65 292.58 C 895.42 294.80, 894.21 297.32, 892.48 300.87 C 890.75 304.42, 889.76 306.73, 889.00 310.31 C 888.24 313.89, 887.95 315.77, 888.67 318.75 C 889.40 321.73, 890.27 323.37, 892.63 325.22 C 894.98 327.08, 896.93 328.01, 900.45 328.04 C 903.96 328.06, 906.00 327.00, 910.21 325.35 C 914.42 323.69, 916.75 322.37, 921.50 319.75 C 926.25 317.12, 928.98 315.39, 933.96 312.23 C 938.94 309.07, 941.64 307.07, 946.40 303.93 C 951.15 300.78, 953.64 298.98, 957.74 296.50 C 961.85 294.02, 964.00 293.08, 966.93 291.53 C 969.85 289.97, 970.99 289.48, 972.36 288.74 C 973.74 288.01, 973.74 287.70, 973.81 287.85 C 973.88 288.00, 973.27 288.35, 972.72 289.49 C 972.16 290.63, 971.61 291.51, 971.04 293.55 C 970.47 295.58, 970.32 297.03, 969.85 299.66 C 969.38 302.29, 969.35 303.97, 968.70 306.70 C 968.05 309.44, 967.53 310.84, 966.59 313.33 C 965.65 315.82, 965.14 317.09, 964.00 319.16 C 962.86 321.22, 962.27 322.13, 960.88 323.66 C 959.50 325.19, 958.65 325.76, 957.08 326.80 C 955.52 327.84, 954.55 328.22, 953.06 328.85 C 951.56 329.48, 950.75 329.69, 949.63 329.95 C 948.50 330.22, 948.04 330.14, 947.41 330.17 C 946.78 330.19, 946.62 330.15, 946.49 330.08 C 946.35 330.00, 946.42 330.11, 946.73 329.80 C 947.05 329.49, 947.10 329.34, 948.07 328.53 C 949.04 327.72, 949.79 327.37, 951.57 325.74 C 953.35 324.10, 954.19 322.67, 956.96 320.37 C 959.74 318.08, 961.54 316.82, 965.44 314.24 C 969.35 311.66, 971.71 310.37, 976.49 307.46 C 981.28 304.56, 983.98 302.99, 989.37 299.71 C 994.77 296.42, 997.79 294.71, 1003.45 291.05 C 1009.12 287.39, 1012.11 285.43, 1017.69 281.41 C 1023.28 277.40, 1026.13 275.22, 1031.38 270.98 C 1036.63 266.74, 1039.34 264.49, 1043.94 260.23 C 1048.55 255.98, 1050.71 253.73, 1054.42 249.69 C 1058.12 245.66, 1059.79 243.64, 1062.46 240.06 C 1065.12 236.48, 1066.62 234.91, 1067.74 231.79 C 1068.86 228.67, 1068.77 226.96, 1068.08 224.47 C 1067.38 221.99, 1066.42 220.67, 1064.26 219.35 C 1062.09 218.02, 1060.21 217.36, 1057.25 217.85 C 1054.29 218.35, 1052.70 219.47, 1049.45 221.83 C 1046.19 224.18, 1044.56 225.91, 1040.97 229.62 C 1037.39 233.33, 1035.30 235.60, 1031.54 240.37 C 1027.77 245.13, 1025.70 247.96, 1022.13 253.44 C 1018.55 258.92, 1016.77 262.03, 1013.66 267.77 C 1010.55 273.52, 1009.05 276.64, 1006.59 282.15 C 1004.13 287.66, 1003.08 290.45, 1001.38 295.34 C 999.68 300.24, 998.97 302.52, 998.10 306.65 C 997.22 310.77, 996.53 312.72, 997.00 315.95 C 997.47 319.18, 998.46 320.68, 1000.46 322.80 C 1002.45 324.93, 1003.95 325.96, 1006.99 326.57 C 1010.02 327.17, 1011.94 326.78, 1015.63 325.82 C 1019.32 324.86, 1021.33 323.58, 1025.43 321.76 C 1029.52 319.94, 1031.92 318.59, 1036.13 316.74 C 1040.34 314.89, 1042.96 313.78, 1046.49 312.53 C 1050.01 311.29, 1051.79 311.07, 1053.74 310.51 C 1055.70 309.94, 1055.93 309.49, 1056.25 309.71 C 1056.58 309.93, 1055.99 310.34, 1055.39 311.60 C 1054.79 312.86, 1053.87 313.83, 1053.25 316.01 C 1052.62 318.19, 1052.22 319.78, 1052.25 322.50 C 1052.27 325.22, 1052.38 326.92, 1053.37 329.62 C 1054.36 332.33, 1055.10 333.89, 1057.18 336.02 C 1059.27 338.15, 1060.65 339.37, 1063.81 340.29 C 1066.97 341.20, 1069.04 340.99, 1072.98 340.57 C 1076.92 340.15, 1079.07 339.46, 1083.49 338.19 C 1087.91 336.91, 1090.37 335.96, 1095.09 334.22 C 1099.80 332.47, 1102.80 331.29, 1107.07 329.46 C 1111.34 327.64, 1113.57 326.82, 1116.44 325.08 C 1119.30 323.34, 1120.68 322.16, 1121.41 320.78 C 1122.15 319.40, 1121.63 318.41, 1120.10 318.17 C 1118.57 317.92, 1116.87 318.43, 1113.78 319.55 C 1110.69 320.68, 1108.78 322.01, 1104.63 323.82 C 1100.49 325.62, 1097.60 326.99, 1093.05 328.60 C 1088.51 330.20, 1086.03 330.99, 1081.91 331.85 C 1077.80 332.70, 1075.67 332.85, 1072.49 332.88 C 1069.31 332.91, 1067.96 332.45, 1066.01 332.00 C 1064.06 331.55, 1063.59 331.53, 1062.74 330.63 C 1061.88 329.73, 1061.82 329.00, 1061.73 327.50 C 1061.65 325.99, 1062.00 325.11, 1062.31 323.11 C 1062.63 321.11, 1063.26 319.88, 1063.30 317.50 C 1063.35 315.11, 1063.36 313.49, 1062.54 311.17 C 1061.73 308.85, 1061.16 307.44, 1059.22 305.90 C 1057.29 304.36, 1055.91 303.42, 1052.89 303.46 C 1049.87 303.50, 1047.99 304.63, 1044.12 306.10 C 1040.25 307.57, 1037.80 308.97, 1033.55 310.82 C 1029.29 312.68, 1026.80 313.89, 1022.82 315.37 C 1018.85 316.84, 1016.68 317.42, 1013.66 318.18 C 1010.65 318.95, 1009.52 319.09, 1007.76 319.19 C 1005.99 319.30, 1005.60 319.52, 1004.82 318.70 C 1004.05 317.87, 1004.11 317.30, 1003.89 315.08 C 1003.67 312.85, 1003.32 311.23, 1003.73 307.57 C 1004.14 303.92, 1004.57 301.53, 1005.93 296.79 C 1007.29 292.05, 1008.25 289.27, 1010.53 283.86 C 1012.80 278.45, 1014.27 275.35, 1017.31 269.75 C 1020.35 264.15, 1022.13 261.09, 1025.72 255.84 C 1029.32 250.59, 1031.42 247.87, 1035.28 243.49 C 1039.14 239.12, 1041.35 237.01, 1045.03 233.98 C 1048.70 230.94, 1050.76 229.93, 1053.65 228.31 C 1056.53 226.69, 1057.76 226.63, 1059.44 225.86 C 1061.11 225.09, 1061.41 224.56, 1062.03 224.45 C 1062.66 224.34, 1062.74 224.34, 1062.58 225.32 C 1062.41 226.30, 1062.16 227.00, 1061.23 229.34 C 1060.30 231.69, 1059.98 233.57, 1057.94 237.04 C 1055.89 240.51, 1054.35 242.65, 1050.99 246.70 C 1047.63 250.75, 1045.55 253.02, 1041.15 257.27 C 1036.74 261.53, 1034.09 263.78, 1028.95 267.98 C 1023.81 272.18, 1020.98 274.35, 1015.45 278.29 C 1009.92 282.22, 1006.96 284.13, 1001.30 287.66 C 995.64 291.19, 992.61 292.85, 987.16 295.94 C 981.70 299.03, 978.98 300.50, 974.03 303.12 C 969.08 305.74, 966.67 306.86, 962.41 309.03 C 958.15 311.19, 956.17 312.14, 952.72 313.96 C 949.26 315.78, 947.52 316.24, 945.13 318.12 C 942.75 320.01, 941.95 321.22, 940.80 323.39 C 939.66 325.57, 939.35 326.86, 939.40 329.01 C 939.45 331.15, 939.90 332.47, 941.06 334.13 C 942.21 335.79, 943.31 336.51, 945.19 337.31 C 947.07 338.11, 948.25 338.21, 950.45 338.14 C 952.65 338.07, 953.90 337.79, 956.19 336.96 C 958.49 336.12, 959.72 335.47, 961.91 333.97 C 964.11 332.47, 965.25 331.54, 967.19 329.46 C 969.12 327.38, 970.04 326.13, 971.59 323.58 C 973.14 321.03, 973.72 319.55, 974.94 316.70 C 976.15 313.86, 976.62 312.34, 977.66 309.36 C 978.70 306.39, 979.43 304.77, 980.14 301.83 C 980.85 298.90, 981.23 297.35, 981.19 294.69 C 981.14 292.02, 980.91 290.62, 979.91 288.52 C 978.92 286.42, 978.06 285.29, 976.22 284.18 C 974.39 283.08, 973.22 282.64, 970.74 282.99 C 968.27 283.34, 967.00 284.11, 963.83 285.94 C 960.66 287.76, 958.91 289.31, 954.89 292.11 C 950.87 294.91, 948.43 296.74, 943.72 299.93 C 939.02 303.11, 936.32 305.06, 931.37 308.03 C 926.42 311.00, 923.62 312.59, 918.96 314.76 C 914.29 316.94, 911.80 317.87, 908.04 318.90 C 904.28 319.93, 902.54 319.69, 900.16 319.93 C 897.77 320.16, 897.06 320.46, 896.13 320.08 C 895.21 319.70, 895.26 319.43, 895.51 318.01 C 895.76 316.59, 896.22 315.47, 897.39 312.98 C 898.56 310.49, 899.63 308.56, 901.36 305.57 C 903.09 302.59, 905.00 300.83, 906.03 298.04 C 907.07 295.26, 907.12 293.39, 906.55 291.65 C 905.97 289.92, 904.98 288.99, 903.18 289.37 C 901.38 289.74, 900.26 290.98, 897.55 293.54 C 894.83 296.10, 893.19 298.75, 889.60 302.16 C 886.01 305.58, 883.69 307.56, 879.59 310.61 C 875.49 313.66, 873.07 315.21, 869.10 317.41 C 865.12 319.61, 862.90 320.50, 859.71 321.62 C 856.53 322.73, 855.11 322.61, 853.17 323.01 C 851.22 323.41, 850.74 323.81, 849.99 323.61 C 849.24 323.41, 849.19 323.21, 849.41 322.02 C 849.63 320.83, 849.99 319.92, 851.09 317.65 C 852.19 315.39, 852.75 313.63, 854.91 310.70 C 857.07 307.77, 858.73 305.92, 861.88 303.00 C 865.04 300.07, 867.11 298.47, 870.69 296.07 C 874.27 293.67, 876.27 292.57, 879.79 290.99 C 883.31 289.42, 885.20 288.93, 888.30 288.21 C 891.41 287.49, 892.96 288.06, 895.33 287.40 C 897.69 286.73, 898.76 286.19, 900.12 284.87 C 901.49 283.54, 902.06 282.26, 902.13 280.77 C 902.20 279.28, 901.90 278.34, 900.47 277.43 C 899.04 276.53, 897.88 276.13, 895.00 276.23 C 892.11 276.33, 890.27 277.23, 886.05 277.95 C 881.84 278.67, 879.29 279.01, 873.91 279.82 C 868.54 280.64, 865.47 281.08, 859.18 282.02 C 852.88 282.96, 849.40 283.35, 842.45 284.52 C 835.49 285.70, 831.70 286.33, 824.40 287.88 C 817.10 289.43, 813.26 290.34, 805.96 292.27 C 798.66 294.20, 794.88 295.23, 787.91 297.55 C 780.94 299.87, 777.39 301.15, 771.11 303.88 C 764.83 306.60, 761.68 308.09, 756.52 311.17 C 751.37 314.25, 748.86 315.93, 745.34 319.27 C 741.81 322.61, 740.11 324.39, 738.89 327.87 C 737.68 331.34, 737.98 333.69, 739.26 336.64 C 740.55 339.60, 742.08 341.28, 745.32 342.64 C 748.57 344.00, 750.90 343.83, 755.49 343.45 C 760.09 343.07, 762.71 342.48, 768.30 340.74 C 773.89 338.99, 777.15 337.73, 783.45 334.73 C 789.76 331.72, 793.28 329.79, 799.82 325.70 C 806.35 321.61, 809.83 319.20, 816.12 314.28 C 822.41 309.35, 825.71 306.54, 831.27 301.07 C 836.82 295.59, 839.54 292.64, 843.90 286.91 C 848.26 281.18, 850.22 278.18, 853.09 272.42 C 855.95 266.66, 857.00 263.71, 858.23 258.12 C 859.45 252.53, 859.58 249.66, 859.20 244.48 C 858.83 239.29, 858.14 236.70, 856.35 232.21 C 854.55 227.72, 853.18 225.51, 850.23 222.02 C 847.28 218.53, 845.42 216.91, 841.61 214.78 C 837.80 212.64, 835.52 211.86, 831.20 211.35 C 826.87 210.83, 824.50 211.06, 819.99 212.19 C 815.48 213.32, 813.18 214.36, 808.66 217.02 C 804.13 219.67, 801.85 221.45, 797.35 225.47 C 792.86 229.49, 790.55 231.96, 786.19 237.10 C 781.82 242.23, 779.62 245.22, 775.53 251.15 C 771.44 257.09, 769.41 260.41, 765.74 266.78 C 762.07 273.15, 760.33 276.60, 757.18 283.01 C 754.04 289.42, 752.62 292.79, 750.02 298.83 C 747.41 304.87, 746.21 308.00, 744.16 313.20 C 742.11 318.40, 740.94 320.89, 739.77 324.84 C 738.59 328.79, 737.92 330.49, 738.30 332.95 C 738.67 335.40, 740.04 336.49, 741.64 337.11 C 743.24 337.73, 744.54 337.64, 746.31 336.04 C 748.07 334.45, 748.52 332.75, 750.46 329.14 C 752.39 325.53, 753.42 323.07, 755.97 318.00 C 758.53 312.93, 760.18 309.78, 763.24 303.79 C 766.30 297.80, 768.11 294.41, 771.28 288.07 C 774.46 281.72, 776.16 278.19, 779.10 272.06 C 782.03 265.94, 783.58 262.71, 785.95 257.44 C 788.33 252.17, 789.50 249.59, 790.97 245.72 C 792.43 241.86, 793.06 240.47, 793.28 238.13 C 793.49 235.78, 792.93 234.96, 792.04 233.99 C 791.16 233.02, 790.05 232.85, 788.86 233.30" style="stroke: black; fill: black;"/></svg>