<?xml version="1.0" encoding="UTF-8" standalone="no"?>
<!-- Created with Inkscape (http://www.inkscape.org/) -->

<svg
   width="74.619141"
   height="74.619141"
   id="svg2"
   version="1.1"
   inkscape:version="0.48.4 r9939"
   sodipodi:docname="ui_kit .svg"
   xml:space="preserve"
   xmlns:inkscape="http://www.inkscape.org/namespaces/inkscape"
   xmlns:sodipodi="http://sodipodi.sourceforge.net/DTD/sodipodi-0.dtd"
   xmlns:xlink="http://www.w3.org/1999/xlink"
   xmlns="http://www.w3.org/2000/svg"
   xmlns:svg="http://www.w3.org/2000/svg"
   xmlns:rdf="http://www.w3.org/1999/02/22-rdf-syntax-ns#"
   xmlns:cc="http://creativecommons.org/ns#"
   xmlns:dc="http://purl.org/dc/elements/1.1/"><defs
     id="defs4"><linearGradient
       id="linearGradient9027-7"><stop
         id="stop9029-5"
         offset="0"
         style="stop-color:#2ad4ff;stop-opacity:1" /><stop
         id="stop9031-0"
         offset="1"
         style="stop-color:#55ddff;stop-opacity:1" /></linearGradient><linearGradient
       inkscape:collect="always"
       xlink:href="#linearGradient9027-7"
       id="linearGradient4893"
       gradientUnits="userSpaceOnUse"
       gradientTransform="matrix(0.4977852,0,0,0.49182118,259.32454,-254.74486)"
       x1="205.63556"
       y1="522.62042"
       x2="191.5173"
       y2="435.45551" /></defs><sodipodi:namedview
     id="base"
     pagecolor="#81dfeb"
     bordercolor="#666666"
     borderopacity="1.0"
     inkscape:pageopacity="1"
     inkscape:pageshadow="2"
     inkscape:zoom="0.73589864"
     inkscape:cx="535.39982"
     inkscape:cy="1321.5135"
     inkscape:document-units="px"
     inkscape:current-layer="layer1"
     showgrid="false"
     inkscape:window-width="1366"
     inkscape:window-height="705"
     inkscape:window-x="-8"
     inkscape:window-y="-8"
     inkscape:window-maximized="1"
     showguides="true"
     inkscape:guide-bbox="true"
     fit-margin-top="0"
     fit-margin-left="0"
     fit-margin-right="0"
     fit-margin-bottom="0"
     inkscape:showpageshadow="2"
     inkscape:pagecheckerboard="0"
     inkscape:deskcolor="#d1d1d1"
     inkscape:export-bgcolor="#ffffff00" /><metadata
     id="metadata7"><rdf:RDF><cc:Work
         rdf:about=""><dc:format>image/svg+xml</dc:format><dc:type
           rdf:resource="http://purl.org/dc/dcmitype/StillImage" /><dc:title /></cc:Work></rdf:RDF></metadata><g
     inkscape:label="Layer 1"
     inkscape:groupmode="layer"
     id="layer1"
     transform="translate(-1395.6927,-140.89733)"><g
       transform="translate(1068.6685,190.83125)"
       id="g4893"><path
         style="opacity:0.266094;fill:#020202;fill-opacity:1;stroke:none"
         d="m 401.64337,-12.539582 c 0,10.2793351 -3.2225,17.9999602 -9.97419,24.73631 -6.7517,6.736361 -17.0326,12.488452 -27.33535,12.488452 -10.30274,0 -20.2658,-5.117858 -27.0175,-11.854224 -6.7517,-6.7363501 -10.29205,-15.0912029 -10.29205,-25.370538 0,-10.279336 4.17601,-19.268416 10.92772,-26.004771 6.7517,-6.736356 16.07909,-11.219991 26.38183,-11.219991 10.30275,0 20.58365,3.849413 27.33535,10.585763 6.75169,6.73636 9.97419,16.359663 9.97419,26.638999 z"
         id="path4886"
         inkscape:connector-curvature="0"
         sodipodi:nodetypes="sssssssss" /><path
         style="fill:#ffffff;fill-opacity:1;stroke:none"
         d="m 362.98391,-49.923786 c -9.68267,0.16375 -18.80443,4.61977 -25.38931,11.431504 -6.58488,6.81173 -10.63289,15.97918 -10.16805,25.565797 -0.1153,12.08121564 7.14293,23.407702 17.55189,29.454124 9.61132,6.162342 22.34717,7.627178 32.72336,2.46007 11.59421,-5.260597 21.72099,-15.7539995 22.53278,-28.8556202 1.38117,-13.1793468 -3.65912,-27.8572308 -15.84135,-34.6188808 -6.41132,-3.769915 -13.96721,-5.601069 -21.40932,-5.436994 z"
         id="path4887"
         inkscape:connector-curvature="0"
         sodipodi:nodetypes="cscccccc" /><path
         style="fill:#00aad4;fill-opacity:1;stroke:none"
         d="m 361.80803,-44.645342 c -18.36838,0.595731 -33.47895,20.507079 -27.95953,38.0311476 4.37116,16.0196332 24.05605,26.7935004 39.81277,20.0395474 11.24862,-4.4879895 20.79936,-15.2514833 20.29791,-27.761069 0.40315,-11.432716 -5.92489,-23.724159 -17.19641,-27.700389 -4.69645,-1.983918 -9.84675,-2.795942 -14.95474,-2.609237 z"
         id="path4888"
         inkscape:connector-curvature="0" /><path
         style="fill:url(#linearGradient4893);fill-opacity:1;stroke:none"
         d="m 361.53162,-44.868949 c -18.72218,0.551436 -33.83752,21.73929 -26.79756,39.2118016 5.42357,15.2319344 24.99964,24.5941534 39.9422,17.0556144 10.72357,-4.8031274 19.29634,-15.6384388 18.40249,-27.634202 0.0782,-11.536873 -6.98606,-23.451672 -18.58916,-26.742776 -4.15574,-1.460373 -8.55949,-2.055717 -12.95797,-1.890438 z"
         id="path4889"
         inkscape:connector-curvature="0" /><path
         style="opacity:0.656652;fill:#00aad4;fill-opacity:1;stroke:none"
         d="m 361.78046,15.154424 c -9.70344,-0.84071 -18.63032,-5.947315 -23.96531,-13.7093145 -1.5336,-2.23126311 -1.60642,-2.6272066 -0.2493,-1.35537624 1.53893,1.44220654 4.99514,3.66996814 7.53175,4.85471584 5.31769,2.4836817 9.40578,3.3702899 15.58576,3.3801687 6.55294,0.010494 11.29962,-1.1033865 17.05799,-4.0028499 6.40609,-3.2256045 12.25373,-9.1235563 15.25002,-15.3812259 l 0.91801,-1.917246 -0.005,1.238809 c -0.006,1.653939 -0.75807,4.7202318 -1.77561,7.2380402 -2.69359,6.6649853 -8.9723,13.1039039 -16.31412,16.7303858 -4.30265,2.125291 -9.8686,3.284852 -14.0348,2.923893 z"
         id="path4890"
         inkscape:connector-curvature="0" /><path
         transform="matrix(0.52098706,0,0,0.51474506,41.445659,-265.44098)"
         inkscape:connector-curvature="0"
         id="path4891"
         d="m 615.64477,427.83568 c 18.11605,0.15816 35.42103,8.12486 46.45741,21.38762 3.17252,3.8125 3.36592,4.51696 0.66205,2.41147 -3.06608,-2.38755 -9.80298,-5.92441 -14.68101,-7.70749 -10.22619,-3.73802 -17.93703,-4.76565 -29.39739,-3.91777 -12.152,0.89904 -20.78909,3.57445 -31.03881,9.61452 -11.40266,6.71947 -21.37589,18.18419 -26.00913,29.89876 l -1.41954,3.58914 -0.17414,-2.23663 c -0.23289,-2.98612 0.70977,-8.62602 2.22533,-13.31311 4.01193,-12.40734 14.7047,-24.90887 27.78328,-32.48299 7.66468,-4.43879 17.81411,-7.31145 25.59227,-7.24355 z"
         style="opacity:0.901288;fill:#aaeeff;fill-opacity:1;stroke:none" /><path
         style="fill:#d5f6ff;fill-opacity:1;stroke:none"
         d="m 350.2227,-37.305866 c 1.08382,1.144381 -1.8225,2.381488 -4.62671,4.974053 -2.80422,2.592565 -4.44441,5.558835 -5.52823,4.414449 -1.08383,-1.144382 0.31081,-4.173775 3.11502,-6.76634 2.80421,-2.592565 5.95609,-3.766549 7.03992,-2.622162 z"
         id="path4892"
         inkscape:connector-curvature="0"
         sodipodi:nodetypes="sssss" /></g><g
       transform="matrix(0.52098706,0,0,0.51474506,647.8107,106.702)"
       id="g62"><g
         id="g4885"
         transform="matrix(0.69369873,0,0,0.69369873,392.59159,113.21157)"><g
           id="g4894"
           transform="matrix(0.57962517,0,0,0.57962517,716.73729,150.62865)"><path
             style="fill:#ffffff;fill-opacity:1"
             d="m 1426.5473,-178.28047 c 0,-17.54516 0,-17.54516 20.1279,-37.79767 l 20.128,-20.25252 1.3315,-21.60225 c 2.161,-35.05732 14.9457,-52.94563 31.9909,-44.76153 14.8491,7.12962 17.1845,17.82877 18.1242,83.03027 l 0.8493,58.92885 h -25.802 -25.8019 v -23.8382 -23.83821 l -10.2369,10.11736 c -9.3967,9.28688 -10.237,11.24363 -10.237,23.83821 0,13.72084 0,13.72084 -10.237,13.72084 h -10.237 z m 113.0371,-41.3837 c 0.9397,-65.2015 3.2752,-75.90065 18.1242,-83.03027 17.0452,-8.1841 29.8299,9.70421 31.9909,44.76153 l 1.3315,21.60225 20.128,20.25252 c 20.1279,20.25251 20.1279,20.25251 20.1279,37.79767 v 17.54515 h -10.237 c -10.237,0 -10.237,0 -10.237,-13.72084 0,-12.59458 -0.8403,-14.55133 -10.2369,-23.83821 l -10.237,-10.11736 v 23.83821 23.8382 h -25.8019 -25.8019 z"
             id="path4882" /><ellipse
             style="opacity:1;fill:#ffffff;fill-opacity:1;stroke:none;stroke-width:0;stroke-linecap:butt;stroke-linejoin:miter;stroke-dasharray:none;stroke-dashoffset:0;stroke-opacity:1"
             id="path4883"
             cx="1502.6659"
             cy="-130.91275"
             rx="17.438108"
             ry="17.64957" /><path
             sodipodi:type="star"
             style="opacity:1;fill:#ffffff;fill-opacity:1;stroke:none;stroke-width:0;stroke-linecap:butt;stroke-linejoin:miter;stroke-dasharray:none;stroke-dashoffset:0;stroke-opacity:1"
             id="path4884"
             inkscape:flatsided="false"
             sodipodi:sides="3"
             sodipodi:cx="1660.8729"
             sodipodi:cy="1084.5879"
             sodipodi:r1="8.6512127"
             sodipodi:r2="4.3256068"
             sodipodi:arg1="1.5707963"
             sodipodi:arg2="2.6179939"
             inkscape:rounded="0"
             inkscape:randomized="0"
             d="m 1660.8729,1093.2391 -3.7461,-6.4884 -3.746,-6.4884 7.4921,0 7.4922,0 -3.7461,6.4884 z"
             transform="matrix(2.1861559,0,0,2.5899579,-2128.3288,-2922.5285)"
             inkscape:transform-center-x="-6.4627229e-05"
             inkscape:transform-center-y="2.8834328" /><ellipse
             style="opacity:1;fill:#ffffff;fill-opacity:1;stroke:none;stroke-width:0;stroke-linecap:butt;stroke-linejoin:miter;stroke-dasharray:none;stroke-dashoffset:0;stroke-opacity:1"
             id="ellipse4885"
             cx="1556.41"
             cy="-130.91275"
             rx="17.438108"
             ry="17.64957" /><path
             sodipodi:type="star"
             style="opacity:1;fill:#ffffff;fill-opacity:1;stroke:none;stroke-width:0;stroke-linecap:butt;stroke-linejoin:miter;stroke-dasharray:none;stroke-dashoffset:0;stroke-opacity:1"
             id="path4885"
             inkscape:flatsided="false"
             sodipodi:sides="3"
             sodipodi:cx="1660.8729"
             sodipodi:cy="1084.5879"
             sodipodi:r1="8.6512127"
             sodipodi:r2="4.3256068"
             sodipodi:arg1="1.5707963"
             sodipodi:arg2="2.6179939"
             inkscape:rounded="0"
             inkscape:randomized="0"
             d="m 1660.8729,1093.2391 -3.7461,-6.4884 -3.746,-6.4884 7.4921,0 7.4922,0 -3.7461,6.4884 z"
             transform="matrix(2.1861559,0,0,2.5899579,-2074.5845,-2922.5285)"
             inkscape:transform-center-x="-6.4627229e-05"
             inkscape:transform-center-y="2.8834328" /></g></g></g></g></svg>
