<?xml version="1.0" encoding="UTF-8" standalone="no"?>
<!-- Created with Inkscape (http://www.inkscape.org/) -->

<svg
   width="44.055206"
   height="44.660034"
   id="svg2"
   version="1.1"
   inkscape:version="0.48.4 r9939"
   sodipodi:docname="ui_kit .svg"
   xml:space="preserve"
   xmlns:inkscape="http://www.inkscape.org/namespaces/inkscape"
   xmlns:sodipodi="http://sodipodi.sourceforge.net/DTD/sodipodi-0.dtd"
   xmlns="http://www.w3.org/2000/svg"
   xmlns:svg="http://www.w3.org/2000/svg"
   xmlns:rdf="http://www.w3.org/1999/02/22-rdf-syntax-ns#"
   xmlns:cc="http://creativecommons.org/ns#"
   xmlns:dc="http://purl.org/dc/elements/1.1/"><defs
     id="defs4" /><sodipodi:namedview
     id="base"
     pagecolor="#81dfeb"
     bordercolor="#666666"
     borderopacity="1.0"
     inkscape:pageopacity="1"
     inkscape:pageshadow="2"
     inkscape:zoom="0.22392792"
     inkscape:cx="464.51937"
     inkscape:cy="2736.5913"
     inkscape:document-units="px"
     inkscape:current-layer="layer1"
     showgrid="false"
     inkscape:window-width="1366"
     inkscape:window-height="700"
     inkscape:window-x="0"
     inkscape:window-y="0"
     inkscape:window-maximized="1"
     showguides="true"
     inkscape:guide-bbox="true"
     fit-margin-top="0"
     fit-margin-left="0"
     fit-margin-right="0"
     fit-margin-bottom="0"
     inkscape:showpageshadow="2"
     inkscape:pagecheckerboard="0"
     inkscape:deskcolor="#d1d1d1"
     inkscape:export-bgcolor="#ffffff00" /><metadata
     id="metadata7"><rdf:RDF><cc:Work
         rdf:about=""><dc:format>image/svg+xml</dc:format><dc:type
           rdf:resource="http://purl.org/dc/dcmitype/StillImage" /><dc:title /></cc:Work></rdf:RDF></metadata><g
     inkscape:label="Layer 1"
     inkscape:groupmode="layer"
     id="layer1"
     transform="translate(-369.65649,-63.031728)"><g
       id="g8724"
       transform="matrix(0.34422369,0.08724177,-0.08724177,0.34422369,-29.809304,3.77675)"><g
         transform="matrix(0.41805162,-0.0610543,0.0610543,0.41805162,700.36322,45.158061)"
         id="g8714"><path
           style="fill:#ffffff;fill-opacity:1;stroke:none"
           d="m 1230.1562,-243.9375 c -21.6749,3.64253 -34.1129,23.8324 -46.6874,39.84375 -9.2058,8.41651 -12.0824,24.03784 -25.3974,27.22688 -25.4761,3.68777 -54.2863,0.19692 -76.2589,16.14812 -12.2826,11.81264 -9.9199,32.32388 -0.046,44.95366 9.8199,18.644831 25.3065,33.831608 34.39,52.98384 -3.5315,26.582829 -17.2324,53.3469541 -9.25,80.4375 6.7995,15.751694 27.2074,20.171421 42.4376,15.125 C 1170.8976,29.667449 1190.6265,17.043389 1212.5,17 c 23.6459,11.093514 44.3122,32.336375 71.9688,32.6875 16.5107,-1.053698 27.2079,-17.928711 27.625,-33.34375 3.3419,-21.7622688 -0.9613,-44.401333 3.8124,-65.90625 7.0634,-9.267209 17.9123,-15.666476 26.4223,-23.866984 12.4456,-10.844564 25.6769,-23.470011 28.5777,-40.476766 0.5602,-16.38764 -13.6273,-29.06247 -28.214,-33.58898 -18.5351,-8.67633 -39.1685,-12.29188 -57.5047,-21.56727 -12.7339,-23.84971 -17.5054,-53.76022 -40.125,-70.9375 -4.4185,-2.75184 -9.6675,-4.20442 -14.9063,-3.9375 z"
           id="path8718"
           inkscape:connector-curvature="0" /><path
           sodipodi:type="star"
           style="fill:#ffe300;fill-opacity:1;stroke:none"
           id="path8720"
           sodipodi:sides="5"
           sodipodi:cx="1217.9487"
           sodipodi:cy="-88.66346"
           sodipodi:r1="131.99525"
           sodipodi:r2="79.603195"
           sodipodi:arg1="1.0471976"
           sodipodi:arg2="1.6317315"
           inkscape:flatsided="false"
           inkscape:rounded="0.12"
           inkscape:randomized="0"
           d="m 1283.9464,25.647787 c -7.9898,5.092405 -61.4226,-33.8650922 -70.8453,-34.855793 -10.2073,-1.073187 -75.5535,25.162886 -83.4744,18.6361323 -7.3122,-6.0250982 13.227,-68.8811853 11.2574,-78.1488733 -2.1336,-10.039326 -47.2786,-64.079863 -43.519,-73.630023 3.4706,-8.81612 69.5972,-8.70582 77.8027,-13.44287 8.8887,-5.13146 46.3337,-64.76642 56.5782,-64.14199 9.4571,0.57644 29.7865,63.50069 36.8273,69.84073 7.627,6.86791 75.9144,24.05201 78.4863,33.98809 2.3742,9.17238 -51.1882,47.951407 -55.0422,56.606809 -4.1749,9.376059 0.584,79.631385 -8.071,85.147788 z" /><path
           style="fill:#efdd00;fill-opacity:1;stroke:none"
           d="m 1266.9429,18.184887 c -7.6579,-3.992953 -22.8369,-12.1773482 -33.731,-18.1875431 l -19.8075,-10.9276259 -19.9361,5.3042823 c -10.9649,2.9173539 -28.5411,7.6250128 -39.0583,10.4614615 -27.3625,7.3795672 -28.0665,6.3028282 -20.2012,-30.8954668 l 6.1042,-28.869369 35.8404,-0.558446 c 64.9431,-1.011908 113.4857,-17.415341 148.519,-50.18723 14.3264,-13.40169 17.0195,-15.00527 18.541,-11.0403 1.3883,3.61789 -4.2762,10.32534 -25.7397,30.478863 l -27.5197,25.840131 -1.8964,40.273254 c -1.043,22.1502869 -3.0877,41.464548 -4.5438,42.920579 -1.8203,1.820369 -6.9967,0.37951 -16.5709,-4.61259 z"
           id="path8722"
           inkscape:connector-curvature="0" /></g></g></g></svg>
