<?xml version="1.0" encoding="UTF-8" standalone="no"?>
<!-- Created with Inkscape (http://www.inkscape.org/) -->

<svg
   width="74.61911"
   height="74.619141"
   id="svg2"
   version="1.1"
   inkscape:version="1.3 (0e150ed6c4, 2023-07-21)"
   sodipodi:docname="ui_kit .svg"
   xml:space="preserve"
   xmlns:inkscape="http://www.inkscape.org/namespaces/inkscape"
   xmlns:sodipodi="http://sodipodi.sourceforge.net/DTD/sodipodi-0.dtd"
   xmlns:xlink="http://www.w3.org/1999/xlink"
   xmlns="http://www.w3.org/2000/svg"
   xmlns:svg="http://www.w3.org/2000/svg"
   xmlns:rdf="http://www.w3.org/1999/02/22-rdf-syntax-ns#"
   xmlns:cc="http://creativecommons.org/ns#"
   xmlns:dc="http://purl.org/dc/elements/1.1/"><defs
     id="defs4"><linearGradient
       id="swatch9470"
       inkscape:swatch="solid"><stop
         style="stop-color:#000000;stop-opacity:1;"
         offset="0"
         id="stop9470" /></linearGradient><linearGradient
       id="swatch9468"
       inkscape:swatch="solid"><stop
         style="stop-color:#000000;stop-opacity:1;"
         offset="0"
         id="stop9468" /></linearGradient><linearGradient
       id="swatch9466"
       inkscape:swatch="solid"><stop
         style="stop-color:#000000;stop-opacity:1;"
         offset="0"
         id="stop9466" /></linearGradient><linearGradient
       id="swatch9465"
       inkscape:swatch="solid"><stop
         style="stop-color:#000000;stop-opacity:1;"
         offset="0"
         id="stop9465" /></linearGradient><linearGradient
       id="swatch9463"
       inkscape:swatch="solid"><stop
         style="stop-color:#ffffff;stop-opacity:1;"
         offset="0"
         id="stop9463" /></linearGradient><linearGradient
       id="swatch9458"
       inkscape:swatch="solid"><stop
         style="stop-color:#000000;stop-opacity:1;"
         offset="0"
         id="stop9458" /></linearGradient><linearGradient
       id="linearGradient4799"><stop
         id="stop4801"
         offset="0"
         style="stop-color:#00aad4;stop-opacity:1" /><stop
         id="stop4803"
         offset="1"
         style="stop-color:#2ad4ff;stop-opacity:1" /></linearGradient><linearGradient
       inkscape:collect="always"
       xlink:href="#linearGradient4799"
       id="linearGradient5271"
       gradientUnits="userSpaceOnUse"
       gradientTransform="matrix(0.5099892,0,0,0.49797434,-29.649126,98.70829)"
       x1="205.63556"
       y1="522.62042"
       x2="191.5173"
       y2="435.45551" /></defs><sodipodi:namedview
     id="base"
     pagecolor="#81dfeb"
     bordercolor="#666666"
     borderopacity="1.0"
     inkscape:pageopacity="1"
     inkscape:pageshadow="2"
     inkscape:zoom="0.33643607"
     inkscape:cx="1694.2297"
     inkscape:cy="1336.0636"
     inkscape:document-units="px"
     inkscape:current-layer="layer1"
     showgrid="false"
     inkscape:window-width="1366"
     inkscape:window-height="705"
     inkscape:window-x="-8"
     inkscape:window-y="-8"
     inkscape:window-maximized="1"
     showguides="true"
     inkscape:guide-bbox="true"
     fit-margin-top="0"
     fit-margin-left="0"
     fit-margin-right="0"
     fit-margin-bottom="0"
     inkscape:showpageshadow="2"
     inkscape:pagecheckerboard="0"
     inkscape:deskcolor="#d1d1d1"
     inkscape:export-bgcolor="#ffffff00" /><metadata
     id="metadata7"><rdf:RDF><cc:Work
         rdf:about=""><dc:format>image/svg+xml</dc:format><dc:type
           rdf:resource="http://purl.org/dc/dcmitype/StillImage" /><dc:title /></cc:Work></rdf:RDF></metadata><g
     inkscape:label="Layer 1"
     inkscape:groupmode="layer"
     id="layer1"
     transform="translate(-303.70266,-676.08141)"><g
       id="g5233"
       transform="translate(263.47764,369.93675)"
       inkscape:export-filename="..\Documents\Godot\Desert_Dash\sprites\leaderboards_normal.svg"
       inkscape:export-xdpi="96"
       inkscape:export-ydpi="96"><path
         sodipodi:nodetypes="sssssssss"
         inkscape:connector-curvature="0"
         id="path5235"
         d="m 114.84412,343.53898 c 0,10.27934 -3.22251,17.99996 -9.9742,24.73632 -6.751705,6.73635 -17.032598,12.48845 -27.335343,12.48845 -10.30275,0 -20.265807,-5.11786 -27.017505,-11.85423 -6.751702,-6.73635 -10.292046,-15.0912 -10.292046,-25.37054 0,-10.27933 4.176009,-19.26841 10.927717,-26.00477 6.751697,-6.73635 16.079084,-11.21999 26.381834,-11.21999 10.302745,0 20.583638,3.84941 27.335343,10.58577 6.75169,6.73635 9.9742,16.35966 9.9742,26.63899 z"
         style="opacity:0.266094;fill:#020202;fill-opacity:1;stroke:none" /><path
         sodipodi:nodetypes="cscccccc"
         inkscape:connector-curvature="0"
         id="path5237"
         d="m 76.184658,306.15478 c -9.682675,0.16375 -18.804434,4.61977 -25.389315,11.43151 -6.58488,6.81173 -10.632887,15.97917 -10.168052,25.56579 -0.1153,12.08122 7.14293,23.4077 17.551887,29.45413 9.611326,6.16234 22.347177,7.62717 32.723364,2.46007 11.594208,-5.2606 21.720988,-15.754 22.532778,-28.85562 1.38117,-13.17935 -3.65912,-27.85723 -15.84135,-34.61888 -6.411319,-3.76992 -13.96721,-5.60107 -21.409312,-5.437 z"
         style="fill:#ffffff;fill-opacity:1;stroke:none" /><path
         style="fill:#004455;fill-opacity:1;stroke:none"
         d="m 75.201547,311.64801 c -19.124397,0.32806 -35.133492,22.03274 -27.602291,40.24557 6.13649,16.56502 28.343899,25.44362 43.821585,15.79814 11.187659,-5.81291 18.479079,-18.53137 15.983379,-31.155 -1.48195,-12.58974 -12.014525,-23.03669 -24.653328,-24.418 -2.488966,-0.4079 -5.016632,-0.58915 -7.549345,-0.47071 z"
         id="path5239"
         inkscape:connector-curvature="0" /><path
         inkscape:connector-curvature="0"
         id="path5241"
         d="m 75.063722,311.20996 c -19.181178,0.55832 -34.667097,22.01127 -27.454544,39.70237 5.556537,15.4225 25.61255,24.90185 40.921447,17.269 10.986477,-4.86322 19.769425,-15.8341 18.853665,-27.97993 0.0801,-11.68121 -7.15734,-23.74508 -19.044912,-27.07736 -4.25762,-1.47864 -8.769336,-2.08143 -13.275656,-1.91408 z"
         style="fill:url(#linearGradient5271);fill-opacity:1;stroke:none" /><path
         inkscape:connector-curvature="0"
         id="path5243"
         d="m 74.747877,371.23129 c -9.765892,-0.8627 -18.750215,-6.10289 -24.11954,-14.06794 -1.543466,-2.28962 -1.616759,-2.69592 -0.250899,-1.39082 1.548831,1.47992 5.027282,3.76596 7.580216,4.9817 5.351908,2.54865 9.466312,3.45845 15.686062,3.46859 6.595114,0.0108 11.37234,-1.13225 17.167766,-4.10756 6.447317,-3.30997 12.332588,-9.36221 15.348158,-15.78357 l 0.92392,-1.9674 -0.005,1.27122 c -0.006,1.6972 -0.76295,4.8437 -1.78704,7.42737 -2.71093,6.83933 -9.030042,13.44668 -16.419106,17.16802 -4.33034,2.1809 -9.932114,3.37079 -14.12512,3.00039 z"
         style="opacity:0.656652;fill:#006680;fill-opacity:1;stroke:none" /><path
         style="opacity:0.656652;fill:#aaeeff;fill-opacity:1;stroke:none"
         d="m 76.411,310.86389 c 9.642702,0.0814 18.853691,4.18223 24.72807,11.00917 1.68864,1.96247 1.79159,2.32508 0.35239,1.24129 -1.631994,-1.22898 -5.21787,-3.04956 -7.814318,-3.96739 -5.443134,-1.92413 -9.547414,-2.45309 -15.647465,-2.01665 -6.468193,0.46278 -11.065491,1.83993 -16.52115,4.94903 -6.069338,3.45881 -11.377829,9.36022 -13.843983,15.39023 l -0.755584,1.8475 -0.09269,-1.1513 c -0.12396,-1.53709 0.377792,-4.4402 1.184486,-6.85286 2.135445,-6.38661 7.826929,-12.82171 14.788316,-16.72045 4.079709,-2.28485 9.481986,-3.76354 13.622098,-3.72858 z"
         id="path5245"
         inkscape:connector-curvature="0" /><path
         sodipodi:nodetypes="sssss"
         inkscape:connector-curvature="0"
         id="path5247"
         d="m 63.423434,318.7727 c 1.083827,1.14438 -1.8225,2.38149 -4.626709,4.97405 -2.804208,2.59257 -4.444402,5.55884 -5.52823,4.41445 -1.083827,-1.14438 0.310819,-4.17377 3.115027,-6.76634 2.804209,-2.59256 5.956084,-3.76655 7.039912,-2.62216 z"
         style="fill:#ffffff;fill-opacity:1;stroke:none" /></g><g
       id="g5397"
       transform="matrix(0.50488526,0,0,0.50488526,21.361213,404.00953)"><path
         inkscape:connector-curvature="0"
         id="path5393"
         d="m 621.95004,579.57707 c 0.52083,7.125 1.04167,14.25 1.5625,21.375 -7.90642,0.4028 -15.81139,0.83514 -23.71875,1.21875 0.81861,12.35651 1.72568,24.70716 2.5625,37.0625 23.73959,-0.0168 47.47916,-0.0454 71.21875,-0.0625 1.37658,-9.42685 2.73656,-18.85614 4.125,-28.28125 -8.43546,0.08 -16.8832,0.34792 -25.3125,-0.0625 0.45633,-10.74841 0.86757,-21.49875 1.25,-32.25 -10.61302,-0.45335 -21.23009,-0.81088 -31.84375,-1.25 0.0521,0.75 0.10417,1.5 0.15625,2.25 z m 33.625,44.09375 c -1.90576,1.52144 -2.24435,-1.50824 0,0 z"
         style="opacity:0.3;fill:#000000;stroke:none" /><path
         inkscape:connector-curvature="0"
         id="path5352"
         d="m 620.86016,577.53102 1.70515,23.41541 -23.7386,1.22592 2.28472,33.16721 67.62716,-0.0668 3.53295,-24.26243 c 0,0 -25.18133,0.45012 -25.076,-0.4235 0.10534,-0.87363 1.27053,-31.99698 1.27053,-31.99698 l -27.60591,-1.05876 z m 14.94529,7.93515 h 1.08106 v 11.12262 h 2.05066 v 0.83586 h -5.67276 v -0.83586 h 2.03952 v -9.77407 l -2.36272,1.53799 v -1.03649 z m -24.99799,21.08615 c 1.22253,10e-6 2.18933,0.28755 2.89768,0.88043 0.70833,0.59293 1.05875,1.40055 1.05876,2.41845 -1e-5,1.14908 -0.80173,2.52329 -2.40728,4.1236 -0.12594,0.1207 -0.21569,0.21566 -0.27863,0.27863 l -2.96455,2.96455 h 4.90376 v -1.44886 h 0.91387 v 2.74165 h -7.57852 v -0.85816 l 3.56638,-3.55521 c 0.78703,-0.78703 1.34706,-1.50624 1.68285,-2.16212 0.33582,-0.6611 0.50153,-1.35999 0.50153,-2.08408 0,-0.7923 -0.19845,-1.41521 -0.61296,-1.86119 -0.40929,-0.44599 -0.98111,-0.66869 -1.70519,-0.6687 -0.75031,10e-6 -1.32931,0.19586 -1.73859,0.5684 -0.40925,0.37253 -0.65097,0.92666 -0.72442,1.67172 h -0.88043 v -2.09525 c 0.56142,-0.29905 1.12735,-0.5224 1.69402,-0.67983 0.5719,-0.15741 1.12603,-0.23402 1.67172,-0.23403 z m 47.15404,9.55117 c 1.14907,1e-5 2.05168,0.24826 2.69705,0.74669 0.64538,0.49322 0.96962,1.18032 0.96963,2.06182 -1e-5,0.70835 -0.23387,1.3057 -0.67986,1.78319 -0.44599,0.47223 -1.07611,0.79054 -1.89463,0.95846 0.96543,0.13641 1.72131,0.48093 2.25129,1.04759 0.53517,0.56144 0.80242,1.29834 0.80243,2.19555 -10e-6,1.09661 -0.3747,1.93111 -1.1145,2.51875 -0.73459,0.58241 -1.79112,0.88046 -3.17631,0.88046 -0.61387,0 -1.21781,-0.0695 -1.80545,-0.20063 -0.58242,-0.13117 -1.16145,-0.33422 -1.73862,-0.60183 v -2.27355 h 0.88046 c 0.0524,0.75558 0.31251,1.32806 0.76899,1.71632 0.45648,0.38827 1.09905,0.57953 1.92806,0.57953 0.80277,0 1.43289,-0.22924 1.89465,-0.69096 0.46695,-0.46699 0.70212,-1.1089 0.70213,-1.91695 -10e-6,-0.92344 -0.24697,-1.62299 -0.72443,-2.09522 -0.47747,-0.47746 -1.17179,-0.71326 -2.09525,-0.71327 h -0.7467 v -0.80245 h 0.39007 c 0.91823,0 1.60533,-0.19061 2.06181,-0.56837 0.46172,-0.38302 0.69096,-0.96139 0.69097,-1.72745 -10e-6,-0.68735 -0.19061,-1.2094 -0.56837,-1.57146 -0.37779,-0.36727 -0.91882,-0.54608 -1.62715,-0.54609 -0.70835,1e-5 -1.25593,0.16571 -1.64946,0.50152 -0.38826,0.33581 -0.62278,0.8323 -0.69099,1.49343 h -0.88043 v -2.07295 c 0.6139,-0.23087 1.19946,-0.40313 1.76089,-0.52383 0.56666,-0.12065 1.10051,-0.17829 1.59372,-0.1783 z"
         style="fill:#ffffff;stroke:none" /></g></g></svg>
