<?xml version="1.0" encoding="UTF-8" standalone="no"?>
<!-- Created with Inkscape (http://www.inkscape.org/) -->

<svg
   width="74.61911"
   height="74.619019"
   id="svg2"
   version="1.1"
   inkscape:version="0.48.4 r9939"
   sodipodi:docname="ui_kit .svg"
   xml:space="preserve"
   xmlns:inkscape="http://www.inkscape.org/namespaces/inkscape"
   xmlns:sodipodi="http://sodipodi.sourceforge.net/DTD/sodipodi-0.dtd"
   xmlns:xlink="http://www.w3.org/1999/xlink"
   xmlns="http://www.w3.org/2000/svg"
   xmlns:svg="http://www.w3.org/2000/svg"
   xmlns:rdf="http://www.w3.org/1999/02/22-rdf-syntax-ns#"
   xmlns:cc="http://creativecommons.org/ns#"
   xmlns:dc="http://purl.org/dc/elements/1.1/"><defs
     id="defs4"><linearGradient
       id="linearGradient4799"><stop
         id="stop4801"
         offset="0"
         style="stop-color:#00aad4;stop-opacity:1" /><stop
         id="stop4803"
         offset="1"
         style="stop-color:#2ad4ff;stop-opacity:1" /></linearGradient><linearGradient
       inkscape:collect="always"
       xlink:href="#linearGradient4799"
       id="linearGradient5091"
       gradientUnits="userSpaceOnUse"
       gradientTransform="matrix(0.5099892,0,0,0.49797434,-29.649126,98.70829)"
       x1="205.63556"
       y1="522.62042"
       x2="191.5173"
       y2="435.45551" /></defs><sodipodi:namedview
     id="base"
     pagecolor="#81dfeb"
     bordercolor="#666666"
     borderopacity="1.0"
     inkscape:pageopacity="1"
     inkscape:pageshadow="2"
     inkscape:zoom="0.22392792"
     inkscape:cx="464.51937"
     inkscape:cy="2736.5913"
     inkscape:document-units="px"
     inkscape:current-layer="layer1"
     showgrid="false"
     inkscape:window-width="1366"
     inkscape:window-height="700"
     inkscape:window-x="0"
     inkscape:window-y="0"
     inkscape:window-maximized="1"
     showguides="true"
     inkscape:guide-bbox="true"
     fit-margin-top="0"
     fit-margin-left="0"
     fit-margin-right="0"
     fit-margin-bottom="0"
     inkscape:showpageshadow="2"
     inkscape:pagecheckerboard="0"
     inkscape:deskcolor="#d1d1d1"
     inkscape:export-bgcolor="#ffffff00" /><metadata
     id="metadata7"><rdf:RDF><cc:Work
         rdf:about=""><dc:format>image/svg+xml</dc:format><dc:type
           rdf:resource="http://purl.org/dc/dcmitype/StillImage" /><dc:title /></cc:Work></rdf:RDF></metadata><g
     inkscape:label="Layer 1"
     inkscape:groupmode="layer"
     id="layer1"
     transform="translate(-303.70266,-504.15111)"><g
       id="g5055"
       transform="translate(263.47764,198.00642)"><path
         sodipodi:nodetypes="sssssssss"
         inkscape:connector-curvature="0"
         id="path5057"
         d="m 114.84412,343.53898 c 0,10.27934 -3.22251,17.99996 -9.9742,24.73632 -6.751705,6.73635 -17.032598,12.48845 -27.335343,12.48845 -10.30275,0 -20.265807,-5.11786 -27.017505,-11.85423 -6.751702,-6.73635 -10.292046,-15.0912 -10.292046,-25.37054 0,-10.27933 4.176009,-19.26841 10.927717,-26.00477 6.751697,-6.73635 16.079084,-11.21999 26.381834,-11.21999 10.302745,0 20.583638,3.84941 27.335343,10.58577 6.75169,6.73635 9.9742,16.35966 9.9742,26.63899 z"
         style="opacity:0.266094;fill:#020202;fill-opacity:1;stroke:none" /><path
         sodipodi:nodetypes="cscccccc"
         inkscape:connector-curvature="0"
         id="path5059"
         d="m 76.184658,306.15478 c -9.682675,0.16375 -18.804434,4.61977 -25.389315,11.43151 -6.58488,6.81173 -10.632887,15.97917 -10.168052,25.56579 -0.1153,12.08122 7.14293,23.4077 17.551887,29.45413 9.611326,6.16234 22.347177,7.62717 32.723364,2.46007 11.594208,-5.2606 21.720988,-15.754 22.532778,-28.85562 1.38117,-13.17935 -3.65912,-27.85723 -15.84135,-34.61888 -6.411319,-3.76992 -13.96721,-5.60107 -21.409312,-5.437 z"
         style="fill:#ffffff;fill-opacity:1;stroke:none" /><path
         style="fill:#004455;fill-opacity:1;stroke:none"
         d="m 75.201547,311.64801 c -19.124397,0.32806 -35.133492,22.03274 -27.602291,40.24557 6.13649,16.56502 28.343899,25.44362 43.821585,15.79814 11.187659,-5.81291 18.479079,-18.53137 15.983379,-31.155 -1.48195,-12.58974 -12.014525,-23.03669 -24.653328,-24.418 -2.488966,-0.4079 -5.016632,-0.58915 -7.549345,-0.47071 z"
         id="path5061"
         inkscape:connector-curvature="0" /><path
         inkscape:connector-curvature="0"
         id="path5063"
         d="m 75.063722,311.20996 c -19.181178,0.55832 -34.667097,22.01127 -27.454544,39.70237 5.556537,15.4225 25.61255,24.90185 40.921447,17.269 10.986477,-4.86322 19.769425,-15.8341 18.853665,-27.97993 0.0801,-11.68121 -7.15734,-23.74508 -19.044912,-27.07736 -4.25762,-1.47864 -8.769336,-2.08143 -13.275656,-1.91408 z"
         style="fill:url(#linearGradient5091);fill-opacity:1;stroke:none" /><path
         inkscape:connector-curvature="0"
         id="path5065"
         d="m 74.747877,371.23129 c -9.765892,-0.8627 -18.750215,-6.10289 -24.11954,-14.06794 -1.543466,-2.28962 -1.616759,-2.69592 -0.250899,-1.39082 1.548831,1.47992 5.027282,3.76596 7.580216,4.9817 5.351908,2.54865 9.466312,3.45845 15.686062,3.46859 6.595114,0.0108 11.37234,-1.13225 17.167766,-4.10756 6.447317,-3.30997 12.332588,-9.36221 15.348158,-15.78357 l 0.92392,-1.9674 -0.005,1.27122 c -0.006,1.6972 -0.76295,4.8437 -1.78704,7.42737 -2.71093,6.83933 -9.030042,13.44668 -16.419106,17.16802 -4.33034,2.1809 -9.932114,3.37079 -14.12512,3.00039 z"
         style="opacity:0.656652;fill:#006680;fill-opacity:1;stroke:none" /><path
         style="opacity:0.656652;fill:#aaeeff;fill-opacity:1;stroke:none"
         d="m 76.411,310.86389 c 9.642702,0.0814 18.853691,4.18223 24.72807,11.00917 1.68864,1.96247 1.79159,2.32508 0.35239,1.24129 -1.631994,-1.22898 -5.21787,-3.04956 -7.814318,-3.96739 -5.443134,-1.92413 -9.547414,-2.45309 -15.647465,-2.01665 -6.468193,0.46278 -11.065491,1.83993 -16.52115,4.94903 -6.069338,3.45881 -11.377829,9.36022 -13.843983,15.39023 l -0.755584,1.8475 -0.09269,-1.1513 c -0.12396,-1.53709 0.377792,-4.4402 1.184486,-6.85286 2.135445,-6.38661 7.826929,-12.82171 14.788316,-16.72045 4.079709,-2.28485 9.481986,-3.76354 13.622098,-3.72858 z"
         id="path5067"
         inkscape:connector-curvature="0" /><path
         sodipodi:nodetypes="sssss"
         inkscape:connector-curvature="0"
         id="path5069"
         d="m 63.423434,318.7727 c 1.083827,1.14438 -1.8225,2.38149 -4.626709,4.97405 -2.804208,2.59257 -4.444402,5.55884 -5.52823,4.41445 -1.083827,-1.14438 0.310819,-4.17377 3.115027,-6.76634 2.804209,-2.59256 5.956084,-3.76655 7.039912,-2.62216 z"
         style="fill:#ffffff;fill-opacity:1;stroke:none" /></g><g
       id="g4609"
       transform="matrix(0.43380247,0,0,0.49074122,66.957361,403.47182)"><path
         inkscape:connector-curvature="0"
         id="path4605"
         d="m 638.25,237.46875 c -4.75982,1.71574 -2.64192,8.52458 -3.15625,12.375 0.0667,10.13908 1.79364,21.64823 -0.625,31.0625 -10.31423,-2.71757 -25.21239,0.16889 -28.03125,11.96875 -2.12773,12.89765 12.32461,21.68957 23.84375,19.875 13.39838,-1.43661 20.1692,-12.46278 18.0048,-25.46474 -0.20351,-9.32137 -0.73527,-22.49487 -0.72355,-33.16667 5.19487,2.57298 8.5647,3.73611 7.76762,8.73718 0.57695,8.37217 -0.78849,8.60713 1.48959,10.43429 2.97162,2.38343 12.09131,-11.83932 12.33654,-18.50881 -4.57125,-7.11057 -13.3686,-10.12896 -20.46875,-14.03125 -3.36021,-1.29413 -6.75786,-3.3106 -10.4375,-3.28125 z"
         style="opacity:0.236051;fill:#000000;fill-opacity:1;stroke:none"
         sodipodi:nodetypes="ccccccccsccc" /><path
         inkscape:connector-curvature="0"
         id="path4585"
         d="m 635.9399,236.24388 c -0.29621,-0.006 -0.52672,0.0435 -0.69866,0.17754 -2.75108,2.14398 0.89239,27.34649 -0.94166,38.0664 -0.45852,2.67999 -0.21681,3.41124 -1.27291,5.82424 -2.59064,-0.98264 -5.47845,-1.54657 -8.54859,-1.54657 -10.8876,0 -19.70928,4.92011 -19.70928,13.46572 0,8.54561 8.82168,15.46572 19.70928,15.46572 9.2395,0 18.24243,-4.66102 19.31836,-12.20085 0.87242,-6.11373 0.55886,-17.64375 0.34556,-34.56847 -0.10463,-8.30165 -1.40717,-12.01877 4.12212,-8.84973 9.05742,5.19114 5.89579,7.71902 6.3543,11.47101 -2.0209,17.63633 11.65516,-8.51519 10.28756,-11.55917 -2.57913,-5.02496 -24.52321,-15.66727 -28.96616,-15.74576 z"
         style="fill:#ffffff;fill-opacity:1;stroke:none"
         sodipodi:nodetypes="ccscsssssscccc" /></g></g></svg>
