<?xml version="1.0" encoding="UTF-8" standalone="no"?>
<!-- Created with Inkscape (http://www.inkscape.org/) -->

<svg
   width="44.57373"
   height="50.554688"
   id="svg2"
   version="1.1"
   inkscape:version="1.3 (0e150ed6c4, 2023-07-21)"
   sodipodi:docname="ui_kit .svg"
   xml:space="preserve"
   xmlns:inkscape="http://www.inkscape.org/namespaces/inkscape"
   xmlns:sodipodi="http://sodipodi.sourceforge.net/DTD/sodipodi-0.dtd"
   xmlns="http://www.w3.org/2000/svg"
   xmlns:svg="http://www.w3.org/2000/svg"
   xmlns:rdf="http://www.w3.org/1999/02/22-rdf-syntax-ns#"
   xmlns:cc="http://creativecommons.org/ns#"
   xmlns:dc="http://purl.org/dc/elements/1.1/"><defs
     id="defs4"><linearGradient
       id="swatch9470"
       inkscape:swatch="solid"><stop
         style="stop-color:#000000;stop-opacity:1;"
         offset="0"
         id="stop9470" /></linearGradient><linearGradient
       id="swatch9468"
       inkscape:swatch="solid"><stop
         style="stop-color:#000000;stop-opacity:1;"
         offset="0"
         id="stop9468" /></linearGradient><linearGradient
       id="swatch9466"
       inkscape:swatch="solid"><stop
         style="stop-color:#000000;stop-opacity:1;"
         offset="0"
         id="stop9466" /></linearGradient><linearGradient
       id="swatch9465"
       inkscape:swatch="solid"><stop
         style="stop-color:#000000;stop-opacity:1;"
         offset="0"
         id="stop9465" /></linearGradient><linearGradient
       id="swatch9463"
       inkscape:swatch="solid"><stop
         style="stop-color:#ffffff;stop-opacity:1;"
         offset="0"
         id="stop9463" /></linearGradient><linearGradient
       id="swatch9458"
       inkscape:swatch="solid"><stop
         style="stop-color:#000000;stop-opacity:1;"
         offset="0"
         id="stop9458" /></linearGradient></defs><sodipodi:namedview
     id="base"
     pagecolor="#81dfeb"
     bordercolor="#666666"
     borderopacity="1.0"
     inkscape:pageopacity="1"
     inkscape:pageshadow="2"
     inkscape:zoom="1.3457443"
     inkscape:cx="1532.9807"
     inkscape:cy="1716.8938"
     inkscape:document-units="px"
     inkscape:current-layer="g9721"
     showgrid="false"
     inkscape:window-width="1366"
     inkscape:window-height="705"
     inkscape:window-x="-8"
     inkscape:window-y="-8"
     inkscape:window-maximized="1"
     showguides="true"
     inkscape:guide-bbox="true"
     fit-margin-top="0"
     fit-margin-left="0"
     fit-margin-right="0"
     fit-margin-bottom="0"
     inkscape:showpageshadow="2"
     inkscape:pagecheckerboard="0"
     inkscape:deskcolor="#d1d1d1"
     inkscape:export-bgcolor="#ffffff00" /><metadata
     id="metadata7"><rdf:RDF><cc:Work
         rdf:about=""><dc:format>image/svg+xml</dc:format><dc:type
           rdf:resource="http://purl.org/dc/dcmitype/StillImage" /><dc:title /></cc:Work></rdf:RDF></metadata><g
     inkscape:label="Layer 1"
     inkscape:groupmode="layer"
     id="layer1"
     transform="translate(-895.65576,-398.28856)"><g
       id="g68"><rect
         style="fill:none;fill-opacity:1;stroke:none;stroke-width:0.336289;stroke-dasharray:none"
         id="rect68"
         width="44.573727"
         height="50.554672"
         x="895.65576"
         y="398.2886"
         ry="23.757933"
         rx="0" /><g
         id="g67"
         transform="matrix(0.43380247,0,0,0.49074122,643.67459,287.07283)"
         inkscape:export-filename="..\Documents\Godot\Desert_Dash\sprites\music_normal.svg"
         inkscape:export-xdpi="121.72539"
         inkscape:export-ydpi="121.72539"><path
           inkscape:connector-curvature="0"
           id="path66"
           d="m 638.25,237.46875 c -4.75982,1.71574 -2.64192,8.52458 -3.15625,12.375 0.0667,10.13908 1.79364,21.64823 -0.625,31.0625 -10.31423,-2.71757 -25.21239,0.16889 -28.03125,11.96875 -2.12773,12.89765 12.32461,21.68957 23.84375,19.875 13.39838,-1.43661 20.1692,-12.46278 18.0048,-25.46474 -0.20351,-9.32137 -0.73527,-22.49487 -0.72355,-33.16667 5.19487,2.57298 8.5647,3.73611 7.76762,8.73718 0.57695,8.37217 -0.78849,8.60713 1.48959,10.43429 2.97162,2.38343 12.09131,-11.83932 12.33654,-18.50881 -4.57125,-7.11057 -13.3686,-10.12896 -20.46875,-14.03125 -3.36021,-1.29413 -6.75786,-3.3106 -10.4375,-3.28125 z"
           style="opacity:0.236051;fill:#000000;fill-opacity:1;stroke:none"
           sodipodi:nodetypes="ccccccccsccc" /><path
           inkscape:connector-curvature="0"
           id="path67"
           d="m 635.9399,236.24388 c -0.29621,-0.006 -0.52672,0.0435 -0.69866,0.17754 -2.75108,2.14398 0.89239,27.34649 -0.94166,38.0664 -0.45852,2.67999 -0.21681,3.41124 -1.27291,5.82424 -2.59064,-0.98264 -5.47845,-1.54657 -8.54859,-1.54657 -10.8876,0 -19.70928,4.92011 -19.70928,13.46572 0,8.54561 8.82168,15.46572 19.70928,15.46572 9.2395,0 18.24243,-4.66102 19.31836,-12.20085 0.87242,-6.11373 0.55886,-17.64375 0.34556,-34.56847 -0.10463,-8.30165 -1.40717,-12.01877 4.12212,-8.84973 9.05742,5.19114 5.89579,7.71902 6.3543,11.47101 -2.0209,17.63633 11.65516,-8.51519 10.28756,-11.55917 -2.57913,-5.02496 -24.52321,-15.66727 -28.96616,-15.74576 z"
           style="fill:#ffffff;fill-opacity:1;stroke:none"
           sodipodi:nodetypes="ccscsssssscccc" /></g></g></g></svg>
