<?xml version="1.0" encoding="UTF-8" standalone="no"?>
<!-- Created with Inkscape (http://www.inkscape.org/) -->

<svg
   width="74.619141"
   height="74.619019"
   id="svg2"
   version="1.1"
   inkscape:version="0.48.4 r9939"
   sodipodi:docname="ui_kit .svg"
   xmlns:inkscape="http://www.inkscape.org/namespaces/inkscape"
   xmlns:sodipodi="http://sodipodi.sourceforge.net/DTD/sodipodi-0.dtd"
   xmlns="http://www.w3.org/2000/svg"
   xmlns:svg="http://www.w3.org/2000/svg"
   xmlns:rdf="http://www.w3.org/1999/02/22-rdf-syntax-ns#"
   xmlns:cc="http://creativecommons.org/ns#"
   xmlns:dc="http://purl.org/dc/elements/1.1/">
  <defs
     id="defs4" />
  <sodipodi:namedview
     id="base"
     pagecolor="#81dfeb"
     bordercolor="#666666"
     borderopacity="1.0"
     inkscape:pageopacity="1"
     inkscape:pageshadow="2"
     inkscape:zoom="0.22392792"
     inkscape:cx="464.51937"
     inkscape:cy="2736.5913"
     inkscape:document-units="px"
     inkscape:current-layer="layer1"
     showgrid="false"
     inkscape:window-width="1366"
     inkscape:window-height="700"
     inkscape:window-x="0"
     inkscape:window-y="0"
     inkscape:window-maximized="1"
     showguides="true"
     inkscape:guide-bbox="true"
     fit-margin-top="0"
     fit-margin-left="0"
     fit-margin-right="0"
     fit-margin-bottom="0"
     inkscape:showpageshadow="2"
     inkscape:pagecheckerboard="0"
     inkscape:deskcolor="#d1d1d1"
     inkscape:export-bgcolor="#ffffff00" />
  <metadata
     id="metadata7">
    <rdf:RDF>
      <cc:Work
         rdf:about="">
        <dc:format>image/svg+xml</dc:format>
        <dc:type
           rdf:resource="http://purl.org/dc/dcmitype/StillImage" />
        <dc:title />
      </cc:Work>
    </rdf:RDF>
  </metadata>
  <g
     inkscape:label="Layer 1"
     inkscape:groupmode="layer"
     id="layer1"
     transform="translate(-813.01709,-504.15111)">
    <g
       transform="translate(772.79209,198.00642)"
       id="g8"
       style="fill:#808080">
      <path
         style="opacity:0.266094;fill:#808080;fill-opacity:1;stroke:none"
         d="m 114.84412,343.53898 c 0,10.27934 -3.22251,17.99996 -9.9742,24.73632 -6.751705,6.73635 -17.032598,12.48845 -27.335343,12.48845 -10.30275,0 -20.265807,-5.11786 -27.017505,-11.85423 -6.751702,-6.73635 -10.292046,-15.0912 -10.292046,-25.37054 0,-10.27933 4.176009,-19.26841 10.927717,-26.00477 6.751697,-6.73635 16.079084,-11.21999 26.381834,-11.21999 10.302745,0 20.583638,3.84941 27.335343,10.58577 6.75169,6.73635 9.9742,16.35966 9.9742,26.63899 z"
         id="path2"
         inkscape:connector-curvature="0"
         sodipodi:nodetypes="sssssssss" />
      <path
         style="fill:#808080;fill-opacity:1;stroke:none"
         d="m 76.184658,306.15478 c -9.682675,0.16375 -18.804434,4.61977 -25.389315,11.43151 -6.58488,6.81173 -10.632887,15.97917 -10.168052,25.56579 -0.1153,12.08122 7.14293,23.4077 17.551887,29.45413 9.611326,6.16234 22.347177,7.62717 32.723364,2.46007 11.594208,-5.2606 21.720988,-15.754 22.532778,-28.85562 1.38117,-13.17935 -3.65912,-27.85723 -15.84135,-34.61888 -6.411319,-3.76992 -13.96721,-5.60107 -21.409312,-5.437 z"
         id="path3"
         inkscape:connector-curvature="0"
         sodipodi:nodetypes="cscccccc" />
      <path
         inkscape:connector-curvature="0"
         id="path4"
         d="m 75.201547,311.64801 c -19.124397,0.32806 -35.133492,22.03274 -27.602291,40.24557 6.13649,16.56502 28.343899,25.44362 43.821585,15.79814 11.187659,-5.81291 18.479079,-18.53137 15.983379,-31.155 -1.48195,-12.58974 -12.014525,-23.03669 -24.653328,-24.418 -2.488966,-0.4079 -5.016632,-0.58915 -7.549345,-0.47071 z"
         style="fill:#808080;fill-opacity:1;stroke:none" />
      <path
         style="fill:#808080;fill-opacity:1;stroke:none"
         d="m 75.063722,311.20996 c -19.181178,0.55832 -34.667097,22.01127 -27.454544,39.70237 5.556537,15.4225 25.61255,24.90185 40.921447,17.269 10.986477,-4.86322 19.769425,-15.8341 18.853665,-27.97993 0.02,-2.9203 -0.4173,-5.86452 -1.27029,-8.69025 -0.85298,-2.82572 -2.12164,-5.53295 -3.76429,-7.97928 -1.64265,-2.44633 -3.659283,-4.63175 -6.008231,-6.41386 -2.348948,-1.78211 -5.030208,-3.1609 -8.002101,-3.99397 -4.25762,-1.47864 -8.769336,-2.08143 -13.275656,-1.91408 z"
         id="path5"
         inkscape:connector-curvature="0"
         sodipodi:nodetypes="ccccssscc" />
      <path
         style="opacity:0.656652;fill:#808080;fill-opacity:1;stroke:none"
         d="m 74.747877,371.23129 c -9.765892,-0.8627 -18.750215,-6.10289 -24.11954,-14.06794 -1.543466,-2.28962 -1.616759,-2.69592 -0.250899,-1.39082 1.548831,1.47992 5.027282,3.76596 7.580216,4.9817 5.351908,2.54865 9.466312,3.45845 15.686062,3.46859 6.595114,0.0108 11.37234,-1.13225 17.167766,-4.10756 6.447317,-3.30997 12.332588,-9.36221 15.348158,-15.78357 l 0.92392,-1.9674 -0.005,1.27122 c -0.006,1.6972 -0.76295,4.8437 -1.78704,7.42737 -2.71093,6.83933 -9.030042,13.44668 -16.419106,17.16802 -4.33034,2.1809 -9.932114,3.37079 -14.12512,3.00039 z"
         id="path6"
         inkscape:connector-curvature="0" />
      <path
         inkscape:connector-curvature="0"
         id="path7"
         d="m 76.411,310.86389 c 9.642702,0.0814 18.853691,4.18223 24.72807,11.00917 1.68864,1.96247 1.79159,2.32508 0.35239,1.24129 -1.631994,-1.22898 -5.21787,-3.04956 -7.814318,-3.96739 -5.443134,-1.92413 -9.547414,-2.45309 -15.647465,-2.01665 -6.468193,0.46278 -11.065491,1.83993 -16.52115,4.94903 -6.069338,3.45881 -11.377829,9.36022 -13.843983,15.39023 l -0.755584,1.8475 -0.09269,-1.1513 c -0.12396,-1.53709 0.377792,-4.4402 1.184486,-6.85286 2.135445,-6.38661 7.826929,-12.82171 14.788316,-16.72045 4.079709,-2.28485 9.481986,-3.76354 13.622098,-3.72858 z"
         style="opacity:0.656652;fill:#808080;fill-opacity:1;stroke:none" />
      <path
         style="fill:#808080;fill-opacity:1;stroke:none"
         d="m 63.423434,318.7727 c 1.083827,1.14438 -1.8225,2.38149 -4.626709,4.97405 -2.804208,2.59257 -4.444402,5.55884 -5.52823,4.41445 -1.083827,-1.14438 0.310819,-4.17377 3.115027,-6.76634 2.804209,-2.59256 5.956084,-3.76655 7.039912,-2.62216 z"
         id="path8"
         inkscape:connector-curvature="0"
         sodipodi:nodetypes="sssss" />
    </g>
    <g
       id="g10"
       transform="matrix(0.37304494,0,0,0.42996923,549.35267,420.96069)">
      <path
         inkscape:connector-curvature="0"
         id="path9"
         d="m 824.96875,238.90625 c -4.41318,-0.30987 -7.71949,5.10868 -3.75,8.21875 11.84144,16.72429 13.01156,40.07505 1.88727,57.32354 -1.58757,3.40615 -6.89257,7.56466 -2.32477,10.61396 6.22331,3.76943 13.0389,-2.70237 15.59375,-8.0625 10.03825,-15.0373 12.97606,-35.52724 4.04702,-51.87547 -3.35143,-5.38322 -5.60936,-12.63746 -11.48452,-15.71828 -1.23815,-0.40839 -2.61871,-0.65479 -3.96875,-0.5 z m -27.375,1.625 c -12.08848,1.74714 -17.68521,14.0773 -24.65625,22.375 -4.39067,0.58894 -11.49453,-0.4595 -12.59375,5.375 -1.10963,7.08751 -2.42529,16.63127 3.75,21.65625 3.33849,2.16987 9.02249,-1.71025 10.43926,3.31046 6.33415,7.94116 13.09152,18.92888 24.24824,19.40829 4.82226,-2.92394 2.27894,-10.02977 3.71072,-14.61151 1.07106,-18.60812 2.76483,-37.89687 -1.83572,-56.07599 -0.59703,-1.04964 -1.85739,-1.67086 -3.0625,-1.4375 z m 12.90625,8.6875 c -5.84959,-0.35641 -8.24267,7.87816 -3.9375,11.34375 7.61469,12.45965 5.35527,28.81668 -2.4375,40.5625 -1.40093,7.49921 10.31035,9.18846 13.15625,3.0625 11.31397,-14.30369 11.56325,-35.82539 0.8125,-50.5 -1.57878,-2.61254 -4.3683,-4.84882 -7.59375,-4.46875 z"
         style="opacity:0.2;fill:#000000;stroke:none"
         sodipodi:nodetypes="ccccccccccccccccccccccc" />
      <path
         inkscape:connector-curvature="0"
         id="path10"
         d="m 823.33342,238.25737 c -2.37884,0.0545 -4.51439,1.17225 -4.15625,2.96875 l 0.3125,0.5 0.15625,0.1875 c 10.98877,15.49148 14.50949,35.08635 7.1875,52.3125 -2.08137,5.27381 -5.0248,10.19514 -8.28125,15 0.82594,2.44133 4.65844,4.03019 10.125,-0.53125 10.62209,-13.80964 16.30999,-31.33257 10.78125,-47.625 -2.32558,-7.41393 -6.32477,-14.37769 -11.15625,-20.8125 -1.11484,-1.43427 -3.11854,-2.04235 -4.96875,-2 z m -27.46875,1.625 c -0.15725,0.005 -0.35618,0.0199 -0.5625,0.0937 -10.49892,1.76491 -16.09442,12.60327 -21.8125,20.34375 -2.6117,5.01156 -12.23799,-0.7583 -13.46875,6.0625 -1.04183,5.98232 -1.62795,13.0009 1.625,18.34375 3.38597,3.50908 9.61655,-1.54468 11.59375,3.875 6.23894,7.55974 12.03743,17.84422 22.53125,19.59375 2.36776,-0.90347 1.34266,-5.64423 2.125,-7.9375 1.4511,-19.23332 2.78569,-38.96013 -0.5625,-58 -0.38885,-0.91126 -0.36797,-2.40839 -1.46875,-2.375 z m 13,8.6875 c -0.28307,0.003 -0.56974,0.0424 -0.875,0.0937 -3.98671,-0.0364 -5.21128,5.39043 -2.125,7.9375 7.74632,12.4868 6.55381,29.90395 -1.875,41.71875 -1.62282,5.07378 5.89474,6.62787 8.5625,3.15625 9.90151,-11.61128 12.5884,-30.63791 4.4375,-44.34375 -2.03461,-3.46049 -3.87892,-8.61169 -8.125,-8.5625 z"
         style="fill:#ffffff;stroke:none"
         inkscape:export-filename="..\Documents\Godot\Desert_Dash\sprites\music_normal.svg"
         inkscape:export-xdpi="90"
         inkscape:export-ydpi="90" />
    </g>
    <rect
       style="opacity:1;fill:#ffffff;fill-opacity:1;stroke:#808080;stroke-width:1.61219;stroke-opacity:1"
       id="rect11"
       width="5.3024907"
       height="47.785221"
       x="971.60229"
       y="-276.44189"
       ry="2.3873007"
       transform="matrix(0.68142161,0.73189111,-0.73355463,0.67963049,0,0)" />
  </g>
</svg>
