<?xml version="1.0" encoding="UTF-8" standalone="no"?>
<!-- Created with Inkscape (http://www.inkscape.org/) -->

<svg
   width="38"
   height="42"
   id="svg2"
   version="1.1"
   inkscape:version="0.48.4 r9939"
   sodipodi:docname="ui_kit .svg"
   xml:space="preserve"
   xmlns:inkscape="http://www.inkscape.org/namespaces/inkscape"
   xmlns:sodipodi="http://sodipodi.sourceforge.net/DTD/sodipodi-0.dtd"
   xmlns="http://www.w3.org/2000/svg"
   xmlns:svg="http://www.w3.org/2000/svg"
   xmlns:rdf="http://www.w3.org/1999/02/22-rdf-syntax-ns#"
   xmlns:cc="http://creativecommons.org/ns#"
   xmlns:dc="http://purl.org/dc/elements/1.1/"><defs
     id="defs4" /><sodipodi:namedview
     id="base"
     pagecolor="#81dfeb"
     bordercolor="#666666"
     borderopacity="1.0"
     inkscape:pageopacity="1"
     inkscape:pageshadow="2"
     inkscape:zoom="0.22392792"
     inkscape:cx="464.51937"
     inkscape:cy="2736.5913"
     inkscape:document-units="px"
     inkscape:current-layer="layer1"
     showgrid="false"
     inkscape:window-width="1366"
     inkscape:window-height="700"
     inkscape:window-x="0"
     inkscape:window-y="0"
     inkscape:window-maximized="1"
     showguides="true"
     inkscape:guide-bbox="true"
     fit-margin-top="0"
     fit-margin-left="0"
     fit-margin-right="0"
     fit-margin-bottom="0"
     inkscape:showpageshadow="2"
     inkscape:pagecheckerboard="0"
     inkscape:deskcolor="#d1d1d1"
     inkscape:export-bgcolor="#ffffff00" /><metadata
     id="metadata7"><rdf:RDF><cc:Work
         rdf:about=""><dc:format>image/svg+xml</dc:format><dc:type
           rdf:resource="http://purl.org/dc/dcmitype/StillImage" /><dc:title /></cc:Work></rdf:RDF></metadata><g
     inkscape:label="Layer 1"
     inkscape:groupmode="layer"
     id="layer1"
     transform="translate(-830.66644,-638.67406)"><g
       id="g22"
       transform="translate(824.66643,635.67401)"
       style="display:inline"><path
         fill="#1b5e20"
         d="M 10.185,3.56 C 9.516,3.18 8.983,3 8.209,3 6.884,3 6,3.875 6,5.406 V 42.594 C 6,44.125 6.884,45 8.209,45 8.982,45 9.516,44.82 10.185,44.44 L 32.308,31.966 35,28 l 4.418,-0.043 2.98,-1.68 C 43.287,25.773 44,25.094 44,24 44,22.906 43.287,22.225 42.397,21.721 Z"
         id="path1"
         style="fill:#ffffff" /><rect
         width="13"
         height="3"
         x="18"
         y="26"
         fill="#43a047"
         id="rect1" /><path
         fill="#43a047"
         d="M 39.42,27.96 32.31,31.97 27.56,27 H 19.6 c -4.15,0 -7.5,-3.36 -7.5,-7.5 0,-2.07 0.84,-3.94 2.19,-5.3 1.36,-1.36 3.23,-2.2 5.31,-2.2 h 11.12 c 3.4,0 6.31,2.44 6.9,5.78 z"
         id="path2-6" /><path
         fill="#00e676"
         d="M 14.959,33.883 21.539,27 H 30.5 c 4.142,0 7.5,-3.358 7.5,-7.5 v 0 C 38,15.358 34.642,12 30.5,12 H 18.372 c -3.396,0 -6.302,2.438 -6.893,5.782 l -2.325,13.16 c -0.586,3.313 3.481,5.372 5.805,2.941 z"
         id="path3-9" /><rect
         width="7"
         height="2"
         x="15"
         y="18.5"
         fill="#f1f8e9"
         id="rect3" /><rect
         width="7"
         height="2"
         x="15"
         y="18.5"
         fill="#f1f8e9"
         transform="rotate(90,18.5,19.5)"
         id="rect4" /><circle
         cx="28.25"
         cy="19.5"
         r="1.25"
         fill="#f1f8e9"
         id="circle4" /><circle
         cx="33.25"
         cy="19.5"
         r="1.25"
         fill="#f1f8e9"
         id="circle5" /><circle
         cx="30.75"
         cy="17"
         r="1.25"
         fill="#f1f8e9"
         id="circle6" /><circle
         cx="30.75"
         cy="22"
         r="1.25"
         fill="#f1f8e9"
         id="circle7" /></g></g></svg>
