<?xml version="1.0" encoding="UTF-8" standalone="no"?>
<!-- Created with Inkscape (http://www.inkscape.org/) -->

<svg
   width="119.63257"
   height="117.10498"
   id="svg2"
   version="1.1"
   inkscape:version="1.3 (0e150ed6c4, 2023-07-21)"
   sodipodi:docname="ui_kit .svg"
   xml:space="preserve"
   xmlns:inkscape="http://www.inkscape.org/namespaces/inkscape"
   xmlns:sodipodi="http://sodipodi.sourceforge.net/DTD/sodipodi-0.dtd"
   xmlns:xlink="http://www.w3.org/1999/xlink"
   xmlns="http://www.w3.org/2000/svg"
   xmlns:svg="http://www.w3.org/2000/svg"
   xmlns:rdf="http://www.w3.org/1999/02/22-rdf-syntax-ns#"
   xmlns:cc="http://creativecommons.org/ns#"
   xmlns:dc="http://purl.org/dc/elements/1.1/"><defs
     id="defs4"><linearGradient
       id="swatch9470"
       inkscape:swatch="solid"><stop
         style="stop-color:#000000;stop-opacity:1;"
         offset="0"
         id="stop9470" /></linearGradient><linearGradient
       id="swatch9468"
       inkscape:swatch="solid"><stop
         style="stop-color:#000000;stop-opacity:1;"
         offset="0"
         id="stop9468" /></linearGradient><linearGradient
       id="swatch9466"
       inkscape:swatch="solid"><stop
         style="stop-color:#000000;stop-opacity:1;"
         offset="0"
         id="stop9466" /></linearGradient><linearGradient
       id="swatch9465"
       inkscape:swatch="solid"><stop
         style="stop-color:#000000;stop-opacity:1;"
         offset="0"
         id="stop9465" /></linearGradient><linearGradient
       id="swatch9463"
       inkscape:swatch="solid"><stop
         style="stop-color:#ffffff;stop-opacity:1;"
         offset="0"
         id="stop9463" /></linearGradient><linearGradient
       id="swatch9458"
       inkscape:swatch="solid"><stop
         style="stop-color:#000000;stop-opacity:1;"
         offset="0"
         id="stop9458" /></linearGradient><linearGradient
       inkscape:collect="always"
       id="linearGradient4843"><stop
         style="stop-color:#ffc100;stop-opacity:1"
         offset="0"
         id="stop4845" /><stop
         style="stop-color:#ff7300;stop-opacity:1"
         offset="1"
         id="stop4847" /></linearGradient><filter
       inkscape:collect="always"
       id="filter8464"
       color-interpolation-filters="sRGB"
       x="-0.071083396"
       y="-0.072940559"
       width="1.1421668"
       height="1.1458811"><feGaussianBlur
         inkscape:collect="always"
         stdDeviation="2.2406036"
         id="feGaussianBlur8466" /></filter><linearGradient
       inkscape:collect="always"
       xlink:href="#linearGradient4843"
       id="linearGradient9719"
       gradientUnits="userSpaceOnUse"
       x1="391.1983"
       y1="423.91534"
       x2="416.48422"
       y2="515.70642" /></defs><sodipodi:namedview
     id="base"
     pagecolor="#81dfeb"
     bordercolor="#666666"
     borderopacity="1.0"
     inkscape:pageopacity="1"
     inkscape:pageshadow="2"
     inkscape:zoom="0.33643607"
     inkscape:cx="1694.2297"
     inkscape:cy="1336.0636"
     inkscape:document-units="px"
     inkscape:current-layer="layer1"
     showgrid="false"
     inkscape:window-width="1366"
     inkscape:window-height="705"
     inkscape:window-x="-8"
     inkscape:window-y="-8"
     inkscape:window-maximized="1"
     showguides="true"
     inkscape:guide-bbox="true"
     fit-margin-top="0"
     fit-margin-left="0"
     fit-margin-right="0"
     fit-margin-bottom="0"
     inkscape:showpageshadow="2"
     inkscape:pagecheckerboard="0"
     inkscape:deskcolor="#d1d1d1"
     inkscape:export-bgcolor="#ffffff00" /><metadata
     id="metadata7"><rdf:RDF><cc:Work
         rdf:about=""><dc:format>image/svg+xml</dc:format><dc:type
           rdf:resource="http://purl.org/dc/dcmitype/StillImage" /><dc:title /></cc:Work></rdf:RDF></metadata><g
     inkscape:label="Layer 1"
     inkscape:groupmode="layer"
     id="layer1"
     transform="translate(-1391.7756,-553.11535)"><g
       id="g9721"><g
         id="g9731"><g
           transform="matrix(0.94050724,0,0,0.94050724,1283.4953,937.7694)"
           id="g9719"
           inkscape:export-filename="..\Documents\Godot\Desert_Dash\sprites\play_pressed.svg"
           inkscape:export-xdpi="96"
           inkscape:export-ydpi="96"
           style="display:inline"><rect
             style="fill:#ffffff;fill-opacity:1;stroke:none"
             id="rect9713"
             width="127.2"
             height="124.51268"
             x="115.12976"
             y="-408.98581"
             ry="62.25634" /><path
             inkscape:connector-curvature="0"
             id="path9714"
             d="m 176.49647,-402.41664 c -32.8671,0.0367 -61.02016,32.76936 -54.74125,64.23681 4.81908,31.04175 41.33111,53.82956 72.23759,43.21637 22.28734,-7.20954 40.98669,-27.55874 40.71699,-51.19047 0.89862,-21.68198 -11.80122,-44.596 -33.46241,-51.92955 -7.83595,-3.05392 -16.28803,-4.5509 -24.75092,-4.33316 z"
             style="fill:#ff9100;fill-opacity:1;stroke:none" /><path
             inkscape:connector-curvature="0"
             id="path9715"
             d="m 413.53125,418.15625 c -42.24566,-0.052 -78.08776,44.8567 -67.5625,86.21875 8.31537,39.21265 55.19988,66.23561 92.80496,50.41359 28.07518,-10.59866 50.05997,-39.01455 47.44504,-69.78859 -0.568,-28.19371 -19.62482,-56.59224 -47.89971,-63.49107 -8.02451,-2.4055 -16.35681,-3.56961 -24.78779,-3.35268 z"
             style="fill:url(#linearGradient9719);fill-opacity:1;stroke:none"
             transform="matrix(0.75864882,0,0,0.77994923,-137.18111,-728.15218)" /><path
             inkscape:connector-curvature="0"
             id="path9716"
             d="m 205.84375,427.1875 c -37.38531,1.2272 -68.13999,42.24436 -56.90625,78.34375 8.89665,33.00027 48.96146,55.19432 81.03125,41.28125 22.89441,-9.24521 42.33311,-31.41789 41.3125,-57.1875 0.82053,-23.55127 -12.05897,-48.87151 -35,-57.0625 -9.55872,-4.08685 -20.04116,-5.75961 -30.4375,-5.375 z"
             style="fill:#d26606;fill-opacity:1;stroke:none"
             transform="matrix(0.72486283,0,0,0.71617819,26.570795,-697.27558)" /><path
             style="fill:#db6b06;fill-opacity:1;stroke:none;filter:url(#filter8464)"
             d="m 176.09375,-383.90625 c -25.3791,0.39029 -45.06013,32.23744 -31.1875,54.4375 10.41599,18.9536 38.49233,25.85573 55.4375,11.59375 16.921,-11.21215 20.79696,-36.7695 8.1875,-52.53125 -7.62258,-9.96402 -20.18857,-14.28978 -32.4375,-13.5 z"
             id="path9717"
             inkscape:connector-curvature="0" /></g><g
           id="g9694"
           transform="matrix(0.60053253,0,0,0.59333748,1080.5422,321.43234)"
           style="fill:#1c2422;fill-opacity:1"><path
             inkscape:connector-curvature="0"
             id="path9693"
             d="m 617.47368,448.96842 c -26.97692,-0.34156 -47.49332,33.06282 -33.58524,56.3391 6.59412,11.94615 20.33349,19.20269 33.98988,19.59218 1.32646,-6.23435 2.60709,-12.47886 3.85965,-18.72827 -11.44143,2.47714 -25.02575,-6.364 -23.53145,-18.78999 0.49953,-11.44455 11.20698,-22.47394 23.28244,-19.99328 10.86607,-0.33151 18.56734,11.2883 17.02607,21.35085 -3.97809,-3.04826 -12.04104,-2.26554 -12.04586,3.85673 0.7577,8.87661 -1.64237,18.26904 0.87153,26.87369 2.67205,6.8253 12.40959,6.06919 16.62609,1.0907 5.20704,-4.65552 12.98635,-7.02036 16.86576,-12.90772 1.59586,-4.19032 -2.53923,-7.88861 -5.97624,-9.53383 5.60648,-15.846 -0.10885,-35.658 -15.37637,-43.87415 -6.60009,-3.77494 -14.32477,-5.53812 -22.00626,-5.27601 z"
             style="opacity:0.2;fill:#1c2422;fill-opacity:1;stroke:none" /><path
             inkscape:connector-curvature="0"
             id="path9694"
             d="m 615.34371,448.0728 c -0.55422,-0.006 -1.13495,0.0154 -1.6875,0.0312 -25.64308,-0.2091 -45.19072,31.7814 -31.96875,54.09375 6.06808,11.05034 18.33614,17.86388 30.78125,18.6875 l 3,-14.6875 c -5.97846,0.43548 -12.0421,-1.1986 -16.53125,-5.3125 -14.13727,-11.19134 -3.98966,-37.29173 13.375,-38.21875 0.44802,-0.0345 0.86338,-0.0226 1.3125,-0.0312 1.34729,-0.0263 2.71998,0.0263 4.0625,0.125 13.06722,-0.36656 21.80595,14.27947 18.625,26.21875 -0.0285,0.18589 -0.0604,0.37892 -0.0937,0.5625 l -2.78125,-1.59375 c -4.54643,-2.6249 -8.7299,-1.20013 -8.75,2.34375 l -0.125,23.5625 c 0.97418,5.5911 4.59924,8.13044 10.4375,6 l 18.5,-12.9375 c 4.48593,-3.1415 0.72539,-6.97799 -2.34375,-8.75 l -2.375,-1.375 c 5.21108,-14.19914 2.36481,-31.56312 -10.15625,-40.90625 -6.53491,-5.27207 -14.96774,-7.737 -23.28125,-7.8125 z"
             style="fill:#1c2422;fill-opacity:1;stroke:none" /></g></g></g></g></svg>
