<?xml version="1.0" encoding="UTF-8" standalone="no"?>
<!-- Created with Inkscape (http://www.inkscape.org/) -->

<svg
   width="74.619102"
   height="74.619019"
   id="svg2"
   version="1.1"
   inkscape:version="0.48.4 r9939"
   sodipodi:docname="ui_kit .svg"
   xmlns:inkscape="http://www.inkscape.org/namespaces/inkscape"
   xmlns:sodipodi="http://sodipodi.sourceforge.net/DTD/sodipodi-0.dtd"
   xmlns:xlink="http://www.w3.org/1999/xlink"
   xmlns="http://www.w3.org/2000/svg"
   xmlns:svg="http://www.w3.org/2000/svg"
   xmlns:rdf="http://www.w3.org/1999/02/22-rdf-syntax-ns#"
   xmlns:cc="http://creativecommons.org/ns#"
   xmlns:dc="http://purl.org/dc/elements/1.1/">
  <defs
     id="defs4">
    <linearGradient
       id="linearGradient4799">
      <stop
         id="stop4801"
         offset="0"
         style="stop-color:#00aad4;stop-opacity:1" />
      <stop
         id="stop4803"
         offset="1"
         style="stop-color:#2ad4ff;stop-opacity:1" />
    </linearGradient>
    <linearGradient
       inkscape:collect="always"
       xlink:href="#linearGradient4799"
       id="linearGradient4721"
       gradientUnits="userSpaceOnUse"
       x1="205.63556"
       y1="522.62042"
       x2="191.5173"
       y2="435.45551"
       gradientTransform="matrix(0.5099892,0,0,0.49797434,-29.649126,98.70829)" />
  </defs>
  <sodipodi:namedview
     id="base"
     pagecolor="#81dfeb"
     bordercolor="#666666"
     borderopacity="1.0"
     inkscape:pageopacity="1"
     inkscape:pageshadow="2"
     inkscape:zoom="0.22392792"
     inkscape:cx="464.51937"
     inkscape:cy="2736.5913"
     inkscape:document-units="px"
     inkscape:current-layer="layer1"
     showgrid="false"
     inkscape:window-width="1366"
     inkscape:window-height="700"
     inkscape:window-x="0"
     inkscape:window-y="0"
     inkscape:window-maximized="1"
     showguides="true"
     inkscape:guide-bbox="true"
     fit-margin-top="0"
     fit-margin-left="0"
     fit-margin-right="0"
     fit-margin-bottom="0"
     inkscape:showpageshadow="2"
     inkscape:pagecheckerboard="0"
     inkscape:deskcolor="#d1d1d1"
     inkscape:export-bgcolor="#ffffff00" />
  <metadata
     id="metadata7">
    <rdf:RDF>
      <cc:Work
         rdf:about="">
        <dc:format>image/svg+xml</dc:format>
        <dc:type
           rdf:resource="http://purl.org/dc/dcmitype/StillImage" />
        <dc:title />
      </cc:Work>
    </rdf:RDF>
  </metadata>
  <g
     inkscape:label="Layer 1"
     inkscape:groupmode="layer"
     id="layer1"
     transform="translate(-40.225025,-504.15111)">
    <g
       id="g4790"
       transform="translate(0,198.00642)">
      <path
         style="opacity:0.266094;fill:#020202;fill-opacity:1;stroke:none"
         d="m 114.84412,343.53898 c 0,10.27934 -3.22251,17.99996 -9.9742,24.73632 -6.751705,6.73635 -17.032598,12.48845 -27.335343,12.48845 -10.30275,0 -20.265807,-5.11786 -27.017505,-11.85423 -6.751702,-6.73635 -10.292046,-15.0912 -10.292046,-25.37054 0,-10.27933 4.176009,-19.26841 10.927717,-26.00477 6.751697,-6.73635 16.079084,-11.21999 26.381834,-11.21999 10.302745,0 20.583638,3.84941 27.335343,10.58577 6.75169,6.73635 9.9742,16.35966 9.9742,26.63899 z"
         id="path4136"
         inkscape:connector-curvature="0"
         sodipodi:nodetypes="sssssssss" />
      <path
         style="fill:#ffffff;fill-opacity:1;stroke:none"
         d="m 76.184658,306.15478 c -9.682675,0.16375 -18.804434,4.61977 -25.389315,11.43151 -6.58488,6.81173 -10.632887,15.97917 -10.168052,25.56579 -0.1153,12.08122 7.14293,23.4077 17.551887,29.45413 9.611326,6.16234 22.347177,7.62717 32.723364,2.46007 11.594208,-5.2606 21.720988,-15.754 22.532778,-28.85562 1.38117,-13.17935 -3.65912,-27.85723 -15.84135,-34.61888 -6.411319,-3.76992 -13.96721,-5.60107 -21.409312,-5.437 z"
         id="path4138"
         inkscape:connector-curvature="0"
         sodipodi:nodetypes="cscccccc" />
      <path
         inkscape:connector-curvature="0"
         id="path4140"
         d="m 75.201547,311.64801 c -19.124397,0.32806 -35.133492,22.03274 -27.602291,40.24557 6.13649,16.56502 28.343899,25.44362 43.821585,15.79814 11.187659,-5.81291 18.479079,-18.53137 15.983379,-31.155 -1.48195,-12.58974 -12.014525,-23.03669 -24.653328,-24.418 -2.488966,-0.4079 -5.016632,-0.58915 -7.549345,-0.47071 z"
         style="fill:#004455;fill-opacity:1;stroke:none" />
      <path
         style="fill:url(#linearGradient4721);fill-opacity:1;stroke:none"
         d="m 75.063722,311.20996 c -19.181178,0.55832 -34.667097,22.01127 -27.454544,39.70237 5.556537,15.4225 25.61255,24.90185 40.921447,17.269 10.986477,-4.86322 19.769425,-15.8341 18.853665,-27.97993 0.0801,-11.68121 -7.15734,-23.74508 -19.044912,-27.07736 -4.25762,-1.47864 -8.769336,-2.08143 -13.275656,-1.91408 z"
         id="path4142"
         inkscape:connector-curvature="0" />
      <path
         style="opacity:0.656652;fill:#006680;fill-opacity:1;stroke:none"
         d="m 74.747877,371.23129 c -9.765892,-0.8627 -18.750215,-6.10289 -24.11954,-14.06794 -1.543466,-2.28962 -1.616759,-2.69592 -0.250899,-1.39082 1.548831,1.47992 5.027282,3.76596 7.580216,4.9817 5.351908,2.54865 9.466312,3.45845 15.686062,3.46859 6.595114,0.0108 11.37234,-1.13225 17.167766,-4.10756 6.447317,-3.30997 12.332588,-9.36221 15.348158,-15.78357 l 0.92392,-1.9674 -0.005,1.27122 c -0.006,1.6972 -0.76295,4.8437 -1.78704,7.42737 -2.71093,6.83933 -9.030042,13.44668 -16.419106,17.16802 -4.33034,2.1809 -9.932114,3.37079 -14.12512,3.00039 z"
         id="path4144"
         inkscape:connector-curvature="0" />
      <path
         inkscape:connector-curvature="0"
         id="path4146"
         d="m 76.411,310.86389 c 9.642702,0.0814 18.853691,4.18223 24.72807,11.00917 1.68864,1.96247 1.79159,2.32508 0.35239,1.24129 -1.631994,-1.22898 -5.21787,-3.04956 -7.814318,-3.96739 -5.443134,-1.92413 -9.547414,-2.45309 -15.647465,-2.01665 -6.468193,0.46278 -11.065491,1.83993 -16.52115,4.94903 -6.069338,3.45881 -11.377829,9.36022 -13.843983,15.39023 l -0.755584,1.8475 -0.09269,-1.1513 c -0.12396,-1.53709 0.377792,-4.4402 1.184486,-6.85286 2.135445,-6.38661 7.826929,-12.82171 14.788316,-16.72045 4.079709,-2.28485 9.481986,-3.76354 13.622098,-3.72858 z"
         style="opacity:0.656652;fill:#aaeeff;fill-opacity:1;stroke:none" />
      <path
         style="fill:#ffffff;fill-opacity:1;stroke:none"
         d="m 63.423434,318.7727 c 1.083827,1.14438 -1.8225,2.38149 -4.626709,4.97405 -2.804208,2.59257 -4.444402,5.55884 -5.52823,4.41445 -1.083827,-1.14438 0.310819,-4.17377 3.115027,-6.76634 2.804209,-2.59256 5.956084,-3.76655 7.039912,-2.62216 z"
         id="path4148"
         inkscape:connector-curvature="0"
         sodipodi:nodetypes="sssss" />
    </g>
    <g
       id="g5493"
       transform="matrix(0.51818813,0,0,0.51818813,12.864053,395.91768)"
       style="display:inline">
      <path
         inkscape:connector-curvature="0"
         id="path4438"
         d="m 117.00384,239.94819 c -5.27368,1.02791 -14.33299,2.95116 -13.40625,10.03125 2.35326,2.67274 0.90258,5.63479 -1.84375,7.21875 -3.098316,2.33531 -6.091063,-2.74173 -9.1875,0.375 -4.265285,3.44765 -5.463674,9.784 -5.59375,14.96875 0.931601,4.50211 7.98527,3.10688 7.53125,8.0625 1.099171,3.12972 -1.709251,4.33305 -3.78125,5.3125 -4.502594,5.67848 1.822503,12.39328 5.46875,16.5625 3.111241,2.48542 6.81684,-0.18649 9.5,-1.3125 3.18391,0.46455 6.05665,3.08088 4.34375,6.25 0.13908,6.82281 8.68567,7.80308 13.9375,7.5 4.34458,0.14236 7.92755,-3.82672 6.9375,-8.0625 2.25755,-2.63157 6.82368,-3.06988 8.65625,0.28125 5.26979,3.99348 10.27022,-2.2664 13.5625,-5.84375 3.51522,-3.27194 2.37737,-8.82628 -1.53125,-11.0625 -0.61687,-3.41474 1.76879,-7.18172 5.53125,-6.53125 6.33396,-1.53856 4.82841,-9.15313 4.09375,-13.9375 -0.3332,-4.8095 -5.25305,-7.89897 -9.625,-6 -2.92004,-1.57512 -4.7816,-5.87622 -1.84375,-8.375 3.17769,-5.84755 -4.29786,-9.52743 -8.34375,-12.09375 -4.36079,-2.72915 -9.18066,-0.31947 -10.84375,4.09375 -3.17066,0.77484 -8.25784,-0.0939 -7.46875,-4.375 -1.06036,-2.21935 -3.6844,-3.38575 -6.09375,-3.0625 z m 6.8125,23.84375 c 11.14525,-0.0468 16.69556,16.24203 7.65625,22.9375 -7.82007,6.92931 -22.29997,0.41256 -21.3125,-10.375 0.24169,-6.98203 6.60414,-13.11929 13.65625,-12.5625 z"
         style="opacity:0.3;fill:#000000;fill-opacity:1;stroke:none" />
      <path
         inkscape:connector-curvature="0"
         id="path4430"
         d="m 114.98179,238.92078 c -4.11264,1.17532 -11.27797,1.79283 -11.81283,7.10116 1.26652,2.44677 2.65411,5.16115 -0.0336,7.30308 -2.18654,3.1159 -5.861516,5.02655 -9.053128,2.12026 -5.503414,0.0537 -6.100827,7.54772 -7.336742,11.57724 -0.996805,4.01636 3.338934,4.57968 5.923241,5.48573 1.977953,3.43486 3.301512,10.55024 -2.25487,11.27435 -4.214512,3.84937 1.339423,9.31428 3.533751,12.75516 2.100526,3.29033 5.980452,1.83878 8.009838,-0.57213 3.43992,-0.0834 8.28753,2.44657 8.61562,6.09151 -2.61932,4.33137 1.99006,7.62214 6.05786,7.40405 4.02876,1.12807 11.5751,0.68535 9.86084,-5.35111 0.64656,-3.68741 6.25169,-4.83108 9.55796,-4.40878 1.65284,2.74222 5.0364,5.40391 7.97618,2.3895 2.96861,-2.78164 10.27614,-7.86126 5.51939,-12.11573 -4.54522,-2.11405 -1.46697,-8.68798 1.27888,-11.13973 3.20181,0.60252 7.27635,-0.66802 6.79826,-4.71166 -0.26032,-4.08898 0.15596,-13.0189 -6.05785,-11.81283 -4.40043,2.1767 -7.38652,-4.02987 -7.94253,-7.63963 1.2103,-2.22972 4.39565,-4.93061 1.64908,-7.53867 -3.44487,-2.62421 -8.52726,-8.00886 -13.12536,-5.2165 -1.20087,2.40423 -2.35725,5.39371 -5.72132,4.5434 -3.47629,0.15905 -7.73169,-1.06578 -7.20211,-5.2838 -0.61935,-1.72177 -2.49189,-2.51762 -4.24051,-2.25487 z m 5.92323,19.85632 c 12.11614,-0.61631 19.71387,15.40582 11.50994,24.43337 -7.06835,9.36967 -23.5907,5.67253 -25.98149,-5.85594 -2.48552,-9.05795 4.9144,-18.79242 14.47155,-18.57743 z"
         style="fill:#ffffff;fill-opacity:1;stroke:none" />
    </g>
  </g>
</svg>
