<?xml version="1.0" encoding="UTF-8" standalone="no"?>
<!-- Created with Inkscape (http://www.inkscape.org/) -->

<svg
   width="73.97522"
   height="74.793701"
   id="svg2"
   version="1.1"
   inkscape:version="0.48.4 r9939"
   sodipodi:docname="ui_kit .svg"
   xml:space="preserve"
   xmlns:inkscape="http://www.inkscape.org/namespaces/inkscape"
   xmlns:sodipodi="http://sodipodi.sourceforge.net/DTD/sodipodi-0.dtd"
   xmlns:xlink="http://www.w3.org/1999/xlink"
   xmlns="http://www.w3.org/2000/svg"
   xmlns:svg="http://www.w3.org/2000/svg"
   xmlns:rdf="http://www.w3.org/1999/02/22-rdf-syntax-ns#"
   xmlns:cc="http://creativecommons.org/ns#"
   xmlns:dc="http://purl.org/dc/elements/1.1/"><defs
     id="defs4"><linearGradient
       id="linearGradient10660"><stop
         style="stop-color:#9aaa00;stop-opacity:1"
         offset="0"
         id="stop10662" /><stop
         style="stop-color:#d0ff00;stop-opacity:1"
         offset="1"
         id="stop10664" /></linearGradient><linearGradient
       inkscape:collect="always"
       xlink:href="#linearGradient10660"
       id="linearGradient55"
       gradientUnits="userSpaceOnUse"
       gradientTransform="matrix(0.49778521,0,0,0.49182119,-26.192348,773.38461)"
       x1="205.63556"
       y1="522.62042"
       x2="191.5173"
       y2="435.45551" /></defs><sodipodi:namedview
     id="base"
     pagecolor="#81dfeb"
     bordercolor="#666666"
     borderopacity="1.0"
     inkscape:pageopacity="1"
     inkscape:pageshadow="2"
     inkscape:zoom="0.73589864"
     inkscape:cx="535.39982"
     inkscape:cy="1321.5135"
     inkscape:document-units="px"
     inkscape:current-layer="layer1"
     showgrid="false"
     inkscape:window-width="1366"
     inkscape:window-height="705"
     inkscape:window-x="-8"
     inkscape:window-y="-8"
     inkscape:window-maximized="1"
     showguides="true"
     inkscape:guide-bbox="true"
     fit-margin-top="0"
     fit-margin-left="0"
     fit-margin-right="0"
     fit-margin-bottom="0"
     inkscape:showpageshadow="2"
     inkscape:pagecheckerboard="0"
     inkscape:deskcolor="#d1d1d1"
     inkscape:export-bgcolor="#ffffff00" /><metadata
     id="metadata7"><rdf:RDF><cc:Work
         rdf:about=""><dc:format>image/svg+xml</dc:format><dc:type
           rdf:resource="http://purl.org/dc/dcmitype/StillImage" /><dc:title /></cc:Work></rdf:RDF></metadata><g
     inkscape:label="Layer 1"
     inkscape:groupmode="layer"
     id="layer1"
     transform="translate(-821.0072,-311.286)"><g
       id="g48"
       transform="translate(280.04281,-506.9085)"><g
         transform="translate(499.09091,-160.00106)"
         id="g47"><path
           sodipodi:nodetypes="cscccccc"
           inkscape:connector-curvature="0"
           id="path39"
           d="m 77.909888,978.20607 c -9.803147,0.16995 -19.038399,4.7946 -25.70521,11.86412 -6.66681,7.06951 -10.765182,16.58391 -10.294563,26.53331 -0.116734,12.5384 7.231803,24.2935 17.770268,30.5688 9.730911,6.3956 22.625223,7.9158 33.13051,2.5532 11.738467,-5.4597 21.991247,-16.3502 22.813137,-29.9476 1.39835,-13.6782 -3.70466,-28.91154 -16.038455,-35.92908 -6.491089,-3.91258 -14.14099,-5.81304 -21.675687,-5.64275 z"
           style="opacity:0.274678;fill:#000000;fill-opacity:1;stroke:none" /><path
           style="fill:#ffffff;fill-opacity:1;stroke:none"
           d="m 77.467032,978.20569 c -9.682675,0.16375 -18.804434,4.61977 -25.389315,11.4315 -6.584881,6.81173 -10.632888,15.97921 -10.168052,25.56581 -0.1153,12.0812 7.14293,23.4077 17.551887,29.4541 9.611326,6.1624 22.347178,7.6272 32.723365,2.4601 11.594213,-5.2606 21.720993,-15.754 22.532783,-28.8556 1.38117,-13.1794 -3.65913,-27.85727 -15.841356,-34.61892 -6.411319,-3.76991 -13.96721,-5.60107 -21.409312,-5.43699 z"
           id="path40"
           inkscape:connector-curvature="0"
           sodipodi:nodetypes="cscccccc" /><path
           style="fill:#88aa00;fill-opacity:1;stroke:none"
           d="m 75.989497,983.48422 c -18.430585,0.59763 -33.592336,20.57278 -28.054214,38.15298 4.38596,16.0709 24.137512,26.8793 39.947599,20.1037 11.286716,-4.5024 20.869798,-15.3004 20.366648,-27.85 0.40452,-11.4693 -5.94495,-23.80013 -17.254649,-27.78909 -4.712353,-1.99027 -9.880092,-2.8049 -15.005384,-2.61759 z"
           id="path41"
           inkscape:connector-curvature="0" /><path
           style="fill:url(#linearGradient55);fill-opacity:1;stroke:none"
           d="m 76.014734,983.26053 c -18.722176,0.55143 -33.837517,21.73927 -26.797559,39.21177 5.423569,15.232 24.999643,24.5942 39.942198,17.0556 10.723571,-4.8031 19.296347,-15.6384 18.402497,-27.6342 0.0782,-11.5368 -6.98606,-23.45163 -18.589167,-26.74274 -4.155736,-1.46037 -8.559484,-2.05571 -12.957969,-1.89043 z"
           id="path42"
           inkscape:connector-curvature="0" /><path
           style="opacity:0.656652;fill:#5c8000;fill-opacity:1;stroke:none"
           d="m 205.2241,547.31804 c -19.00205,-1.66631 -36.48336,-11.78773 -46.93076,-27.17221 -3.00321,-4.42242 -3.14582,-5.20719 -0.48819,-2.68639 3.01365,2.85849 9.78187,7.27397 14.74926,9.62217 10.41351,4.92272 18.41914,6.68 30.52126,6.69958 12.83249,0.0208 22.12781,-2.18694 33.4043,-7.93375 12.54491,-6.39323 23.99622,-18.08312 29.86378,-30.48598 l 1.79772,-3.80003 -0.009,2.45535 c -0.0115,3.27815 -1.48451,9.35562 -3.47715,14.34598 -5.2748,13.21017 -17.57026,25.97227 -31.94758,33.16005 -8.42579,4.21238 -19.32548,6.51066 -27.48405,5.79523 z"
           id="path43"
           inkscape:connector-curvature="0"
           transform="matrix(0.5106526,0,0,0.50453442,-28.929995,767.14311)" /><path
           transform="matrix(0.52098707,0,0,0.51474507,-244.07123,762.68849)"
           inkscape:connector-curvature="0"
           id="path44"
           d="m 615.64477,427.83568 c 18.11605,0.15816 35.42103,8.12486 46.45741,21.38762 3.17252,3.8125 3.36592,4.51696 0.66205,2.41147 -3.06608,-2.38755 -9.80298,-5.92441 -14.68101,-7.70749 -10.22619,-3.73802 -17.93703,-4.76565 -29.39739,-3.91777 -12.152,0.89904 -20.78909,3.57445 -31.03881,9.61452 -11.40266,6.71947 -21.37589,18.18419 -26.00913,29.89876 l -1.41954,3.58914 -0.17414,-2.23663 c -0.23289,-2.98612 0.70977,-8.62602 2.22533,-13.31311 4.01193,-12.40734 14.7047,-24.90887 27.78328,-32.48299 7.66468,-4.43879 17.81411,-7.31145 25.59227,-7.24355 z"
           style="opacity:0.656652;fill:#e0ffaa;fill-opacity:1;stroke:none" /><path
           style="fill:#ffffd5;fill-opacity:1;stroke:none"
           d="m 64.705813,990.82361 c 1.083825,1.14438 -1.822501,2.38149 -4.626709,4.97405 -2.804213,2.59257 -4.444405,5.55884 -5.52823,4.41444 -1.08383,-1.14437 0.310816,-4.17376 3.115023,-6.76633 2.804213,-2.59256 5.956086,-3.76655 7.039916,-2.62216 z"
           id="path45"
           inkscape:connector-curvature="0"
           sodipodi:nodetypes="sssss" /></g></g><g
       transform="matrix(0.52098706,0,0,0.51474506,647.8107,106.702)"
       id="g62"><path
         style="fill:#ffffff;stroke:none"
         d="m 372.88672,442.84436 c -2.74186,17.35325 1.15909,30.78468 8.51509,43.58791 4.74839,8.26465 21.44253,18.75142 21.44253,18.75142 h 0.129 c 0,0 16.69414,-10.48677 21.44253,-18.75142 7.356,-12.80323 9.9827,-29.0586 8.51508,-43.58791 -9.08615,-3.58486 -18.81501,-8.47073 -30.02211,-16.34894 -10.00738,7.94729 -20.01474,12.6854 -30.02212,16.34894 z"
         id="path63"
         inkscape:connector-curvature="0"
         sodipodi:nodetypes="caccaccc" /></g></g></svg>
