<?xml version="1.0" encoding="UTF-8" standalone="no"?>
<!-- Created with Inkscape (http://www.inkscape.org/) -->

<svg
   width="44.935669"
   height="50.554688"
   id="svg2"
   version="1.1"
   inkscape:version="1.3 (0e150ed6c4, 2023-07-21)"
   sodipodi:docname="ui_kit .svg"
   xml:space="preserve"
   xmlns:inkscape="http://www.inkscape.org/namespaces/inkscape"
   xmlns:sodipodi="http://sodipodi.sourceforge.net/DTD/sodipodi-0.dtd"
   xmlns="http://www.w3.org/2000/svg"
   xmlns:svg="http://www.w3.org/2000/svg"
   xmlns:rdf="http://www.w3.org/1999/02/22-rdf-syntax-ns#"
   xmlns:cc="http://creativecommons.org/ns#"
   xmlns:dc="http://purl.org/dc/elements/1.1/"><defs
     id="defs4"><linearGradient
       id="swatch9470"
       inkscape:swatch="solid"><stop
         style="stop-color:#000000;stop-opacity:1;"
         offset="0"
         id="stop9470" /></linearGradient><linearGradient
       id="swatch9468"
       inkscape:swatch="solid"><stop
         style="stop-color:#000000;stop-opacity:1;"
         offset="0"
         id="stop9468" /></linearGradient><linearGradient
       id="swatch9466"
       inkscape:swatch="solid"><stop
         style="stop-color:#000000;stop-opacity:1;"
         offset="0"
         id="stop9466" /></linearGradient><linearGradient
       id="swatch9465"
       inkscape:swatch="solid"><stop
         style="stop-color:#000000;stop-opacity:1;"
         offset="0"
         id="stop9465" /></linearGradient><linearGradient
       id="swatch9463"
       inkscape:swatch="solid"><stop
         style="stop-color:#ffffff;stop-opacity:1;"
         offset="0"
         id="stop9463" /></linearGradient><linearGradient
       id="swatch9458"
       inkscape:swatch="solid"><stop
         style="stop-color:#000000;stop-opacity:1;"
         offset="0"
         id="stop9458" /></linearGradient><filter
       style="color-interpolation-filters:sRGB"
       inkscape:label="Drop Shadow"
       id="filter63"
       x="-0.22630874"
       y="-0.025112367"
       width="1.6977853"
       height="1.069059"><feFlood
         result="flood"
         in="SourceGraphic"
         flood-opacity="0.498039"
         flood-color="rgb(57,57,57)"
         id="feFlood62" /><feGaussianBlur
         result="blur"
         in="SourceGraphic"
         stdDeviation="0.500000"
         id="feGaussianBlur62" /><feOffset
         result="offset"
         in="blur"
         dx="1.300000"
         dy="0.900000"
         id="feOffset62" /><feComposite
         result="comp1"
         operator="in"
         in="flood"
         in2="offset"
         id="feComposite62" /><feComposite
         result="comp2"
         operator="over"
         in="SourceGraphic"
         in2="comp1"
         id="feComposite63" /></filter></defs><sodipodi:namedview
     id="base"
     pagecolor="#81dfeb"
     bordercolor="#666666"
     borderopacity="1.0"
     inkscape:pageopacity="1"
     inkscape:pageshadow="2"
     inkscape:zoom="1.3457443"
     inkscape:cx="1532.9807"
     inkscape:cy="1716.8938"
     inkscape:document-units="px"
     inkscape:current-layer="g9721"
     showgrid="false"
     inkscape:window-width="1366"
     inkscape:window-height="705"
     inkscape:window-x="-8"
     inkscape:window-y="-8"
     inkscape:window-maximized="1"
     showguides="true"
     inkscape:guide-bbox="true"
     fit-margin-top="0"
     fit-margin-left="0"
     fit-margin-right="0"
     fit-margin-bottom="0"
     inkscape:showpageshadow="2"
     inkscape:pagecheckerboard="0"
     inkscape:deskcolor="#d1d1d1"
     inkscape:export-bgcolor="#ffffff00" /><metadata
     id="metadata7"><rdf:RDF><cc:Work
         rdf:about=""><dc:format>image/svg+xml</dc:format><dc:type
           rdf:resource="http://purl.org/dc/dcmitype/StillImage" /><dc:title /></cc:Work></rdf:RDF></metadata><g
     inkscape:label="Layer 1"
     inkscape:groupmode="layer"
     id="layer1"
     transform="translate(-975.65582,-398.28856)"><g
       id="g73"><rect
         style="fill:none;fill-opacity:1;stroke:none;stroke-width:0.336289;stroke-dasharray:none"
         id="rect69"
         width="44.573727"
         height="50.554672"
         x="975.65576"
         y="398.2886"
         ry="23.757933"
         rx="0"
         inkscape:export-filename="..\Documents\Godot\Desert_Dash\sprites\sound_normal.svg"
         inkscape:export-xdpi="121.72539"
         inkscape:export-ydpi="121.72539" /><g
         id="g72"
         transform="matrix(0.37304494,0,0,0.42996923,698.89097,306.86248)"
         inkscape:export-filename="..\Documents\Godot\Desert_Dash\sprites\sound_pressed.svg"
         inkscape:export-xdpi="121.72539"
         inkscape:export-ydpi="121.72539"><path
           inkscape:connector-curvature="0"
           id="path71"
           d="m 824.96875,238.90625 c -4.41318,-0.30987 -7.71949,5.10868 -3.75,8.21875 11.84144,16.72429 13.01156,40.07505 1.88727,57.32354 -1.58757,3.40615 -6.89257,7.56466 -2.32477,10.61396 6.22331,3.76943 13.0389,-2.70237 15.59375,-8.0625 10.03825,-15.0373 12.97606,-35.52724 4.04702,-51.87547 -3.35143,-5.38322 -5.60936,-12.63746 -11.48452,-15.71828 -1.23815,-0.40839 -2.61871,-0.65479 -3.96875,-0.5 z m -27.375,1.625 c -12.08848,1.74714 -17.68521,14.0773 -24.65625,22.375 -4.39067,0.58894 -11.49453,-0.4595 -12.59375,5.375 -1.10963,7.08751 -2.42529,16.63127 3.75,21.65625 3.33849,2.16987 9.02249,-1.71025 10.43926,3.31046 6.33415,7.94116 13.09152,18.92888 24.24824,19.40829 4.82226,-2.92394 2.27894,-10.02977 3.71072,-14.61151 1.07106,-18.60812 2.76483,-37.89687 -1.83572,-56.07599 -0.59703,-1.04964 -1.85739,-1.67086 -3.0625,-1.4375 z m 12.90625,8.6875 c -5.84959,-0.35641 -8.24267,7.87816 -3.9375,11.34375 7.61469,12.45965 5.35527,28.81668 -2.4375,40.5625 -1.40093,7.49921 10.31035,9.18846 13.15625,3.0625 11.31397,-14.30369 11.56325,-35.82539 0.8125,-50.5 -1.57878,-2.61254 -4.3683,-4.84882 -7.59375,-4.46875 z"
           style="opacity:0.2;fill:#000000;stroke:none"
           sodipodi:nodetypes="ccccccccccccccccccccccc" /><path
           inkscape:connector-curvature="0"
           id="path72"
           d="m 823.33342,238.25737 c -2.37884,0.0545 -4.51439,1.17225 -4.15625,2.96875 l 0.3125,0.5 0.15625,0.1875 c 10.98877,15.49148 14.50949,35.08635 7.1875,52.3125 -2.08137,5.27381 -5.0248,10.19514 -8.28125,15 0.82594,2.44133 4.65844,4.03019 10.125,-0.53125 10.62209,-13.80964 16.30999,-31.33257 10.78125,-47.625 -2.32558,-7.41393 -6.32477,-14.37769 -11.15625,-20.8125 -1.11484,-1.43427 -3.11854,-2.04235 -4.96875,-2 z m -27.46875,1.625 c -0.15725,0.005 -0.35618,0.0199 -0.5625,0.0937 -10.49892,1.76491 -16.09442,12.60327 -21.8125,20.34375 -2.6117,5.01156 -12.23799,-0.7583 -13.46875,6.0625 -1.04183,5.98232 -1.62795,13.0009 1.625,18.34375 3.38597,3.50908 9.61655,-1.54468 11.59375,3.875 6.23894,7.55974 12.03743,17.84422 22.53125,19.59375 2.36776,-0.90347 1.34266,-5.64423 2.125,-7.9375 1.4511,-19.23332 2.78569,-38.96013 -0.5625,-58 -0.38885,-0.91126 -0.36797,-2.40839 -1.46875,-2.375 z m 13,8.6875 c -0.28307,0.003 -0.56974,0.0424 -0.875,0.0937 -3.98671,-0.0364 -5.21128,5.39043 -2.125,7.9375 7.74632,12.4868 6.55381,29.90395 -1.875,41.71875 -1.62282,5.07378 5.89474,6.62787 8.5625,3.15625 9.90151,-11.61128 12.5884,-30.63791 4.4375,-44.34375 -2.03461,-3.46049 -3.87892,-8.61169 -8.125,-8.5625 z"
           style="fill:#ffffff;stroke:none"
           inkscape:export-filename="..\Documents\Godot\Desert_Dash\sprites\music_normal.svg"
           inkscape:export-xdpi="90"
           inkscape:export-ydpi="90" /></g><rect
         style="opacity:1;fill:#ffffff;fill-opacity:1;stroke:none;stroke-width:0.400001;stroke-dasharray:none;stroke-opacity:1;filter:url(#filter63)"
         id="rect72"
         width="5.3024907"
         height="47.785221"
         x="1049.1882"
         y="-357.05109"
         ry="2.3873007"
         transform="matrix(0.68142161,0.73189111,-0.73355463,0.67963049,37.538304,-116.09821)" /></g></g></svg>
