<?xml version="1.0" encoding="UTF-8" standalone="no"?>
<!-- Created with Inkscape (http://www.inkscape.org/) -->

<svg
   width="37.292358"
   height="37.658691"
   id="svg2"
   version="1.1"
   inkscape:version="1.3 (0e150ed6c4, 2023-07-21)"
   sodipodi:docname="ui_kit .svg"
   xml:space="preserve"
   xmlns:inkscape="http://www.inkscape.org/namespaces/inkscape"
   xmlns:sodipodi="http://sodipodi.sourceforge.net/DTD/sodipodi-0.dtd"
   xmlns="http://www.w3.org/2000/svg"
   xmlns:svg="http://www.w3.org/2000/svg"
   xmlns:rdf="http://www.w3.org/1999/02/22-rdf-syntax-ns#"
   xmlns:cc="http://creativecommons.org/ns#"
   xmlns:dc="http://purl.org/dc/elements/1.1/"><defs
     id="defs4"><linearGradient
       id="swatch9470"
       inkscape:swatch="solid"><stop
         style="stop-color:#000000;stop-opacity:1;"
         offset="0"
         id="stop9470" /></linearGradient><linearGradient
       id="swatch9468"
       inkscape:swatch="solid"><stop
         style="stop-color:#000000;stop-opacity:1;"
         offset="0"
         id="stop9468" /></linearGradient><linearGradient
       id="swatch9466"
       inkscape:swatch="solid"><stop
         style="stop-color:#000000;stop-opacity:1;"
         offset="0"
         id="stop9466" /></linearGradient><linearGradient
       id="swatch9465"
       inkscape:swatch="solid"><stop
         style="stop-color:#000000;stop-opacity:1;"
         offset="0"
         id="stop9465" /></linearGradient><linearGradient
       id="swatch9463"
       inkscape:swatch="solid"><stop
         style="stop-color:#ffffff;stop-opacity:1;"
         offset="0"
         id="stop9463" /></linearGradient><linearGradient
       id="swatch9458"
       inkscape:swatch="solid"><stop
         style="stop-color:#000000;stop-opacity:1;"
         offset="0"
         id="stop9458" /></linearGradient></defs><sodipodi:namedview
     id="base"
     pagecolor="#81dfeb"
     bordercolor="#666666"
     borderopacity="1.0"
     inkscape:pageopacity="1"
     inkscape:pageshadow="2"
     inkscape:zoom="1.3457443"
     inkscape:cx="1532.9807"
     inkscape:cy="1716.8938"
     inkscape:document-units="px"
     inkscape:current-layer="g9721"
     showgrid="false"
     inkscape:window-width="1366"
     inkscape:window-height="705"
     inkscape:window-x="-8"
     inkscape:window-y="-8"
     inkscape:window-maximized="1"
     showguides="true"
     inkscape:guide-bbox="true"
     fit-margin-top="0"
     fit-margin-left="0"
     fit-margin-right="0"
     fit-margin-bottom="0"
     inkscape:showpageshadow="2"
     inkscape:pagecheckerboard="0"
     inkscape:deskcolor="#d1d1d1"
     inkscape:export-bgcolor="#ffffff00" /><metadata
     id="metadata7"><rdf:RDF><cc:Work
         rdf:about=""><dc:format>image/svg+xml</dc:format><dc:type
           rdf:resource="http://purl.org/dc/dcmitype/StillImage" /><dc:title /></cc:Work></rdf:RDF></metadata><g
     inkscape:label="Layer 1"
     inkscape:groupmode="layer"
     id="layer1"
     transform="translate(-1528.0795,-342.31884)"><g
       id="g35"
       transform="matrix(0.54851145,0,0,0.54851145,1106.9298,23.69216)"><path
         inkscape:connector-curvature="0"
         id="path34"
         d="m 819.9375,581.28125 c -10.69653,2.9774 -22.16393,3.93099 -32.75,0.375 -4.46481,-1.82455 -8.86863,2.03711 -8.3125,6.65625 -6.05737,-0.0457 -11.95261,5.02774 -10.65625,11.53125 0.44142,8.34249 6.63636,18.48015 16.15625,16.96875 3.03082,5.44171 8.03233,9.66481 13.75,11.9375 0.68642,4.26647 0.1064,7.46573 -4.0625,9.03125 -2.60099,2.1746 -7.87329,7.19018 -4.125,10.28125 8.66204,2.09271 18.1759,1.81955 26.90625,0.15625 4.08308,-2.9565 -1.31592,-7.89031 -3.90625,-9.90625 -2.50911,-2.03993 -6.33634,-2.73519 -4.71875,-6.9375 -0.97067,-4.37702 5.11955,-4.99537 6.90625,-8.5 2.59205,-2.26207 3.01217,-7.33689 7.3125,-6.03125 10.06138,-1.00652 15.14883,-13.50674 12.78125,-22.4375 -1.17697,-4.43779 -6.71609,-5.26008 -9.6875,-6.46875 0.12459,-3.37144 -1.58913,-7.28081 -5.59375,-6.65625 z m -40.90625,15.1875 c -0.0565,3.70909 1.51642,9.20433 1.5625,11.8125 -3.00307,-2.48362 -5.33376,-7.59734 -3.84375,-11.25 0.69248,-0.26798 1.62394,-0.65198 2.28125,-0.5625 z M 825.625,596.5 c 4.45635,0.62555 1.07738,6.88967 0.15625,9.28125 -0.27255,0.89793 -4.01181,4.45068 -2.5625,1.46875 1.21004,-3.40771 1.54036,-7.68409 2.40625,-10.75 z"
         style="opacity:0.3;fill:#000000;fill-opacity:1;stroke:none" /><path
         inkscape:connector-curvature="0"
         id="path35"
         d="m 818.25544,580.89624 c -2.96465,-0.01 -8.56309,2.70909 -18.42957,2.78879 -14.31424,0.1157 -21.35117,-8.16549 -21.35117,3.66365 0,0.13569 0.0138,0.27234 0.0138,0.40819 -3.04549,0.24749 -6.13474,0.66417 -8.54712,2.60325 -2.51826,2.35481 -2.36783,6.24002 -1.76446,9.38445 0.87586,4.34255 3.0217,8.64607 6.64333,11.28781 2.43525,1.67364 5.45073,1.66177 8.29618,1.30428 2.87688,5.546 7.45528,10.09421 14.65615,12.6769 v 9.20972 c 0,0.0111 -1.7e-4,0.0165 0,0.0177 -0.19651,0.0891 -0.327,0.15298 -0.5515,0.25519 -2.77803,1.26497 -7.43994,3.87809 -9.09384,8.85859 -0.75456,2.43087 26.48739,2.0024 25.90051,0.27588 0,-3.05172 -6.96719,-8.36087 -9.91937,-9.13447 -0.10178,-0.0272 -0.19304,-0.0538 -0.28785,-0.0796 0.0175,-0.0659 0.0177,-0.12928 0.0177,-0.19587 v -9.41678 c 4.83291,-1.88722 8.91214,-6.61251 11.908,-12.51261 2.19429,0.31225 4.4045,0.35031 6.56832,-0.21204 4.03718,-1.37621 6.50091,-5.3143 7.93798,-9.12984 1.22813,-3.40364 1.9023,-7.3805 0.4716,-10.83196 -1.41463,-2.80464 -4.7606,-3.78056 -7.683,-4.11964 -0.6064,-0.0934 -1.21773,-0.16714 -1.8286,-0.22777 -0.0175,-0.14243 -0.0175,-0.28305 -0.0182,-0.42441 0,-4.99028 -0.76314,-6.44669 -2.92604,-6.4523 z m -39.69051,10.96967 c 0.23271,5.68482 0.97827,11.41672 2.84172,16.56322 -1.93981,0.12021 -3.88288,-0.18085 -5.29645,-1.63307 -2.71889,-2.613 -3.85947,-6.44417 -4.24674,-10.0948 -0.13991,-1.54646 0.3642,-3.41251 1.98813,-3.96053 1.47505,-0.67719 3.11476,-0.74244 4.71334,-0.87482 z m 42.60659,0.0431 c 2.06784,0.16915 4.48737,0.2746 5.81058,2.07305 1.2217,3.12766 -0.2026,6.53307 -1.35713,9.47455 -1.26283,2.73429 -3.83561,5.32964 -7.06747,4.99441 -0.35646,-0.01 -0.71254,-0.0305 -1.06549,-0.0634 2.08845,-5.24797 3.37897,-11.05667 3.67951,-16.47835 z"
         style="fill:#ffffff;fill-opacity:1;stroke:none" /></g></g></svg>
