<?xml version="1.0" encoding="UTF-8" standalone="no"?>
<!-- Created with Inkscape (http://www.inkscape.org/) -->

<svg
   width="538.83563"
   height="269.02179"
   id="svg2"
   version="1.1"
   inkscape:version="0.48.4 r9939"
   sodipodi:docname="ui_kit .svg"
   xml:space="preserve"
   xmlns:inkscape="http://www.inkscape.org/namespaces/inkscape"
   xmlns:sodipodi="http://sodipodi.sourceforge.net/DTD/sodipodi-0.dtd"
   xmlns="http://www.w3.org/2000/svg"
   xmlns:svg="http://www.w3.org/2000/svg"
   xmlns:rdf="http://www.w3.org/1999/02/22-rdf-syntax-ns#"
   xmlns:cc="http://creativecommons.org/ns#"
   xmlns:dc="http://purl.org/dc/elements/1.1/"><defs
     id="defs4" /><sodipodi:namedview
     id="base"
     pagecolor="#81dfeb"
     bordercolor="#666666"
     borderopacity="1.0"
     inkscape:pageopacity="1"
     inkscape:pageshadow="2"
     inkscape:zoom="0.22392792"
     inkscape:cx="464.51937"
     inkscape:cy="2736.5913"
     inkscape:document-units="px"
     inkscape:current-layer="layer1"
     showgrid="false"
     inkscape:window-width="1366"
     inkscape:window-height="700"
     inkscape:window-x="0"
     inkscape:window-y="0"
     inkscape:window-maximized="1"
     showguides="true"
     inkscape:guide-bbox="true"
     fit-margin-top="0"
     fit-margin-left="0"
     fit-margin-right="0"
     fit-margin-bottom="0"
     inkscape:showpageshadow="2"
     inkscape:pagecheckerboard="0"
     inkscape:deskcolor="#d1d1d1"
     inkscape:export-bgcolor="#ffffff00" /><metadata
     id="metadata7"><rdf:RDF><cc:Work
         rdf:about=""><dc:format>image/svg+xml</dc:format><dc:type
           rdf:resource="http://purl.org/dc/dcmitype/StillImage" /><dc:title /></cc:Work></rdf:RDF></metadata><g
     inkscape:label="Layer 1"
     inkscape:groupmode="layer"
     id="layer1"
     transform="translate(1222.5255,318.05244)"><g
       id="g23"
       transform="translate(-1419.918,-526.53065)"
       style="fill:#ffffff;stroke:none;stroke-opacity:1"><path
         d="m 252.04,236.17 c -1.18,0.85 -1.73,1.8 -2.4,4.47 -0.67,2.67 -0.24,4.47 -0.94,8.88 -0.71,4.41 -1.12,7.36 -2.59,13.18 -1.46,5.81 -2.56,9.23 -4.74,15.91 -2.17,6.67 -3.57,10.4 -6.12,17.47 -2.55,7.07 -4.04,10.95 -6.63,17.88 -2.59,6.93 -4.01,10.59 -6.32,16.76 -2.31,6.17 -3.37,9.32 -5.24,14.1 -1.86,4.78 -3.1,6.79 -4.09,9.8 -0.98,3.01 -0.96,3.81 -0.85,5.24 0.11,1.44 0.54,1.68 1.4,1.96 0.87,0.27 1.63,0.07 2.92,-0.57 1.29,-0.64 3.45,-1.5 3.53,-2.62 0.08,-1.11 -1.14,-2.6 -3.13,-2.96 -1.99,-0.35 -5.03,0.35 -6.82,1.17 -1.79,0.82 -2.4,2.07 -2.13,2.93 0.27,0.86 2.19,0.88 3.46,1.38 1.27,0.5 1.85,1.11 2.88,1.13 1.03,0.03 1.33,0.14 2.27,-1 0.94,-1.14 1.44,-1.7 2.44,-4.69 0.99,-3 1.13,-5.37 2.53,-10.28 1.41,-4.92 2.38,-8.07 4.49,-14.29 2.11,-6.21 3.5,-9.87 6.05,-16.8 2.55,-6.94 4.04,-10.81 6.69,-17.87 2.64,-7.05 4.09,-10.76 6.54,-17.4 2.44,-6.65 3.74,-10.04 5.68,-15.84 1.94,-5.81 2.74,-8.72 4.02,-13.2 1.28,-4.48 2.25,-6.29 2.37,-9.19 0.11,-2.9 -0.73,-4.22 -1.78,-5.33 -1.06,-1.11 -2.31,-1.07 -3.49,-0.22"
         style="fill:#ffffff;stroke:none;stroke-opacity:1"
         id="path1-1" /><path
         d="m 231.98,241.23 c 1.25,0.19 1.75,-0.47 3.19,-1.13 1.44,-0.66 1.98,-0.93 4.01,-2.15 2.03,-1.23 2.96,-2.65 6.15,-3.97 3.19,-1.31 5.36,-1.89 9.8,-2.6 4.44,-0.72 7.18,-1.03 12.4,-0.98 5.22,0.04 8.25,0.22 13.69,1.21 5.45,0.99 8.43,1.71 13.54,3.73 5.12,2.02 7.83,3.37 12.03,6.36 4.2,2.98 6.16,4.75 8.99,8.56 2.83,3.81 4.01,5.96 5.17,10.48 1.16,4.53 1.46,6.9 0.63,12.14 -0.82,5.25 -1.79,8.12 -4.75,14.09 -2.97,5.96 -5.16,9.37 -10.08,15.75 -4.93,6.37 -8.08,9.78 -14.54,16.13 -6.47,6.36 -10.45,9.74 -17.81,15.64 -7.35,5.9 -11.55,8.95 -18.98,13.88 -7.42,4.93 -11.35,7.3 -18.15,10.78 -6.79,3.48 -10.34,4.84 -15.8,6.61 -5.47,1.76 -8.09,1.99 -11.5,2.22 -3.42,0.22 -4.38,-0.31 -5.6,-1.12 -1.22,-0.8 -0.85,-1.12 -0.51,-2.91 0.34,-1.79 0.58,-3.08 2.22,-6.04 1.63,-2.97 2.77,-5.17 5.96,-8.77 3.18,-3.59 5.42,-5.71 9.97,-9.22 4.55,-3.51 7.3,-5.32 12.78,-8.33 5.47,-3 8.56,-4.29 14.61,-6.7 6.05,-2.41 9.34,-3.41 15.65,-5.37 6.31,-1.96 9.59,-2.8 15.91,-4.43 6.32,-1.63 9.55,-2.27 15.68,-3.72 6.13,-1.45 9.2,-2.03 14.96,-3.53 5.77,-1.5 8.65,-2.28 13.88,-3.97 5.23,-1.69 7.79,-2.59 12.27,-4.47 4.48,-1.87 6.55,-2.87 10.14,-4.9 3.59,-2.03 5.42,-2.95 7.83,-5.25 2.4,-2.3 3.39,-3.69 4.19,-6.25 0.81,-2.57 0.77,-4.28 -0.18,-6.57 -0.94,-2.29 -2.07,-3.7 -4.56,-4.89 -2.49,-1.2 -4.54,-1.76 -7.9,-1.09 -3.35,0.68 -5.2,2.07 -8.89,4.47 -3.68,2.39 -5.76,4.07 -9.54,7.49 -3.77,3.42 -5.92,5.56 -9.31,9.6 -3.39,4.04 -5.16,6.38 -7.65,10.58 -2.49,4.21 -3.69,6.42 -4.81,10.43 -1.11,4.02 -1.56,6.21 -0.78,9.66 0.79,3.44 1.99,5.42 4.71,7.58 2.72,2.16 4.83,2.84 8.88,3.24 4.06,0.4 6.48,-0.08 11.39,-1.24 4.92,-1.16 7.64,-2.21 13.18,-4.55 5.53,-2.35 8.64,-3.96 14.51,-7.18 5.87,-3.21 9.08,-5.19 14.82,-8.89 5.74,-3.71 8.66,-5.91 13.87,-9.62 5.21,-3.72 7.81,-5.79 12.18,-8.95 4.37,-3.16 6.48,-4.64 9.68,-6.86 3.2,-2.22 4.68,-2.87 6.34,-4.23 1.65,-1.35 1.79,-2.04 1.95,-2.53 0.16,-0.49 -0.51,-0.51 -1.17,0.08 -0.66,0.59 -1.52,1.24 -2.12,2.89 -0.61,1.65 -0.77,2.91 -0.91,5.37 -0.14,2.46 0.2,4.04 0.21,6.93 0.01,2.9 0.08,4.54 -0.15,7.56 -0.22,3.01 -0.39,4.68 -0.97,7.52 -0.59,2.84 -0.92,4.24 -1.95,6.68 -1.03,2.45 -1.69,3.54 -3.21,5.54 -1.53,2.01 -2.39,2.91 -4.4,4.49 -2,1.57 -3.24,2.26 -5.63,3.37 -2.38,1.12 -3.87,1.54 -6.3,2.18 -2.44,0.65 -3.77,0.81 -5.89,1.06 -2.11,0.24 -3.22,0.15 -4.69,0.19 -1.46,0.04 -1.98,-0.1 -2.62,-0.01 -0.63,0.1 -0.79,0.31 -0.56,0.47 0.24,0.16 0.45,0.53 1.72,0.33 1.28,-0.2 2.26,-0.29 4.64,-1.34 2.38,-1.05 3.78,-2.39 7.27,-3.92 3.48,-1.52 5.72,-2.22 10.13,-3.72 4.42,-1.5 6.96,-2.24 11.95,-3.79 5,-1.55 7.74,-2.28 13.04,-3.94 5.3,-1.66 8.19,-2.49 13.46,-4.35 5.26,-1.86 8,-2.91 12.86,-4.97 4.87,-2.05 7.26,-3.14 11.45,-5.33 4.19,-2.19 6.2,-3.3 9.51,-5.6 3.31,-2.29 5.08,-3.3 7.04,-5.87 1.96,-2.56 2.47,-4.25 2.76,-6.94 0.29,-2.69 0,-4.33 -1.32,-6.53 -1.31,-2.2 -2.61,-3.42 -5.27,-4.48 -2.67,-1.06 -4.71,-1.53 -8.06,-0.82 -3.34,0.7 -5.19,2.07 -8.67,4.33 -3.47,2.27 -5.35,3.84 -8.69,6.99 -3.34,3.15 -5.17,5.05 -8.01,8.75 -2.85,3.7 -4.35,5.81 -6.23,9.74 -1.89,3.92 -2.76,6.06 -3.19,9.87 -0.44,3.8 -0.4,5.93 1.03,9.15 1.43,3.23 2.99,5.02 6.12,6.99 3.13,1.96 5.31,2.44 9.51,2.84 4.2,0.39 6.62,0.04 11.5,-0.86 4.87,-0.91 7.58,-1.77 12.87,-3.65 5.29,-1.89 8.17,-3.19 13.59,-5.76 5.42,-2.58 8.36,-4.25 13.51,-7.12 5.15,-2.86 7.78,-4.55 12.23,-7.2 4.45,-2.65 6.99,-3.94 10.02,-6.05 3.03,-2.11 4.29,-3.1 5.13,-4.5 0.85,-1.4 0.23,-2.28 -0.9,-2.5 -1.13,-0.22 -2.8,-0.08 -4.75,1.38 -1.96,1.46 -3,3.25 -5.02,5.91 -2.02,2.67 -3.12,4.65 -5.1,7.41 -1.98,2.75 -3.66,4 -4.81,6.36 -1.14,2.36 -1.27,3.71 -0.91,5.44 0.36,1.72 1.17,2.54 2.71,3.18 1.54,0.63 2.91,0.8 4.99,-0.02 2.08,-0.81 3.33,-1.8 5.41,-4.06 2.07,-2.27 2.8,-4.36 4.97,-7.24 2.17,-2.89 3.44,-4.42 5.89,-7.2 2.45,-2.78 3.88,-4.18 6.37,-6.68 2.48,-2.51 3.74,-3.74 6.06,-5.85 2.32,-2.1 3.35,-2.93 5.53,-4.68 2.19,-1.76 3.21,-2.5 5.38,-4.1 2.18,-1.61 3.19,-2.34 5.49,-3.92 2.31,-1.59 3.42,-2.26 6.02,-4.01 2.61,-1.76 3.99,-2.7 7.03,-4.77 3.04,-2.06 4.71,-3.15 8.17,-5.57 3.46,-2.43 5.35,-3.76 9.15,-6.56 3.8,-2.8 5.83,-4.33 9.86,-7.43 4.02,-3.11 6.19,-4.81 10.25,-8.07 4.06,-3.27 6.15,-5.02 10.04,-8.25 3.88,-3.24 5.84,-4.99 9.39,-7.92 3.55,-2.93 5.43,-4.34 8.36,-6.71 2.92,-2.38 4.85,-3.32 6.26,-5.17 1.41,-1.85 1.32,-3.24 0.8,-4.07 -0.52,-0.83 -1.84,-1.39 -3.38,-0.08 -1.55,1.31 -2.14,2.89 -4.35,6.63 -2.21,3.73 -3.55,6.64 -6.69,12.04 -3.15,5.4 -5.22,8.7 -9.04,14.96 -3.82,6.25 -6.09,9.75 -10.06,16.31 -3.98,6.57 -6.1,10.2 -9.84,16.51 -3.73,6.3 -5.63,9.58 -8.85,15.01 -3.22,5.42 -4.74,8.06 -7.26,12.1 -2.53,4.04 -4,5.54 -5.37,8.1 -1.37,2.56 -1.33,3.4 -1.48,4.72 -0.15,1.32 0.12,1.49 0.75,1.88 0.63,0.39 1.81,0.27 2.4,0.05 0.58,-0.21 1.4,-0.8 0.54,-1.12 -0.87,-0.31 -3.97,-0.63 -4.88,-0.46 -0.92,0.18 -0.24,0.82 0.3,1.35 0.55,0.54 1.43,1.19 2.42,1.33 1,0.13 1.41,0.27 2.56,-0.65 1.16,-0.92 1.82,-1.38 3.22,-3.96 1.4,-2.57 1.73,-4.63 3.78,-8.91 2.05,-4.27 3.47,-6.95 6.47,-12.47 3,-5.52 4.86,-8.83 8.52,-15.14 3.67,-6.32 5.77,-9.95 9.81,-16.44 4.04,-6.49 6.31,-9.95 10.38,-16.02 4.07,-6.08 6.34,-9.24 9.98,-14.34 3.63,-5.1 5.7,-7.47 8.18,-11.16 2.49,-3.7 3.84,-4.91 4.24,-7.31 0.4,-2.4 -0.68,-3.79 -2.24,-4.69 -1.55,-0.89 -3.22,-1 -5.53,0.22 -2.31,1.21 -3.29,3.19 -6.02,5.86 -2.74,2.67 -4.29,4.35 -7.63,7.47 -3.34,3.12 -5.28,4.87 -9.08,8.13 -3.79,3.26 -5.87,4.99 -9.9,8.19 -4.03,3.2 -6.21,4.85 -10.26,7.81 -4.04,2.96 -6.1,4.4 -9.97,6.97 -3.86,2.58 -5.78,3.75 -9.34,5.9 -3.56,2.15 -5.29,3.06 -8.46,4.85 -3.17,1.79 -4.61,2.54 -7.4,4.11 -2.78,1.57 -4.03,2.13 -6.52,3.73 -2.5,1.6 -3.65,2.46 -5.93,4.26 -2.29,1.79 -3.28,2.71 -5.49,4.71 -2.2,2 -3.22,2.99 -5.54,5.29 -2.31,2.3 -3.5,3.63 -6.03,6.21 -2.53,2.58 -3.93,4.04 -6.6,6.68 -2.67,2.64 -4.05,4.16 -6.74,6.54 -2.68,2.38 -4.6,3.27 -6.69,5.36 -2.09,2.09 -3.03,3.2 -3.77,5.07 -0.73,1.87 -0.46,3.11 0.09,4.27 0.56,1.16 1.28,1.66 2.68,1.52 1.4,-0.15 2.52,-0.57 4.32,-2.25 1.8,-1.69 2.59,-3.58 4.7,-6.19 2.11,-2.61 3.79,-4.12 5.86,-6.87 2.08,-2.75 3.69,-4.26 4.52,-6.87 0.82,-2.61 0.48,-4.52 -0.41,-6.19 -0.89,-1.67 -1.96,-2.44 -4.04,-2.18 -2.07,0.26 -3.24,1.38 -6.33,3.49 -3.1,2.11 -4.96,4.16 -9.13,7.06 -4.18,2.89 -6.77,4.57 -11.77,7.43 -4.99,2.87 -7.92,4.48 -13.21,6.89 -5.29,2.41 -8.15,3.58 -13.23,5.15 -5.08,1.57 -7.76,2.17 -12.15,2.7 -4.39,0.52 -6.57,0.41 -9.81,-0.07 -3.24,-0.48 -4.44,-1.13 -6.4,-2.34 -1.96,-1.22 -2.55,-1.89 -3.4,-3.72 -0.84,-1.83 -1.09,-2.77 -0.82,-5.43 0.27,-2.67 0.66,-4.59 2.17,-7.88 1.5,-3.3 2.79,-5.36 5.37,-8.59 2.58,-3.24 4.38,-5.03 7.51,-7.6 3.12,-2.57 5.12,-3.82 8.11,-5.25 3,-1.43 4.67,-1.37 6.87,-1.91 2.2,-0.54 2.9,-0.7 4.12,-0.8 1.22,-0.1 1.57,-0.15 1.98,0.29 0.41,0.44 0.52,0.81 0.07,1.9 -0.45,1.09 -0.89,1.74 -2.33,3.57 -1.44,1.82 -2.22,3.28 -4.85,5.56 -2.64,2.28 -4.5,3.57 -8.32,5.85 -3.83,2.27 -6.15,3.41 -10.81,5.51 -4.66,2.1 -7.34,3.14 -12.49,4.97 -5.16,1.83 -8.02,2.64 -13.29,4.18 -5.26,1.54 -8.01,2.22 -13.06,3.52 -5.04,1.3 -7.58,1.92 -12.18,2.98 -4.6,1.05 -6.86,1.45 -10.81,2.3 -3.95,0.84 -6.04,0.71 -8.94,1.94 -2.9,1.23 -4.05,2.29 -5.55,4.22 -1.5,1.93 -1.95,3.3 -1.97,5.43 -0.02,2.14 0.49,3.6 1.87,5.24 1.39,1.64 2.68,2.24 5.04,2.97 2.36,0.73 3.89,0.79 6.78,0.68 2.89,-0.11 4.58,-0.35 7.65,-1.23 3.08,-0.88 4.77,-1.62 7.73,-3.16 2.97,-1.54 4.52,-2.43 7.09,-4.54 2.57,-2.12 3.78,-3.39 5.76,-6.05 1.99,-2.67 2.84,-4.22 4.16,-7.3 1.32,-3.07 1.67,-4.82 2.46,-8.09 0.79,-3.27 0.95,-5.04 1.5,-8.27 0.56,-3.23 0.82,-4.86 1.29,-7.88 0.47,-3.01 1,-4.57 1.08,-7.21 0.08,-2.65 -0.02,-3.93 -0.69,-6 -0.66,-2.07 -1.31,-3.04 -2.63,-4.36 -1.32,-1.33 -2.15,-2 -3.96,-2.27 -1.82,-0.28 -2.84,-0.33 -5.11,0.88 -2.27,1.22 -3.18,2.59 -6.23,5.18 -3.05,2.58 -4.86,4.33 -9.02,7.73 -4.16,3.4 -6.71,5.49 -11.79,9.26 -5.09,3.76 -7.98,5.94 -13.63,9.56 -5.66,3.61 -8.87,5.52 -14.66,8.51 -5.79,2.98 -8.93,4.45 -14.3,6.4 -5.36,1.96 -8.12,2.66 -12.52,3.37 -4.41,0.71 -6.55,0.53 -9.52,0.18 -2.98,-0.35 -3.86,-0.83 -5.37,-1.93 -1.51,-1.11 -1.75,-1.57 -2.18,-3.61 -0.43,-2.03 -0.72,-3.44 0.02,-6.58 0.75,-3.15 1.56,-5.37 3.7,-9.16 2.14,-3.78 3.8,-6.1 7.01,-9.78 3.2,-3.67 5.37,-5.71 9.01,-8.57 3.64,-2.86 5.88,-4.22 9.18,-5.74 3.3,-1.52 5.07,-1.28 7.32,-1.86 2.24,-0.58 2.86,-0.85 3.9,-1.04 1.05,-0.19 1.19,-0.29 1.32,0.09 0.12,0.38 0.1,0.73 -0.69,1.82 -0.79,1.08 -1.43,1.79 -3.26,3.62 -1.83,1.82 -2.9,3.34 -5.89,5.5 -2.98,2.16 -4.89,3.28 -9.02,5.3 -4.14,2.02 -6.61,2.99 -11.64,4.8 -5.03,1.8 -7.85,2.63 -13.51,4.22 -5.66,1.58 -8.7,2.19 -14.81,3.7 -6.1,1.51 -9.36,2.17 -15.72,3.83 -6.36,1.67 -9.67,2.52 -16.08,4.5 -6.41,1.97 -9.73,2.96 -15.95,5.36 -6.23,2.41 -9.41,3.68 -15.17,6.65 -5.75,2.97 -8.64,4.73 -13.62,8.2 -4.99,3.46 -7.49,5.41 -11.3,9.12 -3.8,3.72 -5.65,5.71 -7.73,9.46 -2.08,3.74 -2.96,5.95 -2.69,9.25 0.27,3.3 1.45,5.42 4.03,7.23 2.57,1.81 4.6,2.15 8.86,1.81 4.25,-0.34 6.73,-1.33 12.42,-3.51 5.69,-2.19 9.16,-3.69 16.02,-7.41 6.86,-3.71 10.79,-6.13 18.28,-11.18 7.48,-5.05 11.7,-8.11 19.15,-14.07 7.46,-5.95 11.48,-9.32 18.12,-15.7 6.64,-6.39 9.9,-9.76 15.08,-16.22 5.19,-6.47 7.56,-9.85 10.84,-16.09 3.29,-6.25 4.55,-9.31 5.58,-15.12 1.04,-5.82 0.86,-8.74 -0.4,-13.97 -1.25,-5.22 -2.68,-7.81 -5.88,-12.15 -3.19,-4.34 -5.47,-6.26 -10.08,-9.54 -4.62,-3.28 -7.53,-4.66 -13,-6.87 -5.46,-2.2 -8.58,-2.95 -14.33,-4.13 -5.75,-1.18 -8.89,-1.43 -14.42,-1.75 -5.53,-0.33 -8.31,-0.16 -13.22,0.12 -4.91,0.28 -7.25,0.46 -11.33,1.28 -4.08,0.83 -6.35,1.21 -9.08,2.84 -2.73,1.63 -3.54,3.36 -4.57,5.31 -1.03,1.95 -1.06,3.15 -0.57,4.45 0.5,1.3 1.79,1.86 3.04,2.04"
         style="fill:#ffffff;stroke:none;stroke-width:0;stroke-opacity:1"
         id="path2-5" /><path
         d="m 578.75,304.05 c 0.17,1.23 0.6,1.98 2.11,3.05 1.51,1.06 2.66,1.96 5.46,2.27 2.79,0.31 4.75,-0.23 8.53,-0.73 3.77,-0.51 5.99,-0.97 10.34,-1.8 4.35,-0.83 6.81,-1.41 11.42,-2.36 4.61,-0.94 7.12,-1.48 11.63,-2.38 4.52,-0.91 6.91,-1.38 10.95,-2.13 4.04,-0.75 6.32,-0.8 9.27,-1.64 2.96,-0.83 3.88,-1.54 5.5,-2.55 1.62,-1 2.2,-1.54 2.59,-2.48 0.38,-0.93 0.13,-1.63 -0.68,-2.2 -0.82,-0.57 -1.54,-0.6 -3.4,-0.64 -1.85,-0.03 -2.95,-0.2 -5.89,0.46 -2.95,0.66 -4.92,1.76 -8.82,2.85 -3.91,1.09 -6.26,1.63 -10.71,2.59 -4.45,0.96 -6.98,1.46 -11.53,2.21 -4.56,0.75 -7.03,1.22 -11.23,1.54 -4.2,0.31 -6.33,0.26 -9.77,0.03 -3.44,-0.23 -5.04,-1.11 -7.44,-1.18 -2.4,-0.07 -3.15,0.43 -4.56,0.83 -1.41,0.39 -1.75,0.31 -2.5,1.16 -0.75,0.85 -1.43,1.87 -1.27,3.1"
         style="fill:#ffffff;stroke:none;stroke-opacity:1"
         id="path3-4" /><path
         d="m 403.34555,367.07927 c -1.19,0.44 -1.81,0.87 -2.77,2.91 -0.96,2.03 -0.97,3.42 -2.02,7.27 -1.04,3.85 -1.41,6.6 -3.21,11.96 -1.8,5.35 -3.15,8.63 -5.77,14.81 -2.63,6.18 -4.28,9.73 -7.35,16.07 -3.07,6.34 -4.89,9.73 -8.02,15.64 -3.13,5.92 -4.81,9.06 -7.63,13.94 -2.82,4.88 -4.38,7.08 -6.47,10.45 -2.09,3.38 -3.3,4.55 -3.97,6.42 -0.67,1.87 -0.13,2.69 0.62,2.93 0.76,0.23 2.15,0.05 3.14,-1.74 0.98,-1.78 0.95,-3.41 1.78,-7.2 0.83,-3.8 0.97,-6.53 2.36,-11.78 1.4,-5.26 2.38,-8.44 4.6,-14.5 2.23,-6.06 3.59,-9.42 6.54,-15.8 2.95,-6.38 4.65,-9.8 8.21,-16.09 3.57,-6.3 5.58,-9.57 9.61,-15.37 4.03,-5.81 6.24,-8.72 10.54,-13.65 4.31,-4.93 6.63,-7.29 11,-11 4.37,-3.72 6.63,-5.29 10.85,-7.56 4.22,-2.27 6.35,-2.99 10.25,-3.8 3.91,-0.81 5.78,-0.79 9.28,-0.25 3.5,0.55 5.17,1.21 8.23,2.99 3.05,1.78 4.56,3.04 7.05,5.93 2.5,2.88 3.76,4.69 5.42,8.5 1.66,3.81 2.39,6 2.89,10.56 0.49,4.56 0.55,7.12 -0.4,12.25 -0.94,5.13 -1.78,7.91 -4.33,13.4 -2.56,5.49 -4.34,8.45 -8.44,14.04 -4.1,5.6 -6.7,8.55 -12.06,13.94 -5.36,5.4 -8.6,8.21 -14.75,13.05 -6.15,4.85 -9.59,7.23 -16.02,11.19 -6.42,3.96 -9.93,5.83 -16.1,8.61 -6.17,2.79 -9.44,3.92 -14.77,5.31 -5.33,1.39 -8,1.63 -11.89,1.64 -3.9,0.01 -5.48,-0.8 -7.59,-1.59 -2.1,-0.79 -2.52,-1.1 -2.94,-2.35 -0.42,-1.26 -0.17,-1.77 0.83,-3.94 1.01,-2.16 1.45,-3.86 4.18,-6.88 2.74,-3.02 4.88,-5.02 9.5,-8.2 4.62,-3.18 7.64,-4.84 13.62,-7.7 5.97,-2.87 9.46,-4.22 16.27,-6.62 6.8,-2.41 10.54,-3.46 17.74,-5.42 7.2,-1.96 11.02,-2.86 18.25,-4.38 7.23,-1.51 10.99,-2.13 17.91,-3.21 6.91,-1.09 10.39,-1.44 16.67,-2.21 6.29,-0.77 9.37,-1.14 14.75,-1.65 5.38,-0.5 7.94,-0.74 12.14,-0.86 4.2,-0.11 6.11,0.52 8.85,0.29 2.74,-0.23 3.73,-0.63 4.85,-1.44 1.12,-0.82 1.19,-1.57 0.77,-2.62 -0.42,-1.05 -1.16,-2.03 -2.85,-2.61 -1.69,-0.59 -3,-0.9 -5.6,-0.31 -2.59,0.58 -4.15,1.61 -7.37,3.23 -3.23,1.61 -5.12,2.64 -8.75,4.85 -3.63,2.21 -5.66,3.43 -9.41,6.18 -3.74,2.75 -5.88,4.41 -9.33,7.56 -3.46,3.14 -5.25,4.95 -7.95,8.17 -2.7,3.21 -4.22,4.75 -5.57,7.9 -1.34,3.15 -1.6,5.04 -1.13,7.84 0.46,2.81 1.32,4.39 3.45,6.18 2.14,1.8 4.02,2.77 7.23,2.79 3.21,0.03 5.12,-0.97 8.84,-2.69 3.72,-1.72 5.69,-3.18 9.76,-5.91 4.07,-2.73 6.38,-4.46 10.58,-7.74 4.19,-3.28 6.51,-5.34 10.42,-8.66 3.9,-3.32 6.53,-5.14 9.11,-7.94 2.59,-2.81 3.58,-4.34 3.81,-6.08 0.22,-1.74 -0.96,-2.65 -2.69,-2.61 -1.73,0.05 -3.74,0.61 -5.96,2.84 -2.23,2.22 -3.44,4.74 -5.17,8.29 -1.73,3.55 -2.72,5.86 -3.48,9.44 -0.76,3.58 -1.05,5.46 -0.33,8.44 0.73,2.98 1.6,4.62 3.96,6.47 2.35,1.86 4.3,2.79 7.82,2.82 3.51,0.02 5.55,-1.04 9.76,-2.69 4.21,-1.66 6.54,-2.98 11.29,-5.6 4.75,-2.63 7.48,-4.36 12.46,-7.52 4.98,-3.16 7.68,-5.16 12.44,-8.3 4.75,-3.15 7.24,-4.95 11.34,-7.43 4.11,-2.48 6.26,-3.42 9.19,-4.97 2.92,-1.56 4.06,-2.05 5.43,-2.79 1.38,-0.73 1.38,-1.04 1.45,-0.89 0.07,0.15 -0.54,0.5 -1.09,1.64 -0.56,1.14 -1.11,2.02 -1.68,4.06 -0.57,2.03 -0.72,3.48 -1.19,6.11 -0.47,2.63 -0.5,4.31 -1.15,7.04 -0.65,2.74 -1.17,4.14 -2.11,6.63 -0.94,2.49 -1.45,3.76 -2.59,5.83 -1.14,2.06 -1.73,2.97 -3.12,4.5 -1.38,1.53 -2.23,2.1 -3.8,3.14 -1.56,1.04 -2.53,1.42 -4.02,2.05 -1.5,0.63 -2.31,0.84 -3.43,1.1 -1.13,0.27 -1.59,0.19 -2.22,0.22 -0.63,0.02 -0.79,-0.02 -0.92,-0.09 -0.14,-0.08 -0.07,0.03 0.24,-0.28 0.32,-0.31 0.37,-0.46 1.34,-1.27 0.97,-0.81 1.72,-1.16 3.5,-2.79 1.78,-1.64 2.62,-3.07 5.39,-5.37 2.78,-2.29 4.58,-3.55 8.48,-6.13 3.91,-2.58 6.27,-3.87 11.05,-6.78 4.79,-2.9 7.49,-4.47 12.88,-7.75 5.4,-3.29 8.42,-5 14.08,-8.66 5.67,-3.66 8.66,-5.62 14.24,-9.64 5.59,-4.01 8.44,-6.19 13.69,-10.43 5.25,-4.24 7.96,-6.49 12.56,-10.75 4.61,-4.25 6.77,-6.5 10.48,-10.54 3.7,-4.03 5.37,-6.05 8.04,-9.63 2.66,-3.58 4.16,-5.15 5.28,-8.27 1.12,-3.12 1.03,-4.83 0.34,-7.32 -0.7,-2.48 -1.66,-3.8 -3.82,-5.12 -2.17,-1.33 -4.05,-1.99 -7.01,-1.5 -2.96,0.5 -4.55,1.62 -7.8,3.98 -3.26,2.35 -4.89,4.08 -8.48,7.79 -3.58,3.71 -5.67,5.98 -9.43,10.75 -3.77,4.76 -5.84,7.59 -9.41,13.07 -3.58,5.48 -5.36,8.59 -8.47,14.33 -3.11,5.75 -4.61,8.87 -7.07,14.38 -2.46,5.51 -3.51,8.3 -5.21,13.19 -1.7,4.9 -2.41,7.18 -3.28,11.31 -0.88,4.12 -1.57,6.07 -1.1,9.3 0.47,3.23 1.46,4.73 3.46,6.85 1.99,2.13 3.49,3.16 6.53,3.77 3.03,0.6 4.95,0.21 8.64,-0.75 3.69,-0.96 5.7,-2.24 9.8,-4.06 4.09,-1.82 6.49,-3.17 10.7,-5.02 4.21,-1.85 6.83,-2.96 10.36,-4.21 3.52,-1.24 5.3,-1.46 7.25,-2.02 1.96,-0.57 2.19,-1.02 2.51,-0.8 0.33,0.22 -0.26,0.63 -0.86,1.89 -0.6,1.26 -1.52,2.23 -2.14,4.41 -0.63,2.18 -1.03,3.77 -1,6.49 0.02,2.72 0.13,4.42 1.12,7.12 0.99,2.71 1.73,4.27 3.81,6.4 2.09,2.13 3.47,3.35 6.63,4.27 3.16,0.91 5.23,0.7 9.17,0.28 3.94,-0.42 6.09,-1.11 10.51,-2.38 4.42,-1.28 6.88,-2.23 11.6,-3.97 4.71,-1.75 7.71,-2.93 11.98,-4.76 4.27,-1.82 6.5,-2.64 9.37,-4.38 2.86,-1.74 4.24,-2.92 4.97,-4.3 0.74,-1.38 0.22,-2.37 -1.31,-2.61 -1.53,-0.25 -3.23,0.26 -6.32,1.38 -3.09,1.13 -5,2.46 -9.15,4.27 -4.14,1.8 -7.03,3.17 -11.58,4.78 -4.54,1.6 -7.02,2.39 -11.14,3.25 -4.11,0.85 -6.24,1 -9.42,1.03 -3.18,0.03 -4.53,-0.43 -6.48,-0.88 -1.95,-0.45 -2.42,-0.47 -3.27,-1.37 -0.86,-0.9 -0.92,-1.63 -1.01,-3.13 -0.08,-1.51 0.27,-2.39 0.58,-4.39 0.32,-2 0.95,-3.23 0.99,-5.61 0.05,-2.39 0.06,-4.01 -0.76,-6.33 -0.81,-2.32 -1.38,-3.73 -3.32,-5.27 -1.93,-1.54 -3.31,-2.48 -6.33,-2.44 -3.02,0.04 -4.9,1.17 -8.77,2.64 -3.87,1.47 -6.32,2.87 -10.57,4.72 -4.26,1.86 -6.75,3.07 -10.73,4.55 -3.97,1.47 -6.14,2.05 -9.16,2.81 -3.01,0.77 -4.14,0.91 -5.9,1.01 -1.77,0.11 -2.16,0.33 -2.94,-0.49 -0.77,-0.83 -0.71,-1.4 -0.93,-3.62 -0.22,-2.23 -0.57,-3.85 -0.16,-7.51 0.41,-3.65 0.84,-6.04 2.2,-10.78 1.36,-4.74 2.32,-7.52 4.6,-12.93 2.27,-5.41 3.74,-8.51 6.78,-14.11 3.04,-5.6 4.82,-8.66 8.41,-13.91 3.6,-5.25 5.7,-7.97 9.56,-12.35 3.86,-4.37 6.07,-6.48 9.75,-9.51 3.67,-3.04 5.73,-4.05 8.62,-5.67 2.88,-1.62 4.11,-1.68 5.79,-2.45 1.67,-0.77 1.97,-1.3 2.59,-1.41 0.63,-0.11 0.71,-0.11 0.55,0.87 -0.17,0.98 -0.42,1.68 -1.35,4.02 -0.93,2.35 -1.25,4.23 -3.29,7.7 -2.05,3.47 -3.59,5.61 -6.95,9.66 -3.36,4.05 -5.44,6.32 -9.84,10.57 -4.41,4.26 -7.06,6.51 -12.2,10.71 -5.14,4.2 -7.97,6.37 -13.5,10.31 -5.53,3.93 -8.49,5.84 -14.15,9.37 -5.66,3.53 -8.69,5.19 -14.14,8.28 -5.46,3.09 -8.18,4.56 -13.13,7.18 -4.95,2.62 -7.36,3.74 -11.62,5.91 -4.26,2.16 -6.24,3.11 -9.69,4.93 -3.46,1.82 -5.2,2.28 -7.59,4.16 -2.38,1.89 -3.18,3.1 -4.33,5.27 -1.14,2.18 -1.45,3.47 -1.4,5.62 0.05,2.14 0.5,3.46 1.66,5.12 1.15,1.66 2.25,2.38 4.13,3.18 1.88,0.8 3.06,0.9 5.26,0.83 2.2,-0.07 3.45,-0.35 5.74,-1.18 2.3,-0.84 3.53,-1.49 5.72,-2.99 2.2,-1.5 3.34,-2.43 5.28,-4.51 1.93,-2.08 2.85,-3.33 4.4,-5.88 1.55,-2.55 2.13,-4.03 3.35,-6.88 1.21,-2.84 1.68,-4.36 2.72,-7.34 1.04,-2.97 1.77,-4.59 2.48,-7.53 0.71,-2.93 1.09,-4.48 1.05,-7.14 -0.05,-2.67 -0.28,-4.07 -1.28,-6.17 -0.99,-2.1 -1.85,-3.23 -3.69,-4.34 -1.83,-1.1 -3,-1.54 -5.48,-1.19 -2.47,0.35 -3.74,1.12 -6.91,2.95 -3.17,1.82 -4.92,3.37 -8.94,6.17 -4.02,2.8 -6.46,4.63 -11.17,7.82 -4.7,3.18 -7.4,5.13 -12.35,8.1 -4.95,2.97 -7.75,4.56 -12.41,6.73 -4.67,2.18 -7.16,3.11 -10.92,4.14 -3.76,1.03 -5.5,0.79 -7.88,1.03 -2.39,0.23 -3.1,0.53 -4.03,0.15 -0.92,-0.38 -0.87,-0.65 -0.62,-2.07 0.25,-1.42 0.71,-2.54 1.88,-5.03 1.17,-2.49 2.24,-4.42 3.97,-7.41 1.73,-2.98 3.64,-4.74 4.67,-7.53 1.04,-2.78 1.09,-4.65 0.52,-6.39 -0.58,-1.73 -1.57,-2.66 -3.37,-2.28 -1.8,0.37 -2.92,1.61 -5.63,4.17 -2.72,2.56 -4.36,5.21 -7.95,8.62 -3.59,3.42 -5.91,5.4 -10.01,8.45 -4.1,3.05 -6.52,4.6 -10.49,6.8 -3.98,2.2 -6.2,3.09 -9.39,4.21 -3.18,1.11 -4.6,0.99 -6.54,1.39 -1.95,0.4 -2.43,0.8 -3.18,0.6 -0.75,-0.2 -0.8,-0.4 -0.58,-1.59 0.22,-1.19 0.58,-2.1 1.68,-4.37 1.1,-2.26 1.66,-4.02 3.82,-6.95 2.16,-2.93 3.82,-4.78 6.97,-7.7 3.16,-2.93 5.23,-4.53 8.81,-6.93 3.58,-2.4 5.58,-3.5 9.1,-5.08 3.52,-1.57 5.41,-2.06 8.51,-2.78 3.11,-0.72 4.66,-0.15 7.03,-0.81 2.36,-0.67 3.43,-1.21 4.79,-2.53 1.37,-1.33 1.94,-2.61 2.01,-4.1 0.07,-1.49 -0.23,-2.43 -1.66,-3.34 -1.43,-0.9 -2.59,-1.3 -5.47,-1.2 -2.89,0.1 -4.73,1 -8.95,1.72 -4.21,0.72 -6.76,1.06 -12.14,1.87 -5.37,0.82 -8.44,1.26 -14.73,2.2 -6.3,0.94 -9.78,1.33 -16.73,2.5 -6.96,1.18 -10.75,1.81 -18.05,3.36 -7.3,1.55 -11.14,2.46 -18.44,4.39 -7.3,1.93 -11.08,2.96 -18.05,5.28 -6.97,2.32 -10.52,3.6 -16.8,6.33 -6.28,2.72 -9.43,4.21 -14.59,7.29 -5.15,3.08 -7.66,4.76 -11.18,8.1 -3.53,3.34 -5.23,5.12 -6.45,8.6 -1.21,3.47 -0.91,5.82 0.37,8.77 1.29,2.96 2.82,4.64 6.06,6 3.25,1.36 5.58,1.19 10.17,0.81 4.6,-0.38 7.22,-0.97 12.81,-2.71 5.59,-1.75 8.85,-3.01 15.15,-6.01 6.31,-3.01 9.83,-4.94 16.37,-9.03 6.53,-4.09 10.01,-6.5 16.3,-11.42 6.29,-4.93 9.59,-7.74 15.15,-13.21 5.55,-5.48 8.27,-8.43 12.63,-14.16 4.36,-5.73 6.32,-8.73 9.19,-14.49 2.86,-5.76 3.91,-8.71 5.14,-14.3 1.22,-5.59 1.35,-8.46 0.97,-13.64 -0.37,-5.19 -1.06,-7.78 -2.85,-12.27 -1.8,-4.49 -3.17,-6.7 -6.12,-10.19 -2.95,-3.49 -4.81,-5.11 -8.62,-7.24 -3.81,-2.14 -6.09,-2.92 -10.41,-3.43 -4.33,-0.52 -6.7,-0.29 -11.21,0.84 -4.51,1.13 -6.81,2.17 -11.33,4.83 -4.53,2.65 -6.81,4.43 -11.31,8.45 -4.49,4.02 -6.8,6.49 -11.16,11.63 -4.37,5.13 -6.57,8.12 -10.66,14.05 -4.09,5.94 -6.12,9.26 -9.79,15.63 -3.67,6.37 -5.41,9.82 -8.56,16.23 -3.14,6.41 -4.56,9.78 -7.16,15.82 -2.61,6.04 -3.81,9.17 -5.86,14.37 -2.05,5.2 -3.22,7.69 -4.39,11.64 -1.18,3.95 -1.85,5.65 -1.47,8.11 0.37,2.45 1.74,3.54 3.34,4.16 1.6,0.62 2.9,0.53 4.67,-1.07 1.76,-1.59 2.21,-3.29 4.15,-6.9 1.93,-3.61 2.96,-6.07 5.51,-11.14 2.56,-5.07 4.21,-8.22 7.27,-14.21 3.06,-5.99 4.87,-9.38 8.04,-15.72 3.18,-6.35 4.88,-9.88 7.82,-16.01 2.93,-6.12 4.48,-9.35 6.85,-14.62 2.38,-5.27 3.55,-7.85 5.02,-11.72 1.46,-3.86 2.09,-5.25 2.31,-7.59 0.21,-2.35 -0.35,-3.17 -1.24,-4.14 -0.88,-0.97 -1.99,-1.14 -3.18,-0.69"
         style="fill:#ffffff;stroke:none;stroke-width:0;stroke-opacity:1"
         id="path4-5" /></g></g></svg>
